<?xml version="1.0" encoding="utf-8"?>
<!-- Generator: Adobe Illustrator 15.1.0, SVG Export Plug-In . SVG Version: 6.00 Build 0)  -->
<!DOCTYPE svg PUBLIC "-//W3C//DTD SVG 1.1//EN" "http://www.w3.org/Graphics/SVG/1.1/DTD/svg11.dtd">
<svg version="1.1" id="レイヤー_1" xmlns="http://www.w3.org/2000/svg" xmlns:xlink="http://www.w3.org/1999/xlink" x="0px"
	 y="0px" width="600px" height="213px" viewBox="0 0 600 213" enable-background="new 0 0 600 213" xml:space="preserve">
<g>
	<g>
		<g>
			<path fill="#FFFFFF" d="M45.056,208.948v3.776h-1.511v-23.492c-2.015,4.281-4.583,8.36-7.705,12.237l-1.208-0.906
				c5.439-6.697,9.392-14.604,11.859-23.72h-8.611v-1.511h8.989c0.906-3.675,1.586-7.578,2.04-11.708H35.991v-1.511h13.144
				c0.302-3.475,0.453-7.126,0.453-10.953H38.635v-1.511h28.705v12.464h4.155v1.511h-4.155v13.219H48.077
				c-1.008,3.677-2.065,6.825-3.172,9.442h22.812v26.438h-1.511v-3.776H45.056z M66.207,207.438v-19.641H45.056v19.641H66.207z
				 M48.455,175.333h17.374v-11.708H50.495C50.041,167.755,49.361,171.658,48.455,175.333z M65.829,151.161h-14.73
				c0,3.827-0.151,7.479-0.453,10.953h15.183V151.161z M105.486,193.085v1.511H88.868v18.885h-1.511v-18.885H69.983v-1.511h17.374
				v-16.241H71.872v-1.511h15.485v-15.485H70.739v-1.511h22.586c2.014-4.33,3.702-8.434,5.061-12.312l1.36,0.453
				c-1.36,3.828-2.946,7.78-4.759,11.859h9.744v1.511H88.868v15.485h14.73v1.511h-14.73v16.241H105.486z M76.857,146.553l1.36-0.604
				c1.812,3.827,3.324,7.353,4.532,10.575l-1.36,0.604C79.929,153.251,78.418,149.726,76.857,146.553z"/>
			<path fill="#FFFFFF" d="M115.76,211.214c2.971-5.438,5.488-11.305,7.554-17.601l1.36,0.454
				c-2.266,6.849-4.785,12.816-7.554,17.902L115.76,211.214z M123.238,188.553V149.65h53.255v1.511h-26.816v10.575h24.55v1.511
				h-24.55V174.2h24.55v1.511h-24.55v11.331h30.216v0.755c0,9.065-0.642,15.423-1.926,19.074c-1.284,3.65-3.539,5.477-6.761,5.477
				c-2.821,0-6.245-0.253-10.273-0.756l0.151-1.511c4.632,0.503,8.007,0.756,10.122,0.756c1.058,0,1.938-0.215,2.644-0.643
				c0.705-0.429,1.436-1.335,2.191-2.72c0.755-1.384,1.333-3.663,1.737-6.836c0.402-3.173,0.604-7.201,0.604-12.086H123.238z
				 M148.166,161.736v-10.575h-23.417v10.575H148.166z M148.166,163.247h-23.417V174.2h23.417V163.247z M148.166,175.711h-23.417
				v11.331h23.417V175.711z M133.813,194.369l1.511-0.302c1.309,5.338,2.316,10.525,3.021,15.561l-1.511,0.151
				C136.129,204.895,135.123,199.758,133.813,194.369z M148.241,193.538l1.36-0.528c2.064,5.237,3.6,9.593,4.608,13.067
				l-1.511,0.454C151.438,202.251,149.953,197.919,148.241,193.538z M162.594,193.085l1.359-0.756
				c2.367,3.879,4.381,7.403,6.043,10.576l-1.36,0.755C166.874,200.388,164.86,196.862,162.594,193.085z"/>
			<path fill="#FFFFFF" d="M227.104,153.427h-14.73v21.529h11.708v1.511h-11.708v27.27c6.294-1.863,11.104-3.5,14.428-4.91
				l0.604,1.359c-7.504,3.224-18.885,6.522-34.144,9.896l-0.302-1.511c0.453-0.102,1.46-0.328,3.021-0.68
				c1.561-0.354,2.744-0.629,3.55-0.831v-40.791h1.511v40.413c1.511-0.352,4.784-1.208,9.82-2.568v-50.687h-16.241v-1.511h32.481
				V153.427z M234.657,163.7l1.511-0.15c1.511,12.388,4.608,22.233,9.292,29.535c6.244-8.158,10.046-19.489,11.406-33.992H235.11
				c-2.519,7.906-5.464,14.831-8.838,20.772l-1.359-0.755c5.438-9.467,9.442-20.471,12.01-33.011l1.511,0.303
				c-0.706,3.475-1.662,7.202-2.87,11.18h28.931v1.511h-6.119c-1.36,15.158-5.363,26.942-12.011,35.352
				c4.129,5.943,10.047,11.331,17.751,16.166l-0.755,1.208c-7.856-4.935-13.85-10.322-17.978-16.165
				c-5.439,6.496-13.321,11.909-23.644,16.24l-0.604-1.359c10.123-4.23,17.903-9.618,23.342-16.165
				C239.441,186.715,236.168,176.492,234.657,163.7z"/>
			<path fill="#FFFFFF" d="M297.43,168.006l1.36-0.604c2.517,6.194,4.431,12.313,5.741,18.356l-1.511,0.302
				c-0.654-2.668-1.058-4.33-1.209-4.985l-11.632,0.604v31.802h-1.511v-31.727l-14.277,0.756l-0.151-1.511l4.91-0.227
				c1.007-1.107,3.021-3.524,6.043-7.252c-3.676-6.496-6.874-11.936-9.593-16.316l1.208-0.755c0.201,0.353,0.529,0.881,0.982,1.586
				c0.454,0.706,0.869,1.373,1.247,2.002c0.378,0.63,0.743,1.222,1.095,1.774c2.871-3.978,6.119-9.038,9.745-15.183l1.36,0.755
				c-2.972,5.087-6.396,10.349-10.273,15.788c3.122,5.338,4.884,8.359,5.288,9.064c4.733-6.043,9.089-12.312,13.068-18.81
				l1.359,0.756c-5.59,9.115-12.061,17.929-19.413,26.438l20.169-1.058C300.376,175.888,299.041,172.036,297.43,168.006z
				 M275.146,208.344c2.618-6.949,4.23-14.075,4.834-21.377l1.511,0.15c-0.604,7.051-2.266,14.277-4.985,21.68L275.146,208.344z
				 M296.977,186.815l1.511-0.303c1.409,5.641,2.417,11.457,3.021,17.45l-1.511,0.15
				C299.443,198.625,298.437,192.858,296.977,186.815z M324.17,209.326h18.885v1.511h-41.924v-1.511h21.529v-18.13h-16.996v-1.511
				h16.996v-11.708h1.51v11.708h16.619v1.511H324.17V209.326z M308.836,155.014l1.209-0.906c4.129,5.791,8.938,10.953,14.428,15.485
				c5.992-4.633,10.751-10.651,14.277-18.054h-35.353v-1.511h37.014v1.511c-3.525,7.705-8.436,14.05-14.729,19.035
				c5.236,4.181,10.877,7.681,16.92,10.5l-0.604,1.359c-6.246-2.92-12.086-6.546-17.525-10.877
				c-4.734,3.525-10.803,6.647-18.205,9.366l-0.453-1.359c6.848-2.467,12.664-5.464,17.449-8.989
				C317.724,165.941,312.915,160.755,308.836,155.014z"/>
			<path fill="#FFFFFF" d="M353.48,209.93c4.834-4.834,8.309-10.272,10.424-16.316l1.359,0.454
				c-2.266,6.396-5.842,12.036-10.727,16.92L353.48,209.93z M372.289,154.636l1.209-0.906c1.057,1.511,2.391,3.601,4.003,6.27
				c2.618-1.511,4.935-3.146,6.95-4.91l1.057,1.209c-2.316,2.065-5.389,4.104-9.215,6.118c2.568,2.015,4.594,4.57,6.08,7.667
				c1.484,3.098,2.229,6.358,2.229,9.782c0,3.626-0.365,6.044-1.096,7.252c-0.73,1.209-2.379,1.813-4.947,1.813
				c-1.662,0-4.457-0.125-8.385-0.378l0.15-1.511c3.929,0.252,6.673,0.378,8.234,0.378c1.913,0,3.146-0.39,3.701-1.171
				c0.554-0.78,0.831-2.908,0.831-6.384c0-1.258-0.126-2.593-0.378-4.003c-6.345,5.036-15.334,9.14-26.967,12.312l-0.453-1.511
				c11.834-3.173,20.849-7.327,27.043-12.464c-0.453-1.711-1.285-3.575-2.493-5.59c-5.741,4.23-13.774,7.731-24.097,10.5
				l-0.453-1.511c10.373-2.819,18.28-6.244,23.719-10.273c-1.26-1.662-2.67-3.046-4.23-4.154c-5.338,2.619-11.684,4.91-19.035,6.874
				l-0.453-1.511c4.129-1.107,7.327-2.064,9.594-2.871c-1.613-3.021-3.174-5.689-4.684-8.007l1.209-0.906
				c1.51,2.266,3.146,5.061,4.909,8.385c3.878-1.46,7.177-2.92,9.896-4.381C374.906,158.438,373.598,156.399,372.289,154.636z
				 M356.955,153.805c11.481-1.662,20.218-3.901,26.211-6.723l0.605,1.359c-6.246,2.922-15.135,5.213-26.666,6.874L356.955,153.805z
				 M373.648,192.329h1.511v10.576c0,1.562,0,2.644,0,3.248s0.063,1.284,0.188,2.039c0.125,0.756,0.239,1.221,0.34,1.397
				c0.102,0.176,0.391,0.39,0.869,0.643c0.479,0.251,0.894,0.39,1.246,0.415c0.352,0.025,1.008,0.088,1.965,0.189
				c3.021,0.251,6.143,0.377,9.367,0.377c3.121,0,6.243-0.126,9.366-0.377c1.661-0.151,2.819-0.253,3.475-0.303
				c0.653-0.051,1.397-0.265,2.229-0.642c0.831-0.378,1.347-0.693,1.548-0.944c0.201-0.253,0.479-0.92,0.832-2.002
				c0.352-1.082,0.566-2.064,0.642-2.946c0.075-0.88,0.214-2.404,0.415-4.57l1.512,0.151c-0.203,2.217-0.367,3.865-0.492,4.948
				s-0.377,2.179-0.755,3.286c-0.378,1.106-0.718,1.851-1.02,2.228c-0.302,0.378-0.896,0.768-1.775,1.171
				c-0.882,0.402-1.751,0.654-2.606,0.756c-0.856,0.101-2.141,0.227-3.852,0.378c-3.173,0.251-6.346,0.377-9.518,0.377
				c-3.225,0-6.396-0.126-9.519-0.377c-2.821-0.253-4.521-0.857-5.099-1.813c-0.58-0.957-0.869-3.499-0.869-7.629V192.329z
				 M381.958,192.254l0.755-1.359c5.338,3.072,10.398,6.622,15.184,10.65l-0.906,1.209
				C392.508,198.928,387.497,195.427,381.958,192.254z M407.867,179.262c3.979,3.576,8.637,6.32,13.975,8.233l-0.453,1.359
				c-5.188-1.812-9.77-4.419-13.748-7.818c-3.979-3.398-7.025-7.313-9.14-11.746h-7.856v16.996
				c5.137-1.106,10.223-2.492,15.26-4.154l0.453,1.511c-7.052,2.317-14.252,4.079-21.604,5.288l-0.302-1.511
				c1.208-0.151,2.769-0.428,4.684-0.831v-37.694h28.704v20.396h-17.677c1.561,3.072,3.752,6.019,6.572,8.838
				c4.885-2.467,9.291-5.59,13.219-9.366l1.059,1.058C417.184,173.496,412.803,176.644,407.867,179.262z M390.645,158.337h25.684
				v-7.932h-25.684V158.337z M416.328,167.779v-7.932h-25.684v7.932H416.328z M409.303,192.405l1.209-0.906
				c4.481,5.942,8.283,12.036,11.406,18.28l-1.359,0.604C417.586,204.441,413.835,198.448,409.303,192.405z"/>
			<path fill="#FFFFFF" d="M434.457,161.358v-1.511h26.438v1.511H434.457z M436.723,151.161v-1.511h22.662v1.511H436.723z
				 M438.234,210.081v3.777h-1.512v-22.284h22.662v18.507H438.234z M437.102,171.935v-1.511h21.906v1.511H437.102z M437.102,182.51
				v-1.511h21.906v1.511H437.102z M438.234,208.57h19.64v-15.485h-19.64V208.57z M497.684,148.518l0.453,1.511
				c-5.037,1.461-10.273,2.694-15.713,3.701v14.806h17.752v1.511h-17.752v13.219h15.486v29.46h-1.512v-4.532h-29.46v4.532h-1.511
				v-29.46h15.486v-13.219h-18.508v-1.511h18.508v-14.504c-5.541,1.008-11.181,1.688-16.922,2.04l-0.15-1.511
				C475.523,153.755,486.805,151.74,497.684,148.518z M496.398,206.682v-21.906h-29.46v21.906H496.398z"/>
			<path fill="#FFFFFF" d="M547.236,146.251c9.567,8.36,20.571,15.938,33.01,22.737l-0.755,1.359
				c-12.036-6.546-23.114-14.201-33.237-22.964c-10.122,8.763-21.201,16.418-33.236,22.964l-0.756-1.359
				c12.438-6.799,23.441-14.377,33.01-22.737H547.236z M561.513,190.517l1.209-0.906c5.187,7.303,10.222,14.881,15.107,22.737
				l-1.208,0.755c-0.605-0.957-2.293-3.576-5.062-7.855c-18.885,3.272-37.14,5.262-54.766,5.967v-1.511
				c2.165-0.102,5.767-0.302,10.802-0.604c3.777-7.905,7.126-16.265,10.047-25.078h-22.359v-1.511h61.941v1.511h-37.996
				c-3.223,9.518-6.521,17.853-9.895,25.003c13.143-0.957,26.916-2.669,41.319-5.137
				C568.186,200.161,565.139,195.704,561.513,190.517z M525.104,170.424v-1.511h42.301v1.511H525.104z"/>
		</g>
	</g>
</g>
<path fill="#FFF100" d="M385.422,48.798l-18.381-26.174c-1.791-2.552-5.809-4.64-8.928-4.64H92.689
	C80.892,4.593,62.606-2.513,43.745,0.813C14.959,5.889-4.263,33.339,0.813,62.127c5.076,28.786,32.528,48.009,61.313,42.933
	c12.306-2.17,22.854-8.438,30.514-17.143h265.473c3.119,0,7.164-2.068,8.988-4.596l18.26-25.288
	C387.188,55.506,387.215,51.35,385.422,48.798z"/>
<linearGradient id="SVGID_1_" gradientUnits="userSpaceOnUse" x1="73.1836" y1="28.2251" x2="73.1836" y2="75.8828" gradientTransform="matrix(0.9994 -0.0349 0.0349 0.9994 -8.338 2.7518)">
	<stop  offset="0.5443" style="stop-color:#0099D9"/>
	<stop  offset="1" style="stop-color:#036EB8"/>
</linearGradient>
<path fill="url(#SVGID_1_)" d="M31.756,66.345l1.525,7.171l-20.886,4.441l4.799-10.048c0.28-0.603,0.592-1.276,0.939-2.011
	c0.347-0.739,0.688-1.532,1.024-2.387c0.336-0.852,0.661-1.747,0.981-2.68c0.316-0.936,0.58-1.867,0.793-2.794
	c0.227-0.969,0.38-1.925,0.449-2.877c0.071-0.95,0.023-1.817-0.144-2.596c-0.242-1.142-0.745-2.062-1.506-2.766
	c-0.763-0.705-1.547-0.972-2.354-0.799c-0.884,0.187-1.505,0.694-1.86,1.517c-0.354,0.825-0.403,1.852-0.14,3.088
	c0.008,0.034,0.014,0.066,0.023,0.098c0.033,0.164,0.074,0.334,0.126,0.509c0.052,0.176,0.134,0.406,0.249,0.687L8.32,56.481
	c-0.823-3.87-0.499-7.137,0.977-9.796c1.476-2.661,3.71-4.307,6.702-4.945c2.812-0.595,5.382,0.021,7.718,1.854
	c2.333,1.833,3.859,4.426,4.571,7.775c0.327,1.532,0.433,2.995,0.321,4.396c-0.109,1.4-0.459,2.825-1.049,4.275
	c-0.144,0.339-0.302,0.688-0.472,1.046c-0.167,0.36-0.353,0.712-0.549,1.061l-3.295,6.005L31.756,66.345z M29.312,49.952
	c0.057-2.099,0.422-4.056,1.097-5.866c0.716-1.887,1.659-3.396,2.832-4.53c1.175-1.137,2.569-1.869,4.184-2.215
	c1.612-0.344,3.187-0.236,4.719,0.322c1.534,0.56,2.997,1.56,4.389,2.994c1.38,1.374,2.518,3.009,3.412,4.912
	c0.892,1.899,1.628,4.203,2.201,6.904c0.567,2.666,0.831,5.06,0.791,7.172c-0.039,2.116-0.407,4.099-1.104,5.947
	c-0.687,1.884-1.62,3.379-2.797,4.498c-1.176,1.118-2.571,1.848-4.185,2.19c-1.614,0.343-3.186,0.243-4.716-0.297
	c-1.531-0.542-3.004-1.529-4.423-2.964c-1.362-1.408-2.496-3.072-3.405-4.986c-0.913-1.915-1.65-4.207-2.217-6.874
	C29.516,54.458,29.256,52.058,29.312,49.952z M39.571,62.798c1.2,1.681,2.438,2.388,3.711,2.116c1.276-0.273,2.114-1.42,2.514-3.444
	c0.4-2.021,0.285-4.516-0.345-7.475c-0.635-2.992-1.547-5.332-2.736-7.019c-1.187-1.686-2.419-2.392-3.694-2.119
	c-1.275,0.271-2.122,1.419-2.532,3.443c-0.414,2.029-0.301,4.535,0.337,7.53C37.453,58.791,38.368,61.112,39.571,62.798z
	 M74.699,57.217l1.524,7.17l-20.886,4.439l4.799-10.047c0.282-0.604,0.593-1.275,0.941-2.01c0.345-0.739,0.688-1.531,1.022-2.387
	c0.336-0.852,0.662-1.748,0.98-2.681c0.319-0.933,0.583-1.865,0.795-2.795c0.228-0.968,0.377-1.925,0.449-2.876
	c0.07-0.952,0.022-1.814-0.144-2.594c-0.242-1.14-0.742-2.059-1.505-2.766c-0.764-0.707-1.549-0.974-2.355-0.801
	c-0.884,0.189-1.502,0.695-1.859,1.519c-0.354,0.825-0.403,1.853-0.14,3.089c0.008,0.032,0.015,0.062,0.021,0.096
	c0.035,0.163,0.075,0.333,0.128,0.511c0.052,0.175,0.133,0.402,0.248,0.682l-7.457,1.586c-0.823-3.87-0.499-7.137,0.979-9.795
	c1.474-2.661,3.707-4.31,6.699-4.945c2.814-0.596,5.385,0.018,7.721,1.853c2.333,1.833,3.857,4.427,4.57,7.777
	c0.325,1.529,0.433,2.993,0.321,4.394c-0.109,1.4-0.459,2.829-1.048,4.279c-0.146,0.336-0.303,0.686-0.473,1.043
	c-0.167,0.357-0.35,0.713-0.549,1.061l-3.294,6.002L74.699,57.217z M96.171,52.653l1.523,7.171l-20.885,4.441l4.8-10.048
	c0.281-0.603,0.593-1.274,0.94-2.012c0.348-0.737,0.688-1.531,1.025-2.383c0.334-0.854,0.661-1.748,0.98-2.682
	c0.318-0.937,0.58-1.869,0.793-2.795c0.228-0.971,0.378-1.928,0.45-2.876c0.068-0.95,0.02-1.817-0.144-2.597
	c-0.244-1.14-0.746-2.06-1.507-2.768c-0.76-0.701-1.547-0.969-2.354-0.797c-0.884,0.187-1.505,0.693-1.86,1.519
	c-0.356,0.822-0.401,1.851-0.139,3.089c0.006,0.031,0.014,0.063,0.021,0.097c0.035,0.164,0.077,0.331,0.13,0.509
	c0.049,0.174,0.132,0.403,0.246,0.688l-7.454,1.583c-0.824-3.872-0.499-7.142,0.977-9.799c1.475-2.66,3.708-4.306,6.703-4.944
	c2.81-0.596,5.383,0.021,7.717,1.856c2.333,1.832,3.858,4.425,4.57,7.773c0.325,1.531,0.432,2.995,0.321,4.395
	c-0.109,1.404-0.46,2.826-1.049,4.278c-0.146,0.336-0.303,0.686-0.47,1.045c-0.169,0.357-0.354,0.712-0.552,1.059l-3.293,6.005
	L96.171,52.653z M98.271,44.31l1.134-0.016c-0.029,0.302-0.08,0.752-0.153,1.351l8.794-1.869l0.204,0.973l-4.576,0.971l0.525,2.477
	l4.144-0.883l0.204,0.973l-4.141,0.878l0.631,2.971l5.259-1.12l0.209,0.985l-5.259,1.119l0.705,3.319l-1.158,0.246l-0.704-3.318
	l-6.624,1.407l-0.208-0.984l2.564-0.546l-0.837-3.94l4.059-0.862l-0.529-2.478l-3.433,0.729c-0.3,1.59-0.738,3.063-1.315,4.429
	l-1.05-0.458C97.568,48.657,98.089,46.539,98.271,44.31z M103.248,49.413l-2.957,0.626l0.632,2.972l2.954-0.626L103.248,49.413z
	 M112.664,45.623l0.391,1.839c0.601,2.821,0.625,5.272,0.077,7.348l-1.009-0.692c0.21-0.999,0.296-2.046,0.255-3.147
	c-0.043-1.102-0.229-2.426-0.557-3.969l-0.9-4.231l5.448-1.158l-0.27-1.259l1.16-0.247l0.268,1.259l5.36-1.136l0.2,0.941
	l-2.331,0.494l0.258,1.216l2.319-0.491l0.195,0.927l-2.317,0.491l0.501,2.364l-6.345,1.349l-0.503-2.363L112.664,45.623z
	 M112.466,44.699l2.201-0.469l-0.257-1.219l-2.201,0.472L112.466,44.699z M115.507,49.957l0.832-0.722
	c0.884,0.651,1.917,1.132,3.094,1.45c0.999-0.802,1.817-1.728,2.454-2.779l-7.608,1.615l-0.196-0.928l8.938-1.9l0.196,0.93
	c-0.524,1.189-1.367,2.293-2.537,3.309c1.298,0.209,2.85,0.279,4.662,0.206l-0.135,1c-2.113,0.072-3.958-0.059-5.535-0.398
	c-1.286,0.94-2.927,1.809-4.923,2.622l-0.518-0.856c1.653-0.636,3.05-1.332,4.188-2.091C117.253,51.048,116.28,50.56,115.507,49.957
	z M115.784,43.995l4.098-0.875l-0.257-1.215l-4.099,0.871L115.784,43.995z M115.981,44.919l0.32,1.507l4.099-0.871l-0.322-1.506
	L115.981,44.919z"/>
<g>
	<g>
		<path fill="#0099D9" d="M148.884,52.168h-5.613v1.59h5.176v4.554h-5.075c1.299,1.181,2.677,2.506,4.134,3.976
			c1.076-2.336,1.815-5.174,2.218-8.511c0.403-3.337,0.605-8.415,0.605-15.234c4.952-0.434,9.053-1.277,12.302-2.53L163.942,41
			c-2.645,0.916-5.591,1.603-8.84,2.061c-0.045,1.807-0.09,3.157-0.134,4.048h9.142v4.987h-2.353v17.059h-4.975V52.096h-2.118
			c-0.336,4.097-0.913,7.434-1.731,10.011c-0.818,2.579-1.978,4.963-3.479,7.156l-3.126-3.506l-0.739,0.939
			c-0.627-0.819-1.401-1.747-2.319-2.783v5.566h-5.075v-6.036c-1.054,1.831-2.185,3.421-3.395,4.771l-2.554-4.301
			c1.837-1.663,3.35-3.529,4.538-5.602h-3.63v-4.554h5.042v-1.59h-5.042v-4.409h2.655c-0.314-1.374-0.65-2.747-1.008-4.12h-1.479
			v-4.554h4.874v-3.397h5.075v3.397h5.748v4.554h-1.412c-0.269,1.156-0.684,2.53-1.244,4.12h2.521V52.168z M140.179,47.759h1.681
			c0.515-1.397,0.941-2.771,1.277-4.12h-3.899C139.686,45.47,139.999,46.843,140.179,47.759z"/>
		<path fill="#0099D9" d="M166.463,54.264V49.71h3.328c0.022-0.458,0.034-1.18,0.034-2.168v-1.265h-3.025v-4.843h3.025v-5.205h5.042
			v5.205h2.958v4.843h-2.958v0.976c0,1.108-0.012,1.928-0.034,2.458h3.059v4.554h-3.562c1.658,2.217,3.036,4.156,4.134,5.819
			l-3.025,3.578c-1.344-2.313-2.117-3.638-2.319-3.976c-0.896,3.879-2.365,6.999-4.403,9.361l-2.857-4.879
			c1.971-2.698,3.182-6,3.63-9.903H166.463z M192.714,68.793h-1.008h-0.975c-1.771-0.024-2.869-0.205-3.294-0.542
			c-0.426-0.337-0.639-1.169-0.639-2.494v-6.686h-0.874c-0.762,5.445-4.167,8.866-10.218,10.264l-1.546-4.481
			c2.151-0.458,3.798-1.157,4.941-2.097c1.143-0.939,1.871-2.168,2.185-3.686h-2.387V36.916h17.445v22.155h-4.874v4.012
			c0,0.554,0.017,0.874,0.05,0.958c0.034,0.085,0.151,0.139,0.353,0.163c0.044,0,0.123,0.006,0.235,0.018
			c0.112,0.013,0.179,0.018,0.202,0.018c0.045,0,0.118-0.005,0.219-0.018c0.101-0.012,0.173-0.018,0.218-0.018
			c0.336-0.023,0.538-0.21,0.605-0.56c0.067-0.349,0.112-1.512,0.135-3.488l4.47,0.614c-0.045,1.133-0.079,2-0.101,2.603
			c-0.023,0.603-0.084,1.241-0.185,1.916c-0.101,0.674-0.18,1.156-0.235,1.445c-0.056,0.29-0.202,0.602-0.437,0.94
			c-0.235,0.337-0.437,0.548-0.605,0.632s-0.471,0.181-0.907,0.289c-0.437,0.108-0.83,0.168-1.177,0.181
			C193.963,68.787,193.431,68.793,192.714,68.793z M183.874,43.35h7.26V41.47h-7.26V43.35z M183.874,47.145v1.879h7.26v-1.879
			H183.874z M183.874,52.818v1.843h7.26v-1.843H183.874z"/>
		<path fill="#0099D9" d="M225.083,48.048v2.458h-18.958v-2.458c-1.546,1.061-3.193,2.037-4.941,2.928l-1.949-4.699
			c4.997-2.771,9.311-6.083,12.94-9.939h6.857c3.63,3.855,7.943,7.168,12.94,9.939l-1.949,4.699
			C228.275,50.084,226.628,49.108,225.083,48.048z M200.982,57.625v-4.698h29.243v4.698h-4.269
			c1.613,3.518,3.148,7.024,4.605,10.517l-4.739,1.699c-0.717-1.735-1.154-2.783-1.311-3.145
			c-8.067,0.964-15.495,1.554-22.285,1.771l-0.302-4.698c2.106-0.096,3.697-0.168,4.773-0.217c0.851-1.614,1.792-3.59,2.823-5.927
			H200.982z M222.158,45.952c-2.398-1.831-4.583-3.831-6.555-6c-1.972,2.168-4.157,4.169-6.554,6H222.158z M222.628,62.288
			c-0.157-0.337-0.398-0.879-0.723-1.626c-0.325-0.747-0.566-1.301-0.723-1.662l3.698-1.374h-9.647
			c-0.717,1.783-1.546,3.626-2.487,5.53C217.184,62.818,220.478,62.529,222.628,62.288z"/>
		<path fill="#0099D9" d="M258.425,63.191c2.667,0.939,4.874,1.831,6.622,2.674l-2.454,3.976c-3.003-1.566-6.655-3.072-10.958-4.518
			l0.975-2.132h-6.79l0.975,1.807c-2.801,1.879-6.599,3.421-11.395,4.626l-1.983-4.12c2.667-0.699,5.075-1.469,7.227-2.313h-4.941
			V46.168h27.024v17.023H258.425z M242.292,45.193h-5.243v-8.458h24.334v8.458H242.292z M241.082,51.156h16.268v-1.374h-16.268
			V51.156z M241.082,54.12v1.41h16.268v-1.41H241.082z M241.082,58.493v1.41h16.268v-1.41H241.082z M242.292,42.193h13.848v-1.446
			h-13.848V42.193z"/>
		<path fill="#0099D9" d="M268.24,63.697l-1.681-4.265c2.241-0.699,4.179-1.53,5.815-2.494h-4.84v-3.687h9.277l0.605-0.759h-1.782
			h-5.344v-9.939h4.034v-0.903h-6.79v-4.012h6.79v-1.988h5.209v1.988h6.588v-1.988h5.209v1.988h6.79v4.012h-6.79v0.903h4.034v9.939
			h-12.437l-0.504,0.759h15.697v3.687h-4.84c1.568,0.916,3.506,1.747,5.815,2.494l-1.681,4.265c-0.314-0.12-1.199-0.494-2.655-1.121
			c-0.135,1.904-0.381,3.313-0.74,4.229c-0.358,0.915-0.857,1.523-1.496,1.825s-1.608,0.452-2.907,0.452
			c-1.928,0-3.821-0.061-5.681-0.181l-0.235-4.663c1.792,0.145,3.294,0.217,4.504,0.217c0.403,0,0.656-0.072,0.756-0.217
			c0.101-0.145,0.196-0.59,0.286-1.337h-5.613c-2.241,3.204-6.655,5.457-13.243,6.758l-2.084-4.229
			c4.123-0.602,7.114-1.446,8.974-2.53h-4.302v-1.337C271.724,62.24,270.144,62.951,268.24,63.697z M275.634,46.313h14.386v-1.048
			h-14.386V46.313z M275.634,48.662v1.012h14.386v-1.012H275.634z M280.407,57.517h5.109c-0.022,0.313-0.079,0.759-0.168,1.337
			h3.126c-0.919-0.747-1.647-1.385-2.185-1.916h-6.891c-0.538,0.53-1.266,1.169-2.185,1.916h3.025
			C280.307,58.565,280.362,58.12,280.407,57.517z M279.533,42.554h6.588v-0.903h-6.588V42.554z"/>
		<path fill="#0099D9" d="M332.371,63.697l-1.546,4.771c-4.594-1.253-8.47-2.687-11.63-4.301v5.096h-5.512v-5.096
			c-3.16,1.614-7.037,3.048-11.631,4.301l-1.545-4.771c4.548-0.891,8.256-1.867,11.125-2.928h-10.387v-4.012h12.438v-1.192h-10.285
			v-7.012l-3.228-1.879c1.882-3.397,3.372-6.999,4.471-10.806l4.94,0.795c-0.045,0.217-0.201,0.808-0.471,1.771h6.084
			c0.246-0.747,0.492-1.602,0.74-2.566l5.209,0.506c-0.045,0.169-0.106,0.392-0.185,0.668c-0.079,0.277-0.146,0.53-0.202,0.759
			c-0.056,0.229-0.117,0.44-0.185,0.632h9.579v4.012h-10.049v1.193h9.041v3.072h-9.041v1.193h9.041v3.108h-9.041v1.156h10.049v3.397
			h-10.957v1.192h12.1v4.012h-10.049C324.113,61.83,327.822,62.806,332.371,63.697z M314.624,43.639v-1.193h-6.017v1.193H314.624z
			 M314.624,47.903V46.71h-6.017v1.193H314.624z M314.624,51.012h-6.017v1.156h6.017V51.012z"/>
		<path fill="#0099D9" d="M340.572,59.18v1.916h-5.041v-19.48h11.764v-5.747h5.512v5.747h11.765v19.48h-5.042V59.18h-6.723v10.445
			h-5.512V59.18H340.572z M340.572,54.481h6.723v-8.023h-6.723V54.481z M359.529,54.481v-8.023h-6.723v8.023H359.529z"/>
	</g>
	<g>
		<linearGradient id="SVGID_2_" gradientUnits="userSpaceOnUse" x1="248.4087" y1="35.5205" x2="248.4087" y2="65.2121">
			<stop  offset="0.5443" style="stop-color:#0099D9"/>
			<stop  offset="1" style="stop-color:#036EB8"/>
		</linearGradient>
		<path fill="url(#SVGID_2_)" d="M148.884,52.168h-5.613v1.59h5.176v4.554h-5.075c1.299,1.181,2.677,2.506,4.134,3.976
			c1.076-2.336,1.815-5.174,2.218-8.511c0.403-3.337,0.605-8.415,0.605-15.234c4.952-0.434,9.053-1.277,12.302-2.53L163.942,41
			c-2.645,0.916-5.591,1.603-8.84,2.061c-0.045,1.807-0.09,3.157-0.134,4.048h9.142v4.987h-2.353v17.059h-4.975V52.096h-2.118
			c-0.336,4.097-0.913,7.434-1.731,10.011c-0.818,2.579-1.978,4.963-3.479,7.156l-3.126-3.506l-0.739,0.939
			c-0.627-0.819-1.401-1.747-2.319-2.783v5.566h-5.075v-6.036c-1.054,1.831-2.185,3.421-3.395,4.771l-2.554-4.301
			c1.837-1.663,3.35-3.529,4.538-5.602h-3.63v-4.554h5.042v-1.59h-5.042v-4.409h2.655c-0.314-1.374-0.65-2.747-1.008-4.12h-1.479
			v-4.554h4.874v-3.397h5.075v3.397h5.748v4.554h-1.412c-0.269,1.156-0.684,2.53-1.244,4.12h2.521V52.168z M140.179,47.759h1.681
			c0.515-1.397,0.941-2.771,1.277-4.12h-3.899C139.686,45.47,139.999,46.843,140.179,47.759z"/>
		<linearGradient id="SVGID_3_" gradientUnits="userSpaceOnUse" x1="248.4087" y1="35.5205" x2="248.4087" y2="65.2121">
			<stop  offset="0.5443" style="stop-color:#0099D9"/>
			<stop  offset="1" style="stop-color:#036EB8"/>
		</linearGradient>
		<path fill="url(#SVGID_3_)" d="M166.463,54.264V49.71h3.328c0.022-0.458,0.034-1.18,0.034-2.168v-1.265h-3.025v-4.843h3.025
			v-5.205h5.042v5.205h2.958v4.843h-2.958v0.976c0,1.108-0.012,1.928-0.034,2.458h3.059v4.554h-3.562
			c1.658,2.217,3.036,4.156,4.134,5.819l-3.025,3.578c-1.344-2.313-2.117-3.638-2.319-3.976c-0.896,3.879-2.365,6.999-4.403,9.361
			l-2.857-4.879c1.971-2.698,3.182-6,3.63-9.903H166.463z M192.714,68.793h-1.008h-0.975c-1.771-0.024-2.869-0.205-3.294-0.542
			c-0.426-0.337-0.639-1.169-0.639-2.494v-6.686h-0.874c-0.762,5.445-4.167,8.866-10.218,10.264l-1.546-4.481
			c2.151-0.458,3.798-1.157,4.941-2.097c1.143-0.939,1.871-2.168,2.185-3.686h-2.387V36.916h17.445v22.155h-4.874v4.012
			c0,0.554,0.017,0.874,0.05,0.958c0.034,0.085,0.151,0.139,0.353,0.163c0.044,0,0.123,0.006,0.235,0.018
			c0.112,0.013,0.179,0.018,0.202,0.018c0.045,0,0.118-0.005,0.219-0.018c0.101-0.012,0.173-0.018,0.218-0.018
			c0.336-0.023,0.538-0.21,0.605-0.56c0.067-0.349,0.112-1.512,0.135-3.488l4.47,0.614c-0.045,1.133-0.079,2-0.101,2.603
			c-0.023,0.603-0.084,1.241-0.185,1.916c-0.101,0.674-0.18,1.156-0.235,1.445c-0.056,0.29-0.202,0.602-0.437,0.94
			c-0.235,0.337-0.437,0.548-0.605,0.632s-0.471,0.181-0.907,0.289c-0.437,0.108-0.83,0.168-1.177,0.181
			C193.963,68.787,193.431,68.793,192.714,68.793z M183.874,43.35h7.26V41.47h-7.26V43.35z M183.874,47.145v1.879h7.26v-1.879
			H183.874z M183.874,52.818v1.843h7.26v-1.843H183.874z"/>
		<linearGradient id="SVGID_4_" gradientUnits="userSpaceOnUse" x1="248.4087" y1="35.5205" x2="248.4087" y2="65.2121">
			<stop  offset="0.5443" style="stop-color:#0099D9"/>
			<stop  offset="1" style="stop-color:#036EB8"/>
		</linearGradient>
		<path fill="url(#SVGID_4_)" d="M225.083,48.048v2.458h-18.958v-2.458c-1.546,1.061-3.193,2.037-4.941,2.928l-1.949-4.699
			c4.997-2.771,9.311-6.083,12.94-9.939h6.857c3.63,3.855,7.943,7.168,12.94,9.939l-1.949,4.699
			C228.275,50.084,226.628,49.108,225.083,48.048z M200.982,57.625v-4.698h29.243v4.698h-4.269
			c1.613,3.518,3.148,7.024,4.605,10.517l-4.739,1.699c-0.717-1.735-1.154-2.783-1.311-3.145
			c-8.067,0.964-15.495,1.554-22.285,1.771l-0.302-4.698c2.106-0.096,3.697-0.168,4.773-0.217c0.851-1.614,1.792-3.59,2.823-5.927
			H200.982z M222.158,45.952c-2.398-1.831-4.583-3.831-6.555-6c-1.972,2.168-4.157,4.169-6.554,6H222.158z M222.628,62.288
			c-0.157-0.337-0.398-0.879-0.723-1.626c-0.325-0.747-0.566-1.301-0.723-1.662l3.698-1.374h-9.647
			c-0.717,1.783-1.546,3.626-2.487,5.53C217.184,62.818,220.478,62.529,222.628,62.288z"/>
		<linearGradient id="SVGID_5_" gradientUnits="userSpaceOnUse" x1="248.4087" y1="35.5205" x2="248.4087" y2="65.2121">
			<stop  offset="0.5443" style="stop-color:#0099D9"/>
			<stop  offset="1" style="stop-color:#036EB8"/>
		</linearGradient>
		<path fill="url(#SVGID_5_)" d="M258.425,63.191c2.667,0.939,4.874,1.831,6.622,2.674l-2.454,3.976
			c-3.003-1.566-6.655-3.072-10.958-4.518l0.975-2.132h-6.79l0.975,1.807c-2.801,1.879-6.599,3.421-11.395,4.626l-1.983-4.12
			c2.667-0.699,5.075-1.469,7.227-2.313h-4.941V46.168h27.024v17.023H258.425z M242.292,45.193h-5.243v-8.458h24.334v8.458H242.292z
			 M241.082,51.156h16.268v-1.374h-16.268V51.156z M241.082,54.12v1.41h16.268v-1.41H241.082z M241.082,58.493v1.41h16.268v-1.41
			H241.082z M242.292,42.193h13.848v-1.446h-13.848V42.193z"/>
		<linearGradient id="SVGID_6_" gradientUnits="userSpaceOnUse" x1="248.4087" y1="35.5205" x2="248.4087" y2="65.2121">
			<stop  offset="0.5443" style="stop-color:#0099D9"/>
			<stop  offset="1" style="stop-color:#036EB8"/>
		</linearGradient>
		<path fill="url(#SVGID_6_)" d="M268.24,63.697l-1.681-4.265c2.241-0.699,4.179-1.53,5.815-2.494h-4.84v-3.687h9.277l0.605-0.759
			h-1.782h-5.344v-9.939h4.034v-0.903h-6.79v-4.012h6.79v-1.988h5.209v1.988h6.588v-1.988h5.209v1.988h6.79v4.012h-6.79v0.903h4.034
			v9.939h-12.437l-0.504,0.759h15.697v3.687h-4.84c1.568,0.916,3.506,1.747,5.815,2.494l-1.681,4.265
			c-0.314-0.12-1.199-0.494-2.655-1.121c-0.135,1.904-0.381,3.313-0.74,4.229c-0.358,0.915-0.857,1.523-1.496,1.825
			s-1.608,0.452-2.907,0.452c-1.928,0-3.821-0.061-5.681-0.181l-0.235-4.663c1.792,0.145,3.294,0.217,4.504,0.217
			c0.403,0,0.656-0.072,0.756-0.217c0.101-0.145,0.196-0.59,0.286-1.337h-5.613c-2.241,3.204-6.655,5.457-13.243,6.758l-2.084-4.229
			c4.123-0.602,7.114-1.446,8.974-2.53h-4.302v-1.337C271.724,62.24,270.144,62.951,268.24,63.697z M275.634,46.313h14.386v-1.048
			h-14.386V46.313z M275.634,48.662v1.012h14.386v-1.012H275.634z M280.407,57.517h5.109c-0.022,0.313-0.079,0.759-0.168,1.337
			h3.126c-0.919-0.747-1.647-1.385-2.185-1.916h-6.891c-0.538,0.53-1.266,1.169-2.185,1.916h3.025
			C280.307,58.565,280.362,58.12,280.407,57.517z M279.533,42.554h6.588v-0.903h-6.588V42.554z"/>
		<linearGradient id="SVGID_7_" gradientUnits="userSpaceOnUse" x1="248.4087" y1="35.5205" x2="248.4087" y2="65.2121">
			<stop  offset="0.5443" style="stop-color:#0099D9"/>
			<stop  offset="1" style="stop-color:#036EB8"/>
		</linearGradient>
		<path fill="url(#SVGID_7_)" d="M332.371,63.697l-1.546,4.771c-4.594-1.253-8.47-2.687-11.63-4.301v5.096h-5.512v-5.096
			c-3.16,1.614-7.037,3.048-11.631,4.301l-1.545-4.771c4.548-0.891,8.256-1.867,11.125-2.928h-10.387v-4.012h12.438v-1.192h-10.285
			v-7.012l-3.228-1.879c1.882-3.397,3.372-6.999,4.471-10.806l4.94,0.795c-0.045,0.217-0.201,0.808-0.471,1.771h6.084
			c0.246-0.747,0.492-1.602,0.74-2.566l5.209,0.506c-0.045,0.169-0.106,0.392-0.185,0.668c-0.079,0.277-0.146,0.53-0.202,0.759
			c-0.056,0.229-0.117,0.44-0.185,0.632h9.579v4.012h-10.049v1.193h9.041v3.072h-9.041v1.193h9.041v3.108h-9.041v1.156h10.049v3.397
			h-10.957v1.192h12.1v4.012h-10.049C324.113,61.83,327.822,62.806,332.371,63.697z M314.624,43.639v-1.193h-6.017v1.193H314.624z
			 M314.624,47.903V46.71h-6.017v1.193H314.624z M314.624,51.012h-6.017v1.156h6.017V51.012z"/>
		<linearGradient id="SVGID_8_" gradientUnits="userSpaceOnUse" x1="248.4087" y1="35.5205" x2="248.4087" y2="65.2121">
			<stop  offset="0.5443" style="stop-color:#0099D9"/>
			<stop  offset="1" style="stop-color:#036EB8"/>
		</linearGradient>
		<path fill="url(#SVGID_8_)" d="M340.572,59.18v1.916h-5.041v-19.48h11.764v-5.747h5.512v5.747h11.765v19.48h-5.042V59.18h-6.723
			v10.445h-5.512V59.18H340.572z M340.572,54.481h6.723v-8.023h-6.723V54.481z M359.529,54.481v-8.023h-6.723v8.023H359.529z"/>
	</g>
</g>
<g>
	<g>
		<path fill="#FFFFFF" d="M53.891,126.717c-1.616-0.749-2.79-1.123-3.521-1.123c-0.579,0-1.004,0.195-1.276,0.586
			c-0.272,0.393-0.408,1.047-0.408,1.965h-1.709c0-2.84,1.046-4.26,3.138-4.26c1.123,0,2.704,0.477,4.745,1.428
			c1.616,0.749,2.79,1.123,3.521,1.123c0.578,0,1.003-0.183,1.275-0.549c0.272-0.365,0.408-0.947,0.408-1.748h1.709
			c0,2.671-1.046,4.006-3.138,4.006C57.514,128.145,55.932,127.669,53.891,126.717z"/>
		<path fill="#FFFFFF" d="M74.887,124.318c-1.378-1.327-2.9-2.611-4.567-3.853l1.123-1.378c1.803,1.344,3.342,2.619,4.618,3.827
			L74.887,124.318z M76.647,127.559c-1.004,3.044-2.339,5.74-4.005,8.086l-1.607-1.045c1.633-2.348,2.942-4.916,3.929-7.705
			L76.647,127.559z M71.724,114.854l1.148-1.378c1.463,1.105,2.849,2.271,4.159,3.495l-1.174,1.377
			C74.581,117.158,73.203,115.992,71.724,114.854z M75.882,135.619l-0.23-1.658c1.259-0.17,2.203-0.306,2.832-0.408v-8.979h1.964
			v2.628h4.541v1.658h-4.541v4.337c1.31-0.255,2.866-0.63,4.668-1.122l0.255,1.633C82.158,134.607,78.995,135.246,75.882,135.619z
			 M80.397,123.629h-1.913v-9.72h14.083v9.72H80.397z M80.397,118.017h10.205v-2.5H80.397V118.017z M80.397,119.471v2.679h10.205
			v-2.679H80.397z M89.888,135.416c-0.51,0-1.14-0.018-1.888-0.051c-0.782-0.035-1.275-0.15-1.479-0.346s-0.306-0.633-0.306-1.312
			v-9.134h1.964v3.087c1.718-0.578,3.453-1.344,5.205-2.297l0.74,1.48c-2.041,1.105-4.022,1.939-5.944,2.5v3.648
			c0,0.34,0.025,0.545,0.077,0.612c0.051,0.067,0.229,0.11,0.536,0.128c0.238,0.017,0.621,0.025,1.148,0.025
			s0.927-0.009,1.199-0.025c0.476-0.018,0.765-0.119,0.867-0.307c0.17-0.238,0.315-1.25,0.434-3.036c0-0.034,0-0.093,0-0.179
			l1.786,0.204c-0.051,0.868-0.098,1.515-0.14,1.938c-0.043,0.426-0.106,0.859-0.191,1.302c-0.085,0.442-0.166,0.739-0.243,0.894
			c-0.076,0.152-0.213,0.306-0.408,0.459c-0.195,0.152-0.395,0.246-0.599,0.28s-0.502,0.06-0.893,0.077
			C90.9,135.398,90.279,135.416,89.888,135.416z"/>
		<path fill="#FFFFFF" d="M100.526,124.318c-1.377-1.327-2.9-2.611-4.566-3.853l1.123-1.378c1.802,1.344,3.342,2.619,4.618,3.827
			L100.526,124.318z M102.465,127.404c-1.004,3.062-2.373,5.809-4.107,8.24l-1.582-1.045c1.649-2.33,2.985-4.958,4.005-7.883
			L102.465,127.404z M97.133,114.854l1.148-1.378c1.547,1.173,2.942,2.339,4.184,3.495l-1.173,1.377
			C100.101,117.226,98.715,116.061,97.133,114.854z M117.772,128.809l1.914,0.356c-0.051,0.868-0.089,1.544-0.115,2.028
			c-0.025,0.484-0.085,0.986-0.178,1.506c-0.094,0.519-0.179,0.9-0.255,1.147c-0.077,0.246-0.221,0.497-0.434,0.753
			c-0.213,0.255-0.413,0.42-0.6,0.497c-0.188,0.077-0.48,0.157-0.88,0.242c-0.4,0.085-0.787,0.132-1.161,0.141
			s-0.893,0.013-1.556,0.013c-0.953,0-1.684-0.018-2.194-0.051c-0.51-0.035-0.97-0.094-1.378-0.179s-0.685-0.234-0.829-0.446
			c-0.145-0.213-0.251-0.459-0.319-0.74s-0.102-0.685-0.102-1.212v-4.541h-3.725v2.935h-1.888V119.98h1.888v6.634h3.725v-8.572
			c-1.956,0.238-4.048,0.392-6.276,0.46l-0.229-1.762c2.398-0.084,4.566-0.246,6.505-0.484v-3.086h2.016v2.806
			c2.483-0.374,4.668-0.867,6.557-1.479l0.459,1.734c-2.007,0.664-4.346,1.183-7.016,1.557v8.827h4.464v-6.965h1.914v8.674h-6.378
			v4.286c0,0.307,0.013,0.52,0.038,0.638c0.025,0.119,0.149,0.229,0.37,0.331c0.221,0.103,0.51,0.158,0.867,0.166
			c0.357,0.01,0.953,0.014,1.786,0.014c0.425,0,0.731,0,0.918,0c0.187,0,0.412-0.034,0.676-0.103
			c0.264-0.067,0.438-0.118,0.523-0.153c0.085-0.033,0.195-0.166,0.332-0.395c0.136-0.23,0.217-0.412,0.243-0.549
			s0.068-0.442,0.127-0.919c0.06-0.476,0.098-0.876,0.115-1.198C117.712,130.117,117.738,129.573,117.772,128.809z"/>
		<path fill="#FFFFFF" d="M135.784,132.559c2.041-0.221,3.631-1.029,4.771-2.424s1.709-3.248,1.709-5.562
			c0-2.159-0.714-3.946-2.143-5.357s-3.257-2.151-5.485-2.22c-0.357,3.3-0.804,6.089-1.339,8.367
			c-0.536,2.279-1.127,4.002-1.773,5.167s-1.292,1.981-1.938,2.448c-0.647,0.469-1.353,0.702-2.118,0.702
			c-1.225,0-2.352-0.739-3.38-2.22c-1.029-1.479-1.543-3.291-1.543-5.434c0-3.197,1.093-5.8,3.278-7.807
			c2.185-2.007,5.03-3.01,8.534-3.01c2.823,0,5.157,0.879,7.003,2.64c1.845,1.761,2.768,4.001,2.768,6.723
			c0,2.823-0.714,5.106-2.143,6.85s-3.368,2.718-5.816,2.921L135.784,132.559z M132.697,117.098
			c-2.518,0.307-4.528,1.268-6.034,2.883c-1.505,1.617-2.258,3.632-2.258,6.047c0,1.599,0.34,2.959,1.021,4.082
			c0.68,1.122,1.36,1.684,2.041,1.684c0.306,0,0.625-0.115,0.957-0.344c0.332-0.23,0.702-0.677,1.11-1.34
			c0.408-0.664,0.791-1.514,1.148-2.551c0.357-1.038,0.718-2.458,1.084-4.262C132.131,121.495,132.441,119.428,132.697,117.098z"/>
		<path fill="#FFFFFF" d="M149.84,133.578v1.633h-1.888v-20.919h7.118v19.286H149.84z M149.84,122.66h3.393v-6.633h-3.393V122.66z
			 M149.84,124.369v7.525h3.393v-7.525H149.84z M170.403,122.149h-2.5v2.857h2.5v1.684h-2.5v5.612c0,1.548-0.162,2.504-0.485,2.871
			c-0.323,0.365-1.165,0.548-2.525,0.548c-0.494,0-1.573-0.042-3.24-0.128l-0.076-1.709c1.564,0.085,2.568,0.127,3.01,0.127
			c0.663,0,1.05-0.072,1.161-0.217c0.11-0.144,0.166-0.625,0.166-1.441v-5.663h-10.077v-1.684h10.077v-2.857h-10.077v-1.71h6.378
			v-3.393h-5.23v-1.658h5.23v-2.729h1.99v2.729h5.281v1.658h-5.281v3.393h6.2V122.149z M157.111,128.731l1.301-1.275
			c1.564,1.327,2.976,2.738,4.235,4.235l-1.352,1.25C159.918,131.325,158.523,129.922,157.111,128.731z"/>
		<path fill="#FFFFFF" d="M177.521,120.439v15.537h-1.965V123.68c-0.765,1.275-1.53,2.365-2.296,3.266l-1.021-1.811
			c2.789-3.352,4.72-7.365,5.792-12.042l1.888,0.434C179.375,116.129,178.575,118.434,177.521,120.439z M185.812,113.067h1.939
			c0,2.075,0.093,4.065,0.281,5.97l7.705-0.689l0.127,1.735l-7.628,0.688c0.221,1.668,0.519,3.236,0.893,4.707
			c0.374,1.472,0.752,2.688,1.135,3.648c0.382,0.961,0.773,1.79,1.173,2.487c0.399,0.698,0.744,1.204,1.033,1.519
			c0.289,0.314,0.519,0.472,0.689,0.472c0.204,0,0.378-0.124,0.523-0.37c0.144-0.246,0.297-0.723,0.459-1.429
			s0.328-1.679,0.498-2.921l1.658,0.586c-0.476,4.236-1.479,6.354-3.01,6.354c-0.408,0-0.859-0.158-1.352-0.473
			c-0.494-0.314-1.029-0.851-1.607-1.607c-0.578-0.756-1.123-1.684-1.633-2.78s-0.991-2.513-1.441-4.247
			c-0.451-1.735-0.795-3.657-1.033-5.767l-7.322,0.663l-0.127-1.734l7.271-0.663C185.889,117.345,185.812,115.295,185.812,113.067z
			 M189.409,114.088l1.25-1.225c1.599,1.242,3.027,2.509,4.286,3.801l-1.327,1.174C192.207,116.393,190.804,115.143,189.409,114.088
			z"/>
		<path fill="#FFFFFF" d="M218.391,134.268c-2.024,0.34-4.158,0.51-6.403,0.51c-3.113,0-5.362-0.361-6.748-1.084
			s-2.079-1.866-2.079-3.432c0-2.703,2.56-4.779,7.679-6.225c-0.239-0.781-0.558-1.326-0.957-1.633
			c-0.4-0.306-0.915-0.459-1.543-0.459c-1.021,0-2.173,0.494-3.457,1.479c-1.285,0.987-2.581,2.407-3.891,4.261l-1.556-0.995
			c2.092-2.908,3.801-5.851,5.127-8.827h-4.975v-1.633h5.664c0.391-0.952,0.774-1.99,1.148-3.112l1.837,0.434
			c-0.34,0.901-0.68,1.795-1.021,2.679h11.072v1.633h-11.761c-0.562,1.275-1.183,2.594-1.863,3.955l0.026,0.025
			c1.479-1.021,2.806-1.531,3.979-1.531c2.007,0,3.342,1.089,4.005,3.266c1.718-0.391,3.665-0.723,5.842-0.995l0.179,1.658
			c-2.313,0.306-4.201,0.63-5.664,0.97c0.221,1.275,0.332,2.934,0.332,4.975H211.4c0-1.837-0.077-3.333-0.229-4.49
			c-4.048,1.174-6.072,2.645-6.072,4.414c0,0.459,0.085,0.851,0.255,1.174c0.17,0.322,0.485,0.633,0.944,0.931
			c0.459,0.298,1.165,0.522,2.118,0.677c0.952,0.152,2.143,0.229,3.572,0.229c1.888,0,3.962-0.187,6.225-0.561L218.391,134.268z"/>
		<path fill="#FFFFFF" d="M223.901,119.267v-1.71h8.725v1.71H223.901z M224.615,115.645v-1.658h7.398v1.658H224.615z
			 M226.401,134.982v1.122h-1.786v-7.628h7.45v6.506H226.401z M224.794,122.863v-1.607h7.144v1.607H224.794z M224.794,126.486
			v-1.633h7.144v1.633H224.794z M226.401,133.375h3.954v-3.266h-3.954V133.375z M236.887,125.543h1.913
			c0,2.993-0.404,5.268-1.211,6.824c-0.808,1.557-2.13,2.742-3.967,3.559l-1.021-1.531c1.547-0.697,2.649-1.691,3.304-2.984
			S236.887,128.162,236.887,125.543z M246.658,114.904v1.633h-5.996v2.449h5.052v1.582h-12.042v-1.582h4.975v-2.449h-5.434v-1.633
			h5.434v-2.016h2.015v2.016H246.658z M246.224,122.48v5.104h-1.863v-3.521h-9.286v3.775h-1.862v-5.357H246.224z M240.407,125.543
			h1.914v7.5c0,0.442,0.055,0.701,0.166,0.778c0.11,0.076,0.489,0.114,1.135,0.114c0.612,0,0.982-0.182,1.11-0.549
			c0.127-0.365,0.217-1.56,0.268-3.584l1.786,0.256c-0.034,1.004-0.064,1.76-0.089,2.27c-0.025,0.511-0.085,1.013-0.179,1.506
			s-0.195,0.829-0.306,1.008c-0.111,0.178-0.306,0.344-0.586,0.497c-0.281,0.153-0.566,0.238-0.855,0.255
			c-0.289,0.018-0.714,0.025-1.275,0.025c-1.412,0-2.279-0.127-2.602-0.383c-0.323-0.254-0.485-0.961-0.485-2.117V125.543z"/>
		<path fill="#FFFFFF" d="M255.229,134.344c-1.225,0-2.415-0.65-3.572-1.951s-1.735-2.717-1.735-4.248
			c0-1.445,0.795-2.708,2.386-3.788c1.59-1.08,3.729-1.68,6.416-1.799c0.306-2.278,0.544-4.269,0.714-5.97h-7.679v-1.709h9.593
			v1.709c-0.222,2.16-0.451,4.15-0.689,5.97c1.888,0.068,3.776,0.392,5.664,0.97c0.068-1.582,0.102-3.784,0.102-6.607h1.862
			c0,3.18-0.042,5.587-0.127,7.219c1.462,0.545,2.899,1.268,4.312,2.17l-0.868,1.556c-1.123-0.697-2.313-1.31-3.571-1.837
			c-0.12,1.496-0.302,2.734-0.549,3.712s-0.612,1.808-1.097,2.487c-0.485,0.681-1.008,1.229-1.569,1.646
			c-0.561,0.417-1.335,0.88-2.321,1.391l-0.97-1.582c0.697-0.356,1.25-0.667,1.658-0.931s0.812-0.6,1.212-1.008
			c0.399-0.408,0.706-0.889,0.918-1.441c0.212-0.553,0.396-1.229,0.548-2.028c0.153-0.8,0.272-1.769,0.357-2.909
			c-2.007-0.646-3.946-1.002-5.817-1.07c-0.323,2.108-0.667,3.835-1.033,5.178c-0.366,1.344-0.765,2.369-1.199,3.074
			c-0.434,0.707-0.876,1.184-1.327,1.43C256.398,134.221,255.858,134.344,255.229,134.344z M258.47,124.318
			c-2.041,0.119-3.648,0.549-4.822,1.288c-1.174,0.739-1.761,1.586-1.761,2.538c0,0.986,0.383,1.956,1.148,2.908
			c0.765,0.953,1.496,1.43,2.194,1.43c0.408,0,0.778-0.218,1.11-0.651s0.685-1.271,1.059-2.513
			C257.772,128.077,258.129,126.41,258.47,124.318z"/>
		<path fill="#FFFFFF" d="M283.803,132.559v-2.756h-6.276c-0.221,2.416-0.646,4.447-1.276,6.098l-1.658-1.174
			c0.459-1.189,0.791-2.605,0.995-4.248c0.204-1.641,0.306-4.119,0.306-7.436v-2.041l-1.276-0.842
			c1.65-2.297,2.832-4.907,3.546-7.832l1.888,0.203c-0.204,0.816-0.34,1.344-0.408,1.582h4.133v1.607
			c-0.341,0.867-0.706,1.709-1.097,2.525h2.883v14.236c0,1.462-0.111,2.367-0.332,2.717c-0.221,0.348-0.774,0.522-1.658,0.522
			c-0.766,0-1.812-0.042-3.138-0.128l-0.051-1.658c1.445,0.086,2.279,0.128,2.5,0.128c0.459,0,0.727-0.063,0.804-0.191
			C283.764,133.744,283.803,133.307,283.803,132.559z M277.731,124.752c0,0.901-0.034,2.049-0.102,3.443h2.271v-3.443H277.731z
			 M277.731,123.17h2.168v-3.266h-2.168V123.17z M280.665,118.246c0.527-1.055,0.918-1.896,1.174-2.525h-2.755
			c-0.306,0.799-0.681,1.641-1.123,2.525H280.665z M281.558,123.17h2.245v-3.266h-2.245V123.17z M281.558,124.752v3.443h2.245
			v-3.443H281.558z M293.727,129.089h4.337v1.684h-4.337v5.103h-1.964v-5.103h-5.434v-1.684h5.434v-3.495h-2.704
			c-0.477,1.156-0.97,2.16-1.479,3.01l-1.709-0.816c1.105-1.819,1.913-3.715,2.423-5.688l1.761,0.459
			c-0.035,0.103-0.073,0.247-0.115,0.434c-0.042,0.188-0.085,0.357-0.127,0.511c-0.042,0.152-0.089,0.297-0.14,0.434h2.092v-1.863
			h1.964v1.863h3.853v1.658h-3.853V129.089z M290.487,115.593h-4.261v-1.684h11.455c-0.085,2.279-0.204,3.916-0.357,4.911
			c-0.153,0.994-0.387,1.671-0.702,2.027c-0.314,0.357-0.829,0.537-1.543,0.537c-0.901,0-2.007-0.043-3.316-0.129l-0.127-1.658
			c1.071,0.086,1.956,0.128,2.653,0.128c0.34,0,0.591-0.08,0.752-0.242c0.162-0.161,0.293-0.531,0.396-1.11
			c0.102-0.577,0.179-1.504,0.229-2.78h-3.316c-0.204,1.548-0.778,2.926-1.722,4.133c-0.944,1.208-2.198,2.169-3.763,2.884
			l-0.944-1.506C288.539,119.862,290.062,118.025,290.487,115.593z"/>
		<path fill="#FFFFFF" d="M317.656,114.828c-3.469,2.789-6.676,5.145-9.617,7.066c-1.021,0.663-1.663,1.118-1.926,1.365
			c-0.265,0.246-0.396,0.514-0.396,0.803c0,0.272,0.119,0.523,0.357,0.753s0.799,0.65,1.684,1.263
			c3.555,2.416,7.118,5.18,10.689,8.291l-1.377,1.378c-3.504-3.026-6.99-5.739-10.461-8.138c-1.36-0.936-2.219-1.599-2.576-1.99
			c-0.357-0.391-0.535-0.91-0.535-1.557c0-0.68,0.187-1.22,0.561-1.619c0.374-0.4,1.293-1.076,2.756-2.029
			c3.18-2.107,6.378-4.447,9.592-7.016L317.656,114.828z"/>
		<path fill="#FFFFFF" d="M334.418,120.414h-1.709l1.861-6.301h2.398L334.418,120.414z M339.163,120.414h-1.71l1.889-6.301h2.373
			L339.163,120.414z"/>
		<path fill="#FFFFFF" d="M350.566,124.113v-1.76H356v-0.025v-5.408h-2.092c-0.545,1.734-1.174,3.291-1.888,4.668l-1.606-0.663
			c1.207-2.381,2.134-5.17,2.78-8.368l1.735,0.281c-0.137,0.731-0.315,1.521-0.537,2.373h7.425v1.709h-3.853v5.408v0.025h4.234v1.76
			h-4.336c-0.068,0.527-0.128,0.944-0.18,1.25c1.719,2.586,3.274,5.069,4.67,7.45l-1.582,1.071
			c-1.141-1.973-2.373-4.014-3.699-6.123c-0.545,1.65-1.285,3.146-2.22,4.49c-0.936,1.344-1.999,2.406-3.188,3.189l-1.148-1.557
			c1.496-1.037,2.713-2.402,3.648-4.095c0.935-1.692,1.514-3.584,1.734-5.677H350.566z M372.915,114.674v20.691h-1.913v-1.607
			h-6.123v1.607h-1.863v-20.691H372.915z M364.879,132.048h6.123v-15.639h-6.123V132.048z"/>
		<path fill="#FFFFFF" d="M395.85,135.467c-1.395,0-3.146-0.076-5.256-0.23l-0.051-1.785c2.024,0.153,3.521,0.229,4.49,0.229
			c0.34,0,0.608-0.331,0.804-0.995c0.195-0.663,0.378-2.182,0.549-4.554c0.169-2.372,0.314-5.88,0.434-10.523h-7.526
			c-1.037,2.433-2.211,4.448-3.521,6.046l-0.688-0.663v10.46h-6.71v1.965h-1.913v-19.058h2.807c0.578-1.276,1.02-2.466,1.326-3.571
			l1.888,0.28c-0.323,1.122-0.723,2.22-1.198,3.291h3.801v5.204c1.803-2.533,3.087-5.484,3.852-8.853l1.889,0.255
			c-0.238,1.004-0.52,1.965-0.842,2.883h8.801c-0.068,3.13-0.136,5.745-0.203,7.846c-0.068,2.1-0.162,3.898-0.281,5.396
			s-0.242,2.653-0.369,3.47c-0.129,0.816-0.303,1.449-0.523,1.9c-0.221,0.45-0.443,0.73-0.664,0.842
			C396.521,135.411,396.224,135.467,395.85,135.467z M378.374,123.986h4.848v-5.919h-4.848V123.986z M378.374,125.645v6.148h4.848
			v-6.148H378.374z M388.527,121.818l1.633-0.894c1.43,2.16,2.654,4.438,3.674,6.837l-1.684,0.766
			C391.079,126.078,389.871,123.842,388.527,121.818z"/>
		<path fill="#FFFFFF" d="M407.279,123.936l1.734-0.867c1.105,2.414,2.398,4.303,3.878,5.663c1.479-1.36,2.772-3.249,3.878-5.663
			l1.785,0.791c-1.122,2.482-2.508,4.506-4.158,6.071c2.126,1.497,5.324,2.806,9.593,3.929l-0.587,1.76
			c-4.541-1.139-8.045-2.618-10.511-4.438c-2.466,1.82-5.97,3.3-10.511,4.438l-0.587-1.76c4.269-1.123,7.466-2.432,9.593-3.929
			C409.771,128.383,408.401,126.385,407.279,123.936z M402.1,115.645h9.771v-3.139h2.041v3.139h9.771v1.734H402.1V115.645z
			 M402.254,123.782c3.01-1.667,5.391-3.631,7.143-5.894l1.352,1.174c-1.785,2.433-4.32,4.533-7.602,6.301L402.254,123.782z
			 M422.331,125.363c-2.229-2.193-4.712-4.242-7.45-6.147l1.123-1.454c2.857,1.973,5.375,4.048,7.552,6.225L422.331,125.363z"/>
		<path fill="#FFFFFF" d="M430.801,124.318c-1.377-1.327-2.9-2.611-4.566-3.853l1.148-1.378c1.717,1.275,3.248,2.551,4.592,3.827
			L430.801,124.318z M432.587,127.559c-0.987,3.01-2.331,5.705-4.031,8.086l-1.581-1.045c1.633-2.348,2.941-4.916,3.928-7.705
			L432.587,127.559z M427.434,114.854l1.148-1.378c1.462,1.105,2.848,2.271,4.158,3.495l-1.174,1.377
			C430.291,117.158,428.913,115.992,427.434,114.854z M435.035,124.701h1.914c0,3.027-0.408,5.446-1.225,7.258
			c-0.816,1.811-2.084,3.185-3.801,4.12l-1.199-1.454c1.496-0.816,2.59-2.012,3.277-3.584
			C434.691,129.467,435.035,127.354,435.035,124.701z M443.43,118.322l1.633-0.867c1.785,2.059,3.393,4.125,4.821,6.199
			l-1.582,0.944c-0.323-0.476-0.782-1.105-1.378-1.888c-4.949,0.629-9.711,1.012-14.286,1.148l-0.077-1.71
			c0.613-0.017,1.565-0.06,2.857-0.128c0.834-1.598,1.65-3.4,2.449-5.408h-4.949v-1.684h7.066v-2.271h2.041v2.271h7.527v1.684
			h-9.594c-0.611,1.582-1.395,3.342-2.347,5.281c2.942-0.204,5.655-0.442,8.139-0.715
			C445.002,120.211,444.229,119.258,443.43,118.322z M439.5,135.492v-10.715h1.914v10.715H439.5z M444.398,124.521h1.914v8.675
			c0,0.425,0.037,0.676,0.114,0.753c0.077,0.076,0.336,0.114,0.778,0.114c0.578,0,0.922-0.204,1.033-0.612
			c0.11-0.408,0.208-1.837,0.293-4.286l1.684,0.179c-0.017,0.731-0.033,1.293-0.051,1.684c-0.018,0.392-0.043,0.834-0.076,1.326
			c-0.034,0.494-0.064,0.855-0.09,1.085s-0.076,0.493-0.152,0.791s-0.145,0.501-0.205,0.612c-0.059,0.11-0.165,0.242-0.318,0.395
			c-0.152,0.154-0.289,0.247-0.408,0.281s-0.302,0.076-0.549,0.127c-0.246,0.052-0.477,0.077-0.688,0.077c-0.213,0-0.497,0-0.854,0
			c-1.071,0-1.744-0.099-2.016-0.294s-0.408-0.692-0.408-1.492V124.521z"/>
		<path fill="#FFFFFF" d="M452.869,118.527h4.489v-4.593h1.913v4.593h9.185v-4.593h2.016v4.593h4.49v1.785h-4.49v1.633
			c0,4.252-0.894,7.318-2.679,9.197c-1.786,1.879-4.891,3.031-9.312,3.457l-0.331-1.786c3.979-0.408,6.692-1.378,8.138-2.908
			s2.169-4.185,2.169-7.96v-1.633h-9.185v5.791h-1.913v-5.791h-4.489V118.527z"/>
		<path fill="#FFFFFF" d="M481.85,133.578h-2.041v-18.011h19.236v18.011H481.85z M481.85,131.768h15.154v-14.389H481.85V131.768z"/>
		<path fill="#FFFFFF" d="M505.933,116.895l0.919-1.735c2.721,1.36,5.322,2.806,7.807,4.337l-0.995,1.734
			C511.316,119.769,508.739,118.322,505.933,116.895z M525.653,117.889c-1.718,9.797-8.002,15.172-18.853,16.123l-0.307-1.912
			c4.982-0.46,8.899-1.893,11.748-4.299s4.698-5.847,5.549-10.32L525.653,117.889z"/>
		<path fill="#FFFFFF" d="M537.439,120.414h-1.709l1.862-6.301h2.398L537.439,120.414z M542.186,120.414h-1.71l1.888-6.301h2.373
			L542.186,120.414z"/>
		<path fill="#FFFFFF" d="M547.287,125.109c1.666-2.348,3.835-3.521,6.506-3.521c1.938,0,3.725,0.74,5.357,2.22
			c1.343,1.225,2.704,1.837,4.082,1.837c0.986,0,1.87-0.221,2.652-0.663c0.783-0.442,1.564-1.174,2.348-2.194l1.505,1.25
			c-1.667,2.348-3.835,3.521-6.505,3.521c-1.939,0-3.725-0.74-5.357-2.221c-1.344-1.225-2.705-1.836-4.082-1.836
			c-1.004,0-1.893,0.221-2.666,0.663c-0.774,0.442-1.561,1.183-2.36,2.22L547.287,125.109z"/>
	</g>
</g>
</svg>
