<?xml version="1.0" encoding="utf-8"?>
<!-- Generator: Adobe Illustrator 26.0.2, SVG Export Plug-In . SVG Version: 6.00 Build 0)  -->
<svg version="1.1" id="レイヤー_1" xmlns="http://www.w3.org/2000/svg" xmlns:xlink="http://www.w3.org/1999/xlink" x="0px"
	 y="0px" viewBox="0 0 601 212.7" style="enable-background:new 0 0 601 212.7;" xml:space="preserve">
<style type="text/css">
	.st0{fill:#F5E929;}
	.st1{fill:#FFFFFF;}
	
		.st2{clip-path:url(#SVGID_00000024001325197970444090000012021880848676678322_);fill:url(#SVGID_00000005960326530490964560000018201023898641891462_);}
	.st3{fill:none;}
	.st4{font-family:'mplus-1p-bold';}
	.st5{font-size:25.3322px;}
	.st6{letter-spacing:6;}
	.st7{fill:url(#SVGID_00000104672326408921994940000002659160534886136507_);}
	.st8{fill:url(#SVGID_00000147924329597502746370000005316965719808551567_);}
	.st9{fill:url(#SVGID_00000183242915261710450290000014537477279296264615_);}
	.st10{fill:url(#SVGID_00000031191359237739517790000006646639070809511352_);}
	.st11{fill:url(#SVGID_00000115472970727797724050000014946163266883792768_);}
	.st12{fill:url(#SVGID_00000131348382160765753680000006711805215877299606_);}
	.st13{fill:url(#SVGID_00000165219683253635203340000002112729761720835245_);}
</style>
<g>
	<g>
		
			<image style="overflow:visible;opacity:0.2;" width="1121" height="485" xlink:href="FB57A82AD0AA74FE.png"  transform="matrix(0.24 0 0 0.24 -3.2711 -4.4361)">
		</image>
		<path class="st0" d="M249.6,48l-15-21.4c-1.4-2.1-4.7-3.7-7.2-3.7H85.2c-9.6-9.3-23.4-14.1-37.6-11.6c-23.5,4.1-39.1,26.5-35,50
			c4.1,23.5,26.5,39.1,50,35c11.1-2,20.5-8,26.8-16.4h138c2.5,0,5.8-1.7,7.2-3.7l14.9-20.7C251,53.5,251.1,50.1,249.6,48z"/>
	</g>
</g>
<g>
	<path class="st1" d="M40.4,199.6v3.8h-1.5v-23.9c-2,4.3-4.7,8.5-7.8,12.4l-1.2-0.9c5.5-6.8,9.5-14.8,12-24.1h-8.7v-1.5h9.1
		c0.9-3.7,1.6-7.7,2.1-11.9H31.2V152h13.3c0.3-3.5,0.5-7.2,0.5-11.1H33.9v-1.5h29.2V152h4.2v1.5h-4.2V167H43.5
		c-1,3.7-2.1,6.9-3.2,9.6h23.2v26.8h-1.5v-3.8H40.4z M61.9,178.1H40.4v19.9h21.5V178.1z M43.9,165.5h17.6v-11.9H46
		C45.5,157.8,44.8,161.7,43.9,165.5 M61.5,140.9h-15c0,3.9-0.2,7.6-0.5,11.1h15.4V140.9z M101.8,183.5v1.5H84.9v19.2h-1.5V185H65.8
		v-1.5h17.6V167H67.7v-1.5h15.7v-15.7H66.5v-1.5h22.9c2-4.4,3.8-8.6,5.1-12.5l1.4,0.5c-1.4,3.9-3,7.9-4.8,12h9.9v1.5H84.9v15.7h15
		v1.5h-15v16.5H101.8z M72.7,136.2l1.4-0.6c1.8,3.9,3.4,7.5,4.6,10.7l-1.4,0.6C75.9,143,74.3,139.5,72.7,136.2"/>
	<path class="st1" d="M112.2,201.9c3-5.5,5.6-11.5,7.7-17.9l1.4,0.5c-2.3,7-4.9,13-7.7,18.2L112.2,201.9z M119.8,178.9v-39.5h54.1
		v1.5h-27.2v10.7h24.9v1.5h-24.9v11.1h24.9v1.5h-24.9v11.5h30.7v0.8c0,9.2-0.7,15.7-2,19.4c-1.3,3.7-3.6,5.6-6.9,5.6
		c-2.9,0-6.3-0.3-10.4-0.8l0.2-1.5c4.7,0.5,8.1,0.8,10.3,0.8c1.1,0,2-0.2,2.7-0.7c0.7-0.4,1.5-1.4,2.2-2.8c0.8-1.4,1.4-3.7,1.8-6.9
		c0.4-3.2,0.6-7.3,0.6-12.3H119.8z M145.2,140.9h-23.8v10.7h23.8V140.9z M145.2,153.2h-23.8v11.1h23.8V153.2z M145.2,165.9h-23.8
		v11.5h23.8V165.9z M130.6,184.8l1.5-0.3c1.3,5.4,2.4,10.7,3.1,15.8l-1.5,0.2C132.9,195.5,131.9,190.3,130.6,184.8 M145.2,184
		l1.4-0.5c2.1,5.3,3.7,9.7,4.7,13.3l-1.5,0.5C148.5,192.8,147,188.4,145.2,184 M159.8,183.5l1.4-0.8c2.4,3.9,4.4,7.5,6.1,10.7
		l-1.4,0.8C164.2,190.9,162.1,187.3,159.8,183.5"/>
	<path class="st1" d="M225.3,143.2h-15v21.9h11.9v1.5h-11.9v27.7c6.4-1.9,11.3-3.6,14.7-5l0.6,1.4c-7.6,3.3-19.2,6.6-34.7,10
		l-0.3-1.5c0.5-0.1,1.5-0.3,3.1-0.7c1.6-0.4,2.8-0.6,3.6-0.8v-41.4h1.5v41c1.5-0.4,4.9-1.2,10-2.6v-51.5h-16.5v-1.5h33V143.2z
		 M233,153.7l1.5-0.2c1.5,12.6,4.7,22.6,9.4,30c6.3-8.3,10.2-19.8,11.6-34.5h-22.1c-2.6,8-5.5,15.1-9,21.1l-1.4-0.8
		c5.5-9.6,9.6-20.8,12.2-33.5l1.5,0.3c-0.7,3.5-1.7,7.3-2.9,11.4h29.4v1.5h-6.2c-1.4,15.4-5.4,27.4-12.2,35.9
		c4.2,6,10.2,11.5,18,16.4l-0.8,1.2c-8-5-14.1-10.5-18.3-16.4c-5.5,6.6-13.5,12.1-24,16.5l-0.6-1.4c10.3-4.3,18.2-9.8,23.7-16.4
		C237.8,177,234.5,166.6,233,153.7"/>
	<path class="st1" d="M296.7,158l1.4-0.6c2.6,6.3,4.5,12.5,5.8,18.6l-1.5,0.3c-0.7-2.7-1.1-4.4-1.2-5.1l-11.8,0.6v32.3h-1.5V172
		l-14.5,0.8l-0.2-1.5l5-0.2c1-1.1,3.1-3.6,6.1-7.4c-3.7-6.6-7-12.1-9.7-16.6l1.2-0.8c0.2,0.4,0.5,0.9,1,1.6c0.5,0.7,0.9,1.4,1.3,2
		c0.4,0.6,0.8,1.2,1.1,1.8c2.9-4,6.2-9.2,9.9-15.4l1.4,0.8c-3,5.2-6.5,10.5-10.4,16c3.2,5.4,5,8.5,5.4,9.2
		c4.8-6.1,9.2-12.5,13.3-19.1l1.4,0.8c-5.7,9.3-12.2,18.2-19.7,26.8l20.5-1.1C299.7,166,298.4,162.1,296.7,158 M274.1,199
		c2.7-7.1,4.3-14.3,4.9-21.7l1.5,0.2c-0.6,7.2-2.3,14.5-5.1,22L274.1,199z M296.3,177.1l1.5-0.3c1.4,5.7,2.5,11.6,3.1,17.7l-1.5,0.2
		C298.8,189.1,297.8,183.3,296.3,177.1 M323.9,200h19.2v1.5h-42.6V200h21.9v-18.4h-17.3V180h17.3v-11.9h1.5V180h16.9v1.5h-16.9V200z
		 M308.3,144.8l1.2-0.9c4.2,5.9,9.1,11.1,14.7,15.7c6.1-4.7,10.9-10.8,14.5-18.3h-35.9v-1.5h37.6v1.5c-3.6,7.8-8.6,14.3-15,19.3
		c5.3,4.2,11,7.8,17.2,10.7l-0.6,1.4c-6.3-3-12.3-6.6-17.8-11c-4.8,3.6-11,6.8-18.5,9.5l-0.5-1.4c7-2.5,12.9-5.5,17.7-9.1
		C317.3,155.9,312.5,150.7,308.3,144.8"/>
	<path class="st1" d="M353.7,200.6c4.9-4.9,8.4-10.4,10.6-16.6l1.4,0.5c-2.3,6.5-5.9,12.2-10.9,17.2L353.7,200.6z M372.8,144.4
		l1.2-0.9c1.1,1.5,2.4,3.7,4.1,6.4c2.7-1.5,5-3.2,7.1-5l1.1,1.2c-2.4,2.1-5.5,4.2-9.4,6.2c2.6,2,4.7,4.6,6.2,7.8
		c1.5,3.1,2.3,6.5,2.3,9.9c0,3.7-0.4,6.1-1.1,7.4c-0.7,1.2-2.4,1.8-5,1.8c-1.7,0-4.5-0.1-8.5-0.4l0.2-1.5c4,0.3,6.8,0.4,8.4,0.4
		c1.9,0,3.2-0.4,3.8-1.2c0.6-0.8,0.8-3,0.8-6.5c0-1.3-0.1-2.6-0.4-4.1c-6.4,5.1-15.6,9.3-27.4,12.5l-0.5-1.5
		c12-3.2,21.2-7.4,27.5-12.7c-0.5-1.7-1.3-3.6-2.5-5.7c-5.8,4.3-14,7.9-24.5,10.7l-0.5-1.5c10.5-2.9,18.6-6.3,24.1-10.4
		c-1.3-1.7-2.7-3.1-4.3-4.2c-5.4,2.7-11.9,5-19.3,7l-0.5-1.5c4.2-1.1,7.4-2.1,9.7-2.9c-1.6-3.1-3.2-5.8-4.8-8.1l1.2-0.9
		c1.5,2.3,3.2,5.1,5,8.5c3.9-1.5,7.3-3,10-4.4C375.4,148.3,374.1,146.2,372.8,144.4 M357.2,143.6c11.7-1.7,20.5-4,26.6-6.8l0.6,1.4
		c-6.3,3-15.4,5.3-27.1,7L357.2,143.6z M374.1,182.7h1.5v10.7v3.3c0,0.6,0.1,1.3,0.2,2.1c0.1,0.8,0.2,1.2,0.3,1.4
		c0.1,0.2,0.4,0.4,0.9,0.7c0.5,0.3,0.9,0.4,1.3,0.4c0.4,0,1,0.1,2,0.2c3.1,0.3,6.2,0.4,9.5,0.4c3.2,0,6.3-0.1,9.5-0.4
		c1.7-0.2,2.9-0.3,3.5-0.3c0.7-0.1,1.4-0.3,2.3-0.7c0.8-0.4,1.4-0.7,1.6-1c0.2-0.3,0.5-0.9,0.8-2c0.4-1.1,0.6-2.1,0.7-3
		c0.1-0.9,0.2-2.4,0.4-4.6l1.5,0.2c-0.2,2.3-0.4,3.9-0.5,5c-0.1,1.1-0.4,2.2-0.8,3.3c-0.4,1.1-0.7,1.9-1,2.3
		c-0.3,0.4-0.9,0.8-1.8,1.2c-0.9,0.4-1.8,0.7-2.6,0.8c-0.9,0.1-2.2,0.2-3.9,0.4c-3.2,0.3-6.4,0.4-9.7,0.4c-3.3,0-6.5-0.1-9.7-0.4
		c-2.9-0.3-4.6-0.9-5.2-1.8c-0.6-1-0.9-3.6-0.9-7.7V182.7z M382.6,182.7l0.8-1.4c5.4,3.1,10.6,6.7,15.4,10.8l-0.9,1.2
		C393.3,189.4,388.2,185.9,382.6,182.7 M408.9,169.5c4,3.6,8.8,6.4,14.2,8.4l-0.5,1.4c-5.3-1.8-9.9-4.5-14-7.9
		c-4-3.5-7.1-7.4-9.3-11.9h-8v17.3c5.2-1.1,10.4-2.5,15.5-4.2l0.5,1.5c-7.2,2.4-14.5,4.1-21.9,5.4l-0.3-1.5c1.2-0.2,2.8-0.4,4.8-0.8
		v-38.3H419v20.7h-18c1.6,3.1,3.8,6.1,6.7,9c5-2.5,9.4-5.7,13.4-9.5l1.1,1.1C418.4,163.6,413.9,166.8,408.9,169.5 M391.4,148.2h26.1
		v-8.1h-26.1V148.2z M417.5,149.7h-26.1v8.1h26.1V149.7z M410.3,182.8l1.2-0.9c4.5,6,8.4,12.2,11.6,18.6l-1.4,0.6
		C418.8,195,415,188.9,410.3,182.8"/>
	<path class="st1" d="M435.9,149.7h26.8v1.5h-26.8V149.7z M438.2,139.4h23v1.5h-23V139.4z M439.7,200.8v3.8h-1.5V182h23v18.8H439.7z
		 M438.6,160.5h22.2v1.5h-22.2V160.5z M438.6,171.2h22.2v1.5h-22.2V171.2z M439.7,199.2h19.9v-15.7h-19.9V199.2z M500.1,138.2
		l0.5,1.5c-5.1,1.5-10.4,2.7-16,3.8v15h18v1.5h-18v13.4h15.7v29.9h-1.5v-4.6h-29.9v4.6h-1.5v-29.9h15.7v-13.4h-18.8v-1.5h18.8v-14.7
		c-5.6,1-11.4,1.7-17.2,2.1l-0.2-1.5C477.6,143.6,489.1,141.5,500.1,138.2 M498.8,175.1h-29.9v22.2h29.9V175.1z"/>
	<path class="st1" d="M550.4,135.9c9.7,8.5,20.9,16.2,33.5,23.1l-0.8,1.4c-12.2-6.6-23.5-14.4-33.8-23.3
		c-10.3,8.9-21.5,16.7-33.8,23.3l-0.8-1.4c12.6-6.9,23.8-14.6,33.5-23.1H550.4z M564.9,180.9l1.2-0.9c5.3,7.4,10.4,15.1,15.3,23.1
		l-1.2,0.8c-0.6-1-2.3-3.6-5.1-8c-19.2,3.3-37.7,5.3-55.6,6.1v-1.5c2.2-0.1,5.9-0.3,11-0.6c3.8-8,7.2-16.5,10.2-25.5H518v-1.5h62.9
		v1.5h-38.6c-3.3,9.7-6.6,18.1-10,25.4c13.3-1,27.3-2.7,42-5.2C571.7,190.7,568.6,186.2,564.9,180.9 M527.9,158.9h43v1.5h-43V158.9z
		"/>
</g>
<g>
	<defs>
		<path id="SVGID_1_" d="M99.9,49.9l0.1,0.7l5.6-1.2c-0.5,0.8-1.1,1.4-1.8,2c-0.9-0.2-1.6-0.6-2.3-1.1l-0.6,0.5
			c0.6,0.4,1.3,0.8,2.1,1.1c-0.8,0.6-1.9,1.1-3.1,1.5l0.4,0.6c1.5-0.6,2.7-1.2,3.6-1.9c1.2,0.2,2.5,0.3,4.1,0.3l0.1-0.7
			c-1.3,0.1-2.5,0-3.4-0.2c0.9-0.7,1.5-1.6,1.9-2.4l-0.1-0.7L99.9,49.9z M89.8,50.9l2.2-0.5l0.5,2.2l-2.2,0.5L89.8,50.9z M89,47.7
			c0.1-0.4,0.1-0.8,0.1-1l-0.8,0c-0.1,1.6-0.5,3.2-1.1,4.7l0.8,0.3c0.4-1,0.7-2.1,1-3.2l2.5-0.5l0.4,1.8l-3,0.6l0.6,2.9l-1.9,0.4
			l0.2,0.7l4.9-1l0.5,2.4l0.8-0.2l-0.5-2.4l3.9-0.8l-0.2-0.7l-3.9,0.8l-0.5-2.2l3-0.6l-0.1-0.7l-3,0.6l-0.4-1.8l3.4-0.7l-0.2-0.7
			L89,47.7z M28,44.8c-2.2,0.5-3.8,1.7-4.9,3.6c-1.1,1.9-1.3,4.3-0.7,7.2l5.5-1.2c-0.1-0.2-0.1-0.4-0.2-0.5c0-0.1-0.1-0.3-0.1-0.4
			c0,0,0,0,0-0.1c-0.2-0.9-0.2-1.7,0.1-2.3c0.3-0.6,0.7-1,1.4-1.1c0.6-0.1,1.2,0.1,1.7,0.6c0.6,0.5,0.9,1.2,1.1,2
			c0.1,0.6,0.2,1.2,0.1,1.9c-0.1,0.7-0.2,1.4-0.3,2.1c-0.2,0.7-0.4,1.4-0.6,2c-0.2,0.7-0.5,1.3-0.7,2c-0.2,0.6-0.5,1.2-0.8,1.8
			c-0.3,0.5-0.5,1-0.7,1.5l-3.5,7.4l15.3-3.3l-1.1-5.3l-6.2,1.3l2.4-4.4c0.1-0.3,0.3-0.5,0.4-0.8c0.1-0.3,0.2-0.5,0.3-0.8
			c0.4-1.1,0.7-2.1,0.8-3.1c0.1-1,0-2.1-0.2-3.2c-0.5-2.5-1.6-4.4-3.4-5.7c-1.3-1-2.7-1.5-4.2-1.5C29,44.7,28.5,44.7,28,44.8
			 M101.3,47.2l3-0.6l0.2,1.1l-3,0.6L101.3,47.2z M98.5,46.1l1.6-0.3l0.2,0.9L98.7,47L98.5,46.1z M101,45.6l3-0.6l0.2,0.9l-3,0.6
			L101,45.6z M101.4,43.8l0.2,0.9l-4,0.8l0.7,3.1c0.2,1.1,0.4,2.1,0.4,2.9c0,0.8,0,1.6-0.2,2.3l0.7,0.5c0.4-1.5,0.4-3.3-0.1-5.4
			l-0.3-1.3l1.6-0.3l0.4,1.7l4.7-1l-0.4-1.7l1.7-0.4l-0.1-0.7l-1.7,0.4l-0.2-0.9l1.7-0.4l-0.1-0.7l-3.9,0.8l-0.2-0.9L101.4,43.8z
			 M45.3,60.3c-0.9-1.2-1.6-2.9-2-5.1c-0.5-2.2-0.6-4-0.2-5.5c0.3-1.5,0.9-2.3,1.9-2.5c0.9-0.2,1.8,0.3,2.7,1.6c0.9,1.2,1.5,3,2,5.1
			c0.5,2.2,0.5,4,0.3,5.5c-0.3,1.5-0.9,2.3-1.8,2.5c-0.1,0-0.3,0-0.4,0C46.8,61.9,46,61.3,45.3,60.3 M43.7,41.6
			c-1.2,0.3-2.2,0.8-3.1,1.6c-0.9,0.8-1.6,1.9-2.1,3.3c-0.5,1.3-0.8,2.8-0.8,4.3c0,1.5,0.1,3.3,0.6,5.3c0.4,2,1,3.6,1.6,5
			c0.7,1.4,1.5,2.6,2.5,3.7c1,1.1,2.1,1.8,3.2,2.2c1.1,0.4,2.3,0.5,3.5,0.2c1.2-0.3,2.2-0.8,3.1-1.6c0.9-0.8,1.5-1.9,2.1-3.3
			c0.5-1.4,0.8-2.8,0.8-4.4c0-1.6-0.2-3.3-0.6-5.3c-0.4-2-1-3.7-1.6-5.1c-0.7-1.4-1.5-2.6-2.5-3.6c-1-1.1-2.1-1.8-3.2-2.2
			c-0.7-0.3-1.4-0.4-2.1-0.4C44.6,41.5,44.1,41.5,43.7,41.6 M59.5,38.1c-2.2,0.5-3.8,1.7-4.9,3.6c-1.1,1.9-1.3,4.3-0.7,7.2l5.5-1.2
			c-0.1-0.2-0.1-0.4-0.2-0.5c0-0.1-0.1-0.3-0.1-0.4c0,0,0,0,0-0.1c-0.2-0.9-0.2-1.7,0.1-2.3c0.3-0.6,0.7-1,1.4-1.1
			c0.6-0.1,1.2,0.1,1.7,0.6c0.6,0.5,0.9,1.2,1.1,2c0.1,0.6,0.2,1.2,0.1,1.9c-0.1,0.7-0.2,1.4-0.3,2.1c-0.2,0.7-0.3,1.4-0.6,2
			c-0.2,0.7-0.5,1.3-0.7,2c-0.2,0.6-0.5,1.2-0.7,1.8c-0.3,0.5-0.5,1-0.7,1.5l-3.5,7.4l15.3-3.3L71,56.2l-6.2,1.3l2.4-4.4
			c0.1-0.3,0.3-0.5,0.4-0.8c0.1-0.3,0.2-0.5,0.3-0.8c0.4-1.1,0.7-2.1,0.8-3.1c0.1-1,0-2.1-0.2-3.2c-0.5-2.5-1.6-4.4-3.4-5.7
			c-1.3-1-2.7-1.5-4.2-1.5C60.5,38,60,38,59.5,38.1 M75.2,34.8c-2.2,0.5-3.8,1.7-4.9,3.6c-1.1,1.9-1.3,4.3-0.7,7.2l5.5-1.2
			c-0.1-0.2-0.1-0.4-0.2-0.5c0-0.1-0.1-0.3-0.1-0.4c0,0,0,0,0-0.1c-0.2-0.9-0.2-1.7,0.1-2.3c0.3-0.6,0.7-1,1.4-1.1
			c0.6-0.1,1.2,0.1,1.7,0.6c0.6,0.5,0.9,1.2,1.1,2c0.1,0.6,0.2,1.2,0.1,1.9c-0.1,0.7-0.2,1.4-0.3,2.1c-0.2,0.7-0.3,1.4-0.6,2
			c-0.2,0.7-0.5,1.3-0.7,2c-0.2,0.6-0.5,1.2-0.8,1.7c-0.3,0.5-0.5,1-0.7,1.5l-3.5,7.4l15.3-3.3l-1.1-5.3l-6.2,1.3l2.4-4.4
			c0.1-0.3,0.3-0.5,0.4-0.8c0.1-0.3,0.2-0.5,0.3-0.8c0.4-1.1,0.7-2.1,0.8-3.1c0.1-1,0-2.1-0.2-3.2c-0.5-2.5-1.6-4.4-3.4-5.7
			c-1.3-1-2.7-1.5-4.2-1.5C76.2,34.6,75.7,34.7,75.2,34.8"/>
	</defs>
	<clipPath id="SVGID_00000158729038674354207980000009873887963289721496_">
		<use xlink:href="#SVGID_1_"  style="overflow:visible;"/>
	</clipPath>
	
		<linearGradient id="SVGID_00000137105189562261006320000016866932829851886232_" gradientUnits="userSpaceOnUse" x1="-0.5999" y1="527.1641" x2="0.2067" y2="527.1641" gradientTransform="matrix(1.5121 43.2992 43.2992 -1.5121 -22760.5469 858.134)">
		<stop  offset="0" style="stop-color:#178FC9"/>
		<stop  offset="0.5443" style="stop-color:#178FC9"/>
		<stop  offset="0.7257" style="stop-color:#178EC8"/>
		<stop  offset="0.8176" style="stop-color:#1489C4"/>
		<stop  offset="0.8893" style="stop-color:#1181BE"/>
		<stop  offset="0.9503" style="stop-color:#0E76B6"/>
		<stop  offset="1" style="stop-color:#0C68AC"/>
	</linearGradient>
	
		<polygon style="clip-path:url(#SVGID_00000158729038674354207980000009873887963289721496_);fill:url(#SVGID_00000137105189562261006320000016866932829851886232_);" points="
		108.1,31.6 109.4,71.3 21.9,74.4 20.5,34.7 	"/>
</g>
<rect x="47" y="103.6" class="st3" width="592.1" height="31.2"/>
<text transform="matrix(1 0 0 1 47.04 125.3719)"><tspan x="0" y="0" class="st1 st4 st5">〜混沌の時代を読み解</tspan><tspan x="253.3" y="0" class="st1 st4 st5 st6">く&quot;</tspan><tspan x="303.4" y="0" class="st1 st4 st5">知的交流サロ</tspan><tspan x="455.4" y="0" class="st1 st4 st5 st6">ン</tspan><tspan x="487.1" y="0" class="st1 st4 st5">&quot;〜</tspan></text>
<g>
	
		<linearGradient id="SVGID_00000016064078492325894570000012095747508579979195_" gradientUnits="userSpaceOnUse" x1="121.3886" y1="26.8116" x2="121.3886" y2="50.6651">
		<stop  offset="0" style="stop-color:#178FC9"/>
		<stop  offset="0.5443" style="stop-color:#178FC9"/>
		<stop  offset="0.6754" style="stop-color:#1387C3"/>
		<stop  offset="0.9225" style="stop-color:#0D70B2"/>
		<stop  offset="1" style="stop-color:#0C68AC"/>
	</linearGradient>
	<path style="fill:url(#SVGID_00000016064078492325894570000012095747508579979195_);" d="M121.9,38.4h-4.3v1.1h3.9v3.2h-3.9
		c1,0.8,2,1.8,3.1,2.8c0.8-1.6,1.4-3.7,1.7-6c0.3-2.4,0.5-5.9,0.5-10.8c3.8-0.3,6.9-0.9,9.3-1.8l1,3.5c-2,0.6-4.2,1.1-6.7,1.5
		c0,1.3-0.1,2.2-0.1,2.9h6.9v3.5h-1.8v12h-3.8v-12h-1.6c-0.3,2.9-0.7,5.2-1.3,7.1c-0.6,1.8-1.5,3.5-2.6,5.1L120,48l-0.6,0.7
		c-0.5-0.6-1.1-1.2-1.8-2v3.9h-3.9v-4.3c-0.8,1.3-1.7,2.4-2.6,3.4l-1.9-3c1.4-1.2,2.5-2.5,3.4-4H110v-3.2h3.8v-1.1H110v-3.1h2
		c-0.2-1-0.5-1.9-0.8-2.9h-1.1v-3.2h3.7v-2.4h3.9v2.4h4.4v3.2H121c-0.2,0.8-0.5,1.8-0.9,2.9h1.9V38.4z M115.3,35.5h1.3
		c0.4-1,0.7-2,1-2.9h-3C114.9,33.9,115.2,34.9,115.3,35.5z"/>
	
		<linearGradient id="SVGID_00000179620201228921203480000001917644513410801064_" gradientUnits="userSpaceOnUse" x1="146.9897" y1="27.3932" x2="146.9897" y2="50.7623">
		<stop  offset="0" style="stop-color:#178FC9"/>
		<stop  offset="0.5443" style="stop-color:#178FC9"/>
		<stop  offset="0.6754" style="stop-color:#1387C3"/>
		<stop  offset="0.9225" style="stop-color:#0D70B2"/>
		<stop  offset="1" style="stop-color:#0C68AC"/>
	</linearGradient>
	<path style="fill:url(#SVGID_00000179620201228921203480000001917644513410801064_);" d="M135.3,40.1v-3.2h2.5c0-0.3,0-0.8,0-1.5
		v-0.9h-2.3v-3.4h2.3v-3.7h3.8v3.7h2.2v3.4h-2.2v0.7c0,0.8,0,1.4,0,1.7h2.3v3.2h-2.7c1.3,1.6,2.3,2.9,3.1,4.1l-2.3,2.5
		c-1-1.6-1.6-2.6-1.8-2.8c-0.7,2.7-1.8,4.9-3.3,6.6l-2.2-3.4c1.5-1.9,2.4-4.2,2.8-7H135.3z M155.2,50.4h-0.8h-0.7
		c-1.3,0-2.2-0.1-2.5-0.4s-0.5-0.8-0.5-1.8v-4.7H150c-0.6,3.8-3.2,6.3-7.8,7.2l-1.2-3.2c1.6-0.3,2.9-0.8,3.8-1.5
		c0.9-0.7,1.4-1.5,1.7-2.6h-1.8V27.9h13.2v15.6h-3.7v2.8c0,0.4,0,0.6,0,0.7c0,0.1,0.1,0.1,0.3,0.1c0,0,0.1,0,0.2,0
		c0.1,0,0.1,0,0.2,0c0,0,0.1,0,0.2,0c0.1,0,0.1,0,0.2,0c0.3,0,0.4-0.1,0.5-0.4c0.1-0.2,0.1-1.1,0.1-2.5l3.4,0.4
		c0,0.8-0.1,1.4-0.1,1.8c0,0.4-0.1,0.9-0.1,1.4s-0.1,0.8-0.2,1c0,0.2-0.2,0.4-0.3,0.7c-0.2,0.2-0.3,0.4-0.5,0.4
		c-0.1,0.1-0.4,0.1-0.7,0.2c-0.3,0.1-0.6,0.1-0.9,0.1C156.1,50.4,155.7,50.4,155.2,50.4z M148.5,32.4h5.5v-1.3h-5.5V32.4z
		 M148.5,35.1v1.3h5.5v-1.3H148.5z M148.5,39.1v1.3h5.5v-1.3H148.5z"/>
	
		<linearGradient id="SVGID_00000163050149261162040290000010022079345306789025_" gradientUnits="userSpaceOnUse" x1="121.5419" y1="52.4698" x2="121.5419" y2="76.1192">
		<stop  offset="0" style="stop-color:#178FC9"/>
		<stop  offset="0.5443" style="stop-color:#178FC9"/>
		<stop  offset="0.6754" style="stop-color:#1387C3"/>
		<stop  offset="0.9225" style="stop-color:#0D70B2"/>
		<stop  offset="1" style="stop-color:#0C68AC"/>
	</linearGradient>
	<path style="fill:url(#SVGID_00000163050149261162040290000010022079345306789025_);" d="M128.7,60.7v1.7h-14.4v-1.7
		c-1.2,0.7-2.4,1.4-3.8,2.1l-1.5-3.3c3.8-2,7.1-4.3,9.8-7h5.2c2.8,2.7,6,5.1,9.8,7l-1.5,3.3C131.2,62.2,129.9,61.5,128.7,60.7z
		 M110.4,67.5v-3.3h22.2v3.3h-3.2c1.2,2.5,2.4,5,3.5,7.4l-3.6,1.2c-0.5-1.2-0.9-2-1-2.2c-6.1,0.7-11.8,1.1-16.9,1.3l-0.2-3.3
		c1.6-0.1,2.8-0.1,3.6-0.2c0.6-1.1,1.4-2.5,2.1-4.2H110.4z M126.5,59.3c-1.8-1.3-3.5-2.7-5-4.2c-1.5,1.5-3.2,2.9-5,4.2H126.5z
		 M126.9,70.8c-0.1-0.2-0.3-0.6-0.5-1.1c-0.2-0.5-0.4-0.9-0.5-1.2l2.8-1h-7.3c-0.5,1.3-1.2,2.6-1.9,3.9
		C122.7,71.2,125.2,71,126.9,70.8z"/>
	
		<linearGradient id="SVGID_00000166674374493680981210000000104466164313738408_" gradientUnits="userSpaceOnUse" x1="147.0663" y1="52.7506" x2="147.0663" y2="76.1192">
		<stop  offset="0" style="stop-color:#178FC9"/>
		<stop  offset="0.5443" style="stop-color:#178FC9"/>
		<stop  offset="0.6754" style="stop-color:#1387C3"/>
		<stop  offset="0.9225" style="stop-color:#0D70B2"/>
		<stop  offset="1" style="stop-color:#0C68AC"/>
	</linearGradient>
	<path style="fill:url(#SVGID_00000166674374493680981210000000104466164313738408_);" d="M154,71.4c2,0.7,3.7,1.3,5,1.9l-1.9,2.8
		c-2.3-1.1-5.1-2.2-8.3-3.2l0.7-1.5h-5.2l0.7,1.3c-2.1,1.3-5,2.4-8.6,3.3l-1.5-2.9c2-0.5,3.9-1,5.5-1.6h-3.8v-12h20.5v12H154z
		 M141.8,58.7h-4v-6h18.5v6H141.8z M140.9,62.9h12.3v-1h-12.3V62.9z M140.9,65v1h12.3v-1H140.9z M140.9,68.1v1h12.3v-1H140.9z
		 M141.8,56.6h10.5v-1h-10.5V56.6z"/>
	
		<linearGradient id="SVGID_00000061431310863486189460000010447544403329856406_" gradientUnits="userSpaceOnUse" x1="172.5654" y1="51.985" x2="172.5654" y2="75.9918">
		<stop  offset="0" style="stop-color:#178FC9"/>
		<stop  offset="0.5443" style="stop-color:#178FC9"/>
		<stop  offset="0.6754" style="stop-color:#1387C3"/>
		<stop  offset="0.9225" style="stop-color:#0D70B2"/>
		<stop  offset="1" style="stop-color:#0C68AC"/>
	</linearGradient>
	<path style="fill:url(#SVGID_00000061431310863486189460000010447544403329856406_);" d="M161.5,71.8l-1.3-3
		c1.7-0.5,3.2-1.1,4.4-1.8H161v-2.6h7l0.5-0.5h-1.4H163v-7h3.1v-0.6H161v-2.8h5.2V52h4v1.4h5V52h4v1.4h5.2v2.8H179v0.6h3.1v7h-9.4
		l-0.4,0.5h11.9V67h-3.7c1.2,0.6,2.7,1.2,4.4,1.8l-1.3,3c-0.2-0.1-0.9-0.3-2-0.8c-0.1,1.3-0.3,2.3-0.6,3c-0.3,0.6-0.7,1.1-1.1,1.3
		c-0.5,0.2-1.2,0.3-2.2,0.3c-1.5,0-2.9,0-4.3-0.1l-0.2-3.3c1.4,0.1,2.5,0.2,3.4,0.2c0.3,0,0.5-0.1,0.6-0.2c0.1-0.1,0.1-0.4,0.2-0.9
		h-4.3c-1.7,2.3-5.1,3.9-10.1,4.8l-1.6-3c3.1-0.4,5.4-1,6.8-1.8h-3.3v-0.9C164.1,70.8,162.9,71.3,161.5,71.8z M167.1,59.5H178v-0.7
		h-10.9V59.5z M167.1,61.2v0.7H178v-0.7H167.1z M170.7,67.4h3.9c0,0.2-0.1,0.5-0.1,0.9h2.4c-0.7-0.5-1.2-1-1.7-1.4H170
		c-0.4,0.4-1,0.8-1.7,1.4h2.3C170.7,68.2,170.7,67.8,170.7,67.4z M170.1,56.9h5v-0.6h-5V56.9z"/>
	
		<linearGradient id="SVGID_00000044888270917731853240000012486579708971874228_" gradientUnits="userSpaceOnUse" x1="197.9496" y1="52.1383" x2="197.9496" y2="75.711">
		<stop  offset="0" style="stop-color:#178FC9"/>
		<stop  offset="0.5443" style="stop-color:#178FC9"/>
		<stop  offset="0.6754" style="stop-color:#1387C3"/>
		<stop  offset="0.9225" style="stop-color:#0D70B2"/>
		<stop  offset="1" style="stop-color:#0C68AC"/>
	</linearGradient>
	<path style="fill:url(#SVGID_00000044888270917731853240000012486579708971874228_);" d="M210.2,71.8l-1.2,3.4
		c-3.5-0.9-6.4-1.9-8.8-3v3.6H196v-3.6c-2.4,1.1-5.3,2.2-8.8,3l-1.2-3.4c3.5-0.6,6.3-1.3,8.4-2.1h-7.9v-2.8h9.4V66h-7.8v-4.9
		l-2.4-1.3c1.4-2.4,2.6-4.9,3.4-7.6l3.8,0.6c0,0.2-0.2,0.6-0.4,1.2h4.6c0.2-0.5,0.4-1.1,0.6-1.8l4,0.4c0,0.1-0.1,0.3-0.1,0.5
		c-0.1,0.2-0.1,0.4-0.2,0.5c0,0.2-0.1,0.3-0.1,0.4h7.3v2.8h-7.6v0.8h6.9v2.2h-6.9v0.8h6.9v2.2h-6.9v0.8h7.6V66h-8.3v0.8h9.2v2.8
		h-7.6C203.9,70.5,206.7,71.2,210.2,71.8z M196.7,57.6v-0.8h-4.6v0.8H196.7z M196.7,60.6v-0.8h-4.6v0.8H196.7z M196.7,62.8h-4.6v0.8
		h4.6V62.8z"/>
	
		<linearGradient id="SVGID_00000163053106100343282510000016037432209887076782_" gradientUnits="userSpaceOnUse" x1="223.5888" y1="52.1383" x2="223.5888" y2="75.9664">
		<stop  offset="0" style="stop-color:#178FC9"/>
		<stop  offset="0.5443" style="stop-color:#178FC9"/>
		<stop  offset="0.6754" style="stop-color:#1387C3"/>
		<stop  offset="0.9225" style="stop-color:#0D70B2"/>
		<stop  offset="1" style="stop-color:#0C68AC"/>
	</linearGradient>
	<path style="fill:url(#SVGID_00000163053106100343282510000016037432209887076782_);" d="M216.4,68.6v1.4h-3.8V56.2h8.9v-4.1h4.2
		v4.1h8.9v13.8h-3.8v-1.4h-5.1V76h-4.2v-7.4H216.4z M216.4,65.3h5.1v-5.7h-5.1V65.3z M230.8,65.3v-5.7h-5.1v5.7H230.8z"/>
</g>
</svg>
