<?xml version="1.0" encoding="utf-8"?>
<!-- Generator: Adobe Illustrator 25.4.1, SVG Export Plug-In . SVG Version: 6.00 Build 0)  -->
<svg version="1.1" id="レイヤー_1" xmlns="http://www.w3.org/2000/svg" xmlns:xlink="http://www.w3.org/1999/xlink" x="0px"
	 y="0px" viewBox="0 0 587.1 209" style="enable-background:new 0 0 587.1 209;" xml:space="preserve">
<style type="text/css">
	.st0{fill:#F5E929;}
	.st1{fill:#FFFFFF;}
	
		.st2{clip-path:url(#SVGID_00000106829108466488737290000006280055766789683851_);fill:url(#SVGID_00000063624864633671176330000018371287681229736847_);}
	.st3{fill:url(#SVGID_00000040553369094646781630000018085504738877177475_);}
	.st4{fill:url(#SVGID_00000179632757783511050260000000489899527114954389_);}
	.st5{fill:url(#SVGID_00000006702421208458001870000012576461646477864092_);}
	.st6{fill:url(#SVGID_00000181081761733973720520000010561311904347676816_);}
	.st7{fill:url(#SVGID_00000178888134060008485020000009954124639959697041_);}
</style>
<g>
	<g>
		
			<image style="overflow:visible;opacity:0.2;" width="884" height="474" xlink:href="E7EF1D3433915CE9.png"  transform="matrix(0.24 0 0 0.24 0 0)">
		</image>
		<path class="st0" d="M196.1,51.3l-14.6-20.7c-1.4-2-4.5-3.6-7-3.6H86c-9.3-9.1-22.7-13.7-36.4-11.2c-22.7,4-37.9,25.7-33.9,48.4
			c4,22.7,25.7,37.9,48.4,33.9c10.8-1.9,19.8-7.8,26-15.8h84.5c2.4,0,5.6-1.6,7-3.6l14.5-20C197.5,56.5,197.5,53.3,196.1,51.3z"/>
	</g>
</g>
<g>
	<path class="st1" d="M42.7,198v3.7h-1.5v-23.1c-2,4.2-4.5,8.2-7.6,12l-1.2-0.9c5.3-6.6,9.2-14.4,11.7-23.3h-8.5V165h8.8
		c0.9-3.6,1.6-7.5,2-11.5H33.8V152h12.9c0.3-3.4,0.4-7,0.4-10.8H36.4v-1.5h28.2V152h4.1v1.5h-4.1v13H45.7c-1,3.6-2,6.7-3.1,9.3H65
		v26h-1.5V198H42.7z M63.5,177.2H42.7v19.3h20.8V177.2z M46.1,165h17.1v-11.5H48.1C47.6,157.5,47,161.4,46.1,165 M63.2,141.2H48.7
		c0,3.8-0.1,7.4-0.4,10.8h14.9V141.2z M102.2,182.4v1.5H85.8v18.6h-1.5v-18.6H67.2v-1.5h17.1v-16H69.1V165h15.2v-15.2H68v-1.5h22.2
		c2-4.3,3.6-8.3,5-12.1l1.3,0.4c-1.3,3.8-2.9,7.7-4.7,11.7h9.6v1.5H85.8V165h14.5v1.5H85.8v16H102.2z M74,136.7l1.3-0.6
		c1.8,3.8,3.3,7.2,4.5,10.4l-1.3,0.6C77,143.3,75.5,139.8,74,136.7"/>
	<path class="st1" d="M112.3,200.3c2.9-5.3,5.4-11.1,7.4-17.3l1.3,0.4c-2.2,6.7-4.7,12.6-7.4,17.6L112.3,200.3z M119.6,178v-38.3
		H172v1.5h-26.4v10.4h24.1v1.5h-24.1v10.8h24.1v1.5h-24.1v11.1h29.7v0.7c0,8.9-0.6,15.2-1.9,18.8c-1.3,3.6-3.5,5.4-6.6,5.4
		c-2.8,0-6.1-0.2-10.1-0.7l0.1-1.5c4.6,0.5,7.9,0.7,10,0.7c1,0,1.9-0.2,2.6-0.6c0.7-0.4,1.4-1.3,2.2-2.7c0.7-1.4,1.3-3.6,1.7-6.7
		c0.4-3.1,0.6-7.1,0.6-11.9H119.6z M144.1,141.2h-23v10.4h23V141.2z M144.1,153.1h-23v10.8h23V153.1z M144.1,165.4h-23v11.1h23
		V165.4z M130,183.7l1.5-0.3c1.3,5.2,2.3,10.4,3,15.3l-1.5,0.1C132.3,194.1,131.3,189,130,183.7 M144.2,182.9l1.3-0.5
		c2,5.2,3.5,9.4,4.5,12.9l-1.5,0.4C147.3,191.5,145.9,187.2,144.2,182.9 M158.3,182.4l1.3-0.7c2.3,3.8,4.3,7.3,5.9,10.4l-1.3,0.7
		C162.5,189.6,160.5,186.2,158.3,182.4"/>
	<path class="st1" d="M221.8,143.4h-14.5v21.2h11.5v1.5h-11.5v26.8c6.2-1.8,10.9-3.4,14.2-4.8l0.6,1.3c-7.4,3.2-18.6,6.4-33.6,9.7
		l-0.3-1.5c0.4-0.1,1.4-0.3,3-0.7c1.5-0.3,2.7-0.6,3.5-0.8v-40.1h1.5v39.7c1.5-0.3,4.7-1.2,9.7-2.5v-49.8h-16V142h31.9V143.4z
		 M229.2,153.6l1.5-0.1c1.5,12.2,4.5,21.9,9.1,29c6.1-8,9.9-19.2,11.2-33.4h-21.4c-2.5,7.8-5.4,14.6-8.7,20.4l-1.3-0.7
		c5.3-9.3,9.3-20.1,11.8-32.5l1.5,0.3c-0.7,3.4-1.6,7.1-2.8,11h28.5v1.5h-6c-1.3,14.9-5.3,26.5-11.8,34.8
		c4.1,5.8,9.9,11.1,17.5,15.9l-0.7,1.2c-7.7-4.9-13.6-10.2-17.7-15.9c-5.3,6.4-13.1,11.7-23.3,16l-0.6-1.3c10-4.2,17.6-9.5,23-15.9
		C233.9,176.2,230.7,166.1,229.2,153.6"/>
	<path class="st1" d="M290.9,157.8l1.3-0.6c2.5,6.1,4.4,12.1,5.6,18.1l-1.5,0.3c-0.6-2.6-1-4.3-1.2-4.9l-11.4,0.6v31.3h-1.5v-31.2
		l-14,0.7l-0.1-1.5l4.8-0.2c1-1.1,3-3.5,5.9-7.1c-3.6-6.4-6.8-11.7-9.4-16l1.2-0.7c0.2,0.3,0.5,0.9,1,1.6c0.4,0.7,0.9,1.4,1.2,2
		c0.4,0.6,0.7,1.2,1.1,1.7c2.8-3.9,6-8.9,9.6-14.9l1.3,0.7c-2.9,5-6.3,10.2-10.1,15.5c3.1,5.2,4.8,8.2,5.2,8.9
		c4.7-5.9,8.9-12.1,12.9-18.5l1.3,0.7c-5.5,9-11.9,17.6-19.1,26l19.8-1C293.8,165.5,292.5,161.7,290.9,157.8 M269,197.5
		c2.6-6.8,4.2-13.8,4.8-21l1.5,0.1c-0.6,6.9-2.2,14-4.9,21.3L269,197.5z M290.5,176.3l1.5-0.3c1.4,5.5,2.4,11.3,3,17.2l-1.5,0.1
		C292.9,187.9,291.9,182.2,290.5,176.3 M317.2,198.4h18.6v1.5h-41.2v-1.5h21.2v-17.8H299v-1.5h16.7v-11.5h1.5v11.5h16.3v1.5h-16.3
		V198.4z M302.1,145l1.2-0.9c4.1,5.7,8.8,10.8,14.2,15.2c5.9-4.6,10.6-10.5,14-17.8h-34.8v-1.5h36.4v1.5
		c-3.5,7.6-8.3,13.8-14.5,18.7c5.1,4.1,10.7,7.6,16.6,10.3l-0.6,1.3c-6.1-2.9-11.9-6.4-17.2-10.7c-4.7,3.5-10.6,6.5-17.9,9.2
		l-0.4-1.3c6.7-2.4,12.5-5.4,17.2-8.8C310.9,155.8,306.2,150.7,302.1,145"/>
	<path class="st1" d="M346,199c4.8-4.8,8.2-10.1,10.3-16l1.3,0.4c-2.2,6.3-5.7,11.8-10.5,16.6L346,199z M364.5,144.6l1.2-0.9
		c1,1.5,2.4,3.5,3.9,6.2c2.6-1.5,4.9-3.1,6.8-4.8l1,1.2c-2.3,2-5.3,4-9.1,6c2.5,2,4.5,4.5,6,7.5c1.5,3,2.2,6.3,2.2,9.6
		c0,3.6-0.4,5.9-1.1,7.1c-0.7,1.2-2.3,1.8-4.9,1.8c-1.6,0-4.4-0.1-8.2-0.4l0.1-1.5c3.9,0.2,6.6,0.4,8.1,0.4c1.9,0,3.1-0.4,3.6-1.2
		c0.5-0.8,0.8-2.9,0.8-6.3c0-1.2-0.1-2.6-0.4-3.9c-6.2,5-15.1,9-26.5,12.1l-0.4-1.5c11.6-3.1,20.5-7.2,26.6-12.3
		c-0.4-1.7-1.3-3.5-2.5-5.5c-5.6,4.2-13.5,7.6-23.7,10.3l-0.4-1.5c10.2-2.8,18-6.1,23.3-10.1c-1.2-1.6-2.6-3-4.2-4.1
		c-5.2,2.6-11.5,4.8-18.7,6.8l-0.4-1.5c4.1-1.1,7.2-2,9.4-2.8c-1.6-3-3.1-5.6-4.6-7.9l1.2-0.9c1.5,2.2,3.1,5,4.8,8.2
		c3.8-1.4,7.1-2.9,9.7-4.3C367.1,148.4,365.8,146.4,364.5,144.6 M349.5,143.8c11.3-1.6,19.9-3.8,25.8-6.6l0.6,1.3
		c-6.1,2.9-14.9,5.1-26.2,6.8L349.5,143.8z M365.9,181.7h1.5v10.4v3.2c0,0.6,0.1,1.3,0.2,2c0.1,0.7,0.2,1.2,0.3,1.4
		c0.1,0.2,0.4,0.4,0.9,0.6c0.5,0.2,0.9,0.4,1.2,0.4c0.3,0,1,0.1,1.9,0.2c3,0.2,6,0.4,9.2,0.4c3.1,0,6.1-0.1,9.2-0.4
		c1.6-0.1,2.8-0.2,3.4-0.3c0.6,0,1.4-0.3,2.2-0.6c0.8-0.4,1.3-0.7,1.5-0.9c0.2-0.2,0.5-0.9,0.8-2c0.3-1.1,0.6-2,0.6-2.9
		c0.1-0.9,0.2-2.4,0.4-4.5l1.5,0.1c-0.2,2.2-0.4,3.8-0.5,4.9c-0.1,1.1-0.4,2.1-0.7,3.2c-0.4,1.1-0.7,1.8-1,2.2
		c-0.3,0.4-0.9,0.8-1.7,1.2c-0.9,0.4-1.7,0.6-2.6,0.7c-0.8,0.1-2.1,0.2-3.8,0.4c-3.1,0.2-6.2,0.4-9.4,0.4c-3.2,0-6.3-0.1-9.4-0.4
		c-2.8-0.2-4.4-0.8-5-1.8c-0.6-0.9-0.9-3.4-0.9-7.5V181.7z M374.1,181.6l0.7-1.3c5.2,3,10.2,6.5,14.9,10.5l-0.9,1.2
		C384.4,188.2,379.5,184.8,374.1,181.6 M399.5,168.9c3.9,3.5,8.5,6.2,13.7,8.1l-0.4,1.3c-5.1-1.8-9.6-4.3-13.5-7.7
		c-3.9-3.3-6.9-7.2-9-11.6h-7.7v16.7c5.1-1.1,10.1-2.5,15-4.1l0.4,1.5c-6.9,2.3-14,4-21.2,5.2l-0.3-1.5c1.2-0.1,2.7-0.4,4.6-0.8V139
		h28.2V159H392c1.5,3,3.7,5.9,6.5,8.7c4.8-2.4,9.1-5.5,13-9.2l1,1C408.7,163.2,404.4,166.3,399.5,168.9 M382.6,148.3h25.3v-7.8
		h-25.3V148.3z M407.9,149.8h-25.3v7.8h25.3V149.8z M400.9,181.8l1.2-0.9c4.4,5.8,8.1,11.8,11.2,18l-1.3,0.6
		C409.1,193.6,405.4,187.7,400.9,181.8"/>
	<path class="st1" d="M425.7,149.8h26v1.5h-26V149.8z M427.9,139.7h22.3v1.5h-22.3V139.7z M429.4,199.2v3.7h-1.5V181h22.3v18.2
		H429.4z M428.3,160.2h21.5v1.5h-21.5V160.2z M428.3,170.6h21.5v1.5h-21.5V170.6z M429.4,197.7h19.3v-15.2h-19.3V197.7z
		 M487.9,138.6l0.4,1.5c-5,1.4-10.1,2.7-15.5,3.6v14.6h17.5v1.5h-17.5v13h15.2v29h-1.5v-4.5h-29v4.5h-1.5v-29h15.2v-13h-18.2v-1.5
		h18.2V144c-5.4,1-11,1.7-16.6,2l-0.1-1.5C466.1,143.8,477.2,141.8,487.9,138.6 M486.6,174.3h-29v21.5h29V174.3z"/>
	<path class="st1" d="M536.6,136.4c9.4,8.2,20.2,15.7,32.5,22.4l-0.7,1.3c-11.8-6.4-22.7-14-32.7-22.6c-10,8.6-20.9,16.1-32.7,22.6
		l-0.7-1.3c12.2-6.7,23.1-14.1,32.5-22.4H536.6z M550.6,179.9l1.2-0.9c5.1,7.2,10.1,14.6,14.9,22.4l-1.2,0.7c-0.6-0.9-2.3-3.5-5-7.7
		c-18.6,3.2-36.5,5.2-53.9,5.9v-1.5c2.1-0.1,5.7-0.3,10.6-0.6c3.7-7.8,7-16,9.9-24.7h-22V172h60.9v1.5h-37.4
		c-3.2,9.4-6.4,17.6-9.7,24.6c12.9-0.9,26.5-2.6,40.6-5.1C557.2,189.4,554.2,185,550.6,179.9 M514.8,158.7h41.6v1.5h-41.6V158.7z"/>
</g>
<g>
	<defs>
		<path id="SVGID_1_" d="M100.3,53l0.1,0.7l5.4-1.1c-0.5,0.7-1,1.4-1.7,2c-0.8-0.2-1.6-0.6-2.2-1l-0.6,0.5c0.5,0.4,1.2,0.8,2.1,1
			c-0.8,0.5-1.8,1-3,1.5l0.4,0.6c1.4-0.6,2.6-1.2,3.5-1.9c1.1,0.2,2.4,0.3,3.9,0.3l0.1-0.7c-1.3,0.1-2.4,0-3.3-0.1
			c0.8-0.7,1.4-1.5,1.8-2.3l-0.1-0.7L100.3,53z M90.5,54.1l2.1-0.4l0.4,2.1L91,56.2L90.5,54.1z M89.8,50.9c0.1-0.4,0.1-0.7,0.1-1
			l-0.8,0c-0.1,1.6-0.5,3.1-1.1,4.5l0.7,0.3c0.4-1,0.7-2,0.9-3.1l2.4-0.5l0.4,1.8l-2.9,0.6l0.6,2.8l-1.8,0.4l0.1,0.7l4.7-1l0.5,2.4
			l0.8-0.2L94,56.2l3.7-0.8l-0.1-0.7l-3.7,0.8l-0.4-2.1l2.9-0.6l-0.1-0.7l-2.9,0.6L92.9,51l3.2-0.7L96,49.6L89.8,50.9z M30.7,48.2
			c-2.1,0.5-3.7,1.6-4.8,3.5c-1,1.9-1.3,4.2-0.7,7l5.3-1.1c-0.1-0.2-0.1-0.4-0.2-0.5c0-0.1-0.1-0.2-0.1-0.4c0,0,0,0,0-0.1
			c-0.2-0.9-0.2-1.6,0.1-2.2c0.3-0.6,0.7-0.9,1.3-1.1c0.6-0.1,1.1,0.1,1.7,0.6c0.5,0.5,0.9,1.2,1.1,2c0.1,0.6,0.2,1.2,0.1,1.8
			c0,0.7-0.2,1.4-0.3,2c-0.2,0.7-0.3,1.3-0.6,2c-0.2,0.7-0.5,1.3-0.7,1.9c-0.2,0.6-0.5,1.2-0.7,1.7c-0.2,0.5-0.5,1-0.7,1.4l-3.4,7.1
			l14.8-3.2l-1.1-5.1l-6,1.3l2.3-4.3c0.1-0.2,0.3-0.5,0.4-0.8c0.1-0.3,0.2-0.5,0.3-0.7c0.4-1,0.7-2,0.7-3c0.1-1,0-2-0.2-3.1
			c-0.5-2.4-1.6-4.2-3.2-5.5c-1.3-1-2.6-1.5-4-1.5C31.6,48,31.2,48.1,30.7,48.2 M101.7,50.4l2.9-0.6l0.2,1.1l-2.9,0.6L101.7,50.4z
			 M99,49.4l1.6-0.3l0.2,0.9l-1.6,0.3L99,49.4z M101.3,48.9l2.9-0.6l0.2,0.9l-2.9,0.6L101.3,48.9z M101.7,47.2l0.2,0.9l-3.9,0.8
			l0.6,3c0.2,1.1,0.4,2,0.4,2.8c0,0.8,0,1.5-0.2,2.2l0.7,0.5c0.4-1.5,0.4-3.2-0.1-5.2l-0.3-1.3l1.6-0.3l0.4,1.7l4.5-1l-0.4-1.7
			l1.6-0.3l-0.1-0.7l-1.6,0.3l-0.2-0.9l1.7-0.4l-0.1-0.7l-3.8,0.8l-0.2-0.9L101.7,47.2z M47.4,63.1c-0.9-1.2-1.5-2.8-1.9-4.9
			c-0.5-2.1-0.5-3.9-0.2-5.3c0.3-1.4,0.9-2.3,1.8-2.4c0.9-0.2,1.8,0.3,2.6,1.5c0.8,1.2,1.5,2.9,1.9,5c0.4,2.1,0.5,3.9,0.2,5.3
			c-0.3,1.4-0.9,2.3-1.8,2.4c-0.1,0-0.3,0-0.4,0C48.9,64.7,48.1,64.1,47.4,63.1 M45.9,45c-1.1,0.2-2.1,0.8-3,1.6
			c-0.8,0.8-1.5,1.9-2,3.2c-0.5,1.3-0.7,2.7-0.8,4.2c0,1.5,0.1,3.2,0.6,5.1c0.4,1.9,0.9,3.5,1.6,4.9c0.6,1.4,1.5,2.5,2.4,3.5
			c1,1,2.1,1.7,3.1,2.1c1.1,0.4,2.2,0.5,3.3,0.2c1.1-0.2,2.1-0.8,3-1.6c0.8-0.8,1.5-1.9,2-3.2c0.5-1.3,0.8-2.7,0.8-4.2
			c0-1.5-0.2-3.2-0.6-5.1c-0.4-1.9-0.9-3.6-1.6-4.9c-0.6-1.4-1.4-2.5-2.4-3.5c-1-1-2-1.7-3.1-2.1c-0.7-0.2-1.4-0.4-2.1-0.4
			C46.7,44.9,46.3,45,45.9,45 M61.2,41.7c-2.1,0.5-3.7,1.6-4.8,3.5c-1,1.9-1.3,4.2-0.7,7L61,51c-0.1-0.2-0.1-0.4-0.2-0.5
			c0-0.1-0.1-0.2-0.1-0.4c0,0,0,0,0-0.1c-0.2-0.9-0.2-1.6,0.1-2.2c0.3-0.6,0.7-0.9,1.3-1.1c0.6-0.1,1.1,0.1,1.7,0.6
			c0.5,0.5,0.9,1.2,1.1,2c0.1,0.6,0.2,1.2,0.1,1.8c-0.1,0.7-0.2,1.4-0.3,2c-0.2,0.7-0.3,1.3-0.6,2c-0.2,0.7-0.5,1.3-0.7,1.9
			c-0.2,0.6-0.5,1.2-0.7,1.7c-0.2,0.5-0.5,1-0.7,1.4l-3.4,7.1l14.8-3.2l-1.1-5.1l-6,1.3l2.3-4.3c0.1-0.2,0.3-0.5,0.4-0.8
			c0.1-0.3,0.2-0.5,0.3-0.7c0.4-1,0.7-2,0.7-3c0.1-1,0-2-0.2-3.1c-0.5-2.4-1.6-4.2-3.2-5.5c-1.3-1-2.6-1.5-4-1.5
			C62.1,41.5,61.6,41.6,61.2,41.7 M76.4,38.4c-2.1,0.5-3.7,1.6-4.8,3.5c-1,1.9-1.3,4.2-0.7,7l5.3-1.1c-0.1-0.2-0.1-0.4-0.2-0.5
			c0-0.1-0.1-0.2-0.1-0.4c0,0,0,0,0-0.1c-0.2-0.9-0.2-1.6,0.1-2.2c0.3-0.6,0.7-0.9,1.3-1.1c0.6-0.1,1.1,0.1,1.7,0.6
			c0.5,0.5,0.9,1.2,1.1,2c0.1,0.6,0.2,1.2,0.1,1.8c-0.1,0.7-0.2,1.4-0.3,2c-0.2,0.7-0.3,1.3-0.6,2c-0.2,0.7-0.5,1.3-0.7,1.9
			c-0.2,0.6-0.5,1.2-0.7,1.7c-0.2,0.5-0.5,1-0.7,1.4l-3.4,7.1L88.7,61l-1.1-5.1l-6,1.3l2.3-4.3c0.1-0.2,0.3-0.5,0.4-0.8
			c0.1-0.3,0.2-0.5,0.3-0.7c0.4-1,0.7-2,0.7-3c0.1-1,0-2-0.2-3.1c-0.5-2.4-1.6-4.2-3.2-5.5c-1.2-1-2.6-1.5-4-1.5
			C77.4,38.3,76.9,38.3,76.4,38.4"/>
	</defs>
	<clipPath id="SVGID_00000129167641425400828940000006095989100141079955_">
		<use xlink:href="#SVGID_1_"  style="overflow:visible;"/>
	</clipPath>
	
		<linearGradient id="SVGID_00000148630497729573927070000004687988997608084899_" gradientUnits="userSpaceOnUse" x1="4.6532" y1="535.835" x2="5.4343" y2="535.835" gradientTransform="matrix(1.5121 43.2992 43.2992 -1.5121 -23142.4043 647.4352)">
		<stop  offset="0" style="stop-color:#178FC9"/>
		<stop  offset="0.5443" style="stop-color:#178FC9"/>
		<stop  offset="0.7257" style="stop-color:#178EC8"/>
		<stop  offset="0.8176" style="stop-color:#1489C4"/>
		<stop  offset="0.8893" style="stop-color:#1181BE"/>
		<stop  offset="0.9503" style="stop-color:#0E76B6"/>
		<stop  offset="1" style="stop-color:#0C68AC"/>
	</linearGradient>
	
		<polygon style="clip-path:url(#SVGID_00000129167641425400828940000006095989100141079955_);fill:url(#SVGID_00000148630497729573927070000004687988997608084899_);" points="
		108.2,35.4 109.5,73.8 24.7,76.8 23.4,38.3 	"/>
</g>
<g>
	<path class="st1" d="M50.1,117.7c1.7-2.5,4-3.7,6.8-3.7c1.9,0,3.7,0.7,5.4,2.1c1.2,1,2.3,1.5,3.4,1.5c0.8,0,1.5-0.2,2.2-0.6
		c0.7-0.4,1.4-1.1,2.2-2.1l2.5,2.2c-1.7,2.5-4,3.7-6.8,3.7c-1.9,0-3.7-0.7-5.4-2.1c-1.2-1-2.3-1.5-3.4-1.5c-0.8,0-1.5,0.2-2.2,0.6
		c-0.7,0.4-1.4,1.1-2.2,2.1L50.1,117.7z"/>
	<path class="st1" d="M78.7,117.7c-1.4-1.3-2.9-2.6-4.5-3.8l1.8-2.2c1.4,1,2.9,2.2,4.5,3.7L78.7,117.7z M80.9,120.2
		c-0.9,3.1-2.1,5.8-3.6,8.1l-2.6-1.6c1.4-2.3,2.6-4.8,3.5-7.6L80.9,120.2z M75.4,108.5l1.8-2.2c1.4,1,2.8,2.1,4.1,3.3l-1.8,2.2
		C78.2,110.8,76.9,109.7,75.4,108.5z M80.1,128.2l-0.3-2.6c1.1-0.1,1.9-0.3,2.3-0.3v-7.8h3.2v1.8h3.3v2.6h-3.3v2.7
		c1-0.2,2-0.5,3.2-0.8l0.3,2.6C85.9,127.3,83,127.9,80.1,128.2z M85.2,116.6h-3.1v-9.9h14v9.9H85.2z M85.2,110.8H93v-1.5h-7.7V110.8
		z M85.2,112.9v1.5H93v-1.5H85.2z M93.3,128c-0.5,0-1.1,0-1.8,0c-0.9,0-1.5-0.2-1.7-0.4c-0.2-0.2-0.3-0.7-0.3-1.4v-8.8h3.2v2.1
		c1.2-0.5,2.5-1.1,3.8-1.8l1.1,2.4c-1.7,0.9-3.3,1.6-4.9,2.1v2.7c0,0.2,0,0.3,0,0.4c0,0,0.1,0.1,0.3,0.1c0,0,0.1,0,0.2,0
		c0.1,0,0.2,0,0.3,0c0.1,0,0.2,0,0.3,0c0.1,0,0.2,0,0.3,0c0.1,0,0.2,0,0.3,0c0.1,0,0.1,0,0.2-0.1c0.1-0.1,0.1-0.2,0.1-0.3
		c0-0.1,0-0.3,0.1-0.5c0-0.2,0-0.5,0.1-0.8c0-0.3,0-0.7,0-1.2v0l2.6,0.3c0,0.9-0.1,1.6-0.1,2c0,0.5-0.1,0.9-0.2,1.4
		c-0.1,0.4-0.2,0.8-0.2,0.9c-0.1,0.2-0.2,0.3-0.4,0.5c-0.2,0.1-0.4,0.2-0.6,0.3c-0.2,0-0.5,0.1-0.9,0.1C94.3,128,93.7,128,93.3,128z
		"/>
	<path class="st1" d="M103.4,117.5c-1.3-1.1-2.9-2.3-4.7-3.6l1.7-2.2c1.7,1.2,3.3,2.3,4.7,3.5L103.4,117.5z M105.7,120
		c-0.9,3.1-2.1,5.9-3.7,8.3l-2.6-1.6c1.5-2.3,2.7-4.9,3.6-7.7L105.7,120z M119,121.7l3.1,0.7c0,1-0.1,1.8-0.1,2.3
		c0,0.5-0.2,1.1-0.3,1.6c-0.2,0.5-0.3,0.8-0.5,1c-0.2,0.2-0.5,0.4-1,0.5c-0.5,0.2-1,0.2-1.4,0.3s-1.2,0-2.1,0c-0.8,0-1.4,0-1.9,0
		c-0.5,0-0.9-0.1-1.3-0.2c-0.4-0.1-0.7-0.2-0.9-0.3c-0.2-0.1-0.3-0.3-0.5-0.6c-0.1-0.3-0.2-0.5-0.2-0.8s0-0.7,0-1.2v-3.6h-2.2v2.5
		h-3v-10.7h3v5.6h2.2v-7.1c-2,0.2-3.9,0.3-5.6,0.3l-0.3-2.4l-1.5,2.1c-1.3-1.1-2.8-2.1-4.3-3l1.7-2.3c1.5,0.9,2.8,1.8,4.1,2.8
		c2.1-0.1,4.1-0.2,6-0.4v-2.6h3.3v2.2c2.5-0.3,4.4-0.7,5.8-1.1l0.7,2.8c-1.7,0.5-3.8,0.9-6.4,1.2v7.4h2.5v-6h3.1v8.7H115v3.1
		c0,0.4,0.1,0.6,0.3,0.7c0.2,0.1,0.7,0.1,1.7,0.1c0.9,0,1.5-0.2,1.6-0.5S118.9,123.6,119,121.7z"/>
	<path class="st1" d="M137,124.1c1.8-0.2,3.2-0.9,4.1-2.1c1-1.2,1.4-2.7,1.4-4.7c0-1.7-0.5-3.1-1.6-4.3c-1-1.2-2.4-1.9-4.1-2.1
		c-0.4,3.1-0.9,5.7-1.4,7.8c-0.5,2.1-1.1,3.7-1.8,4.8c-0.6,1.1-1.3,1.9-2,2.3c-0.7,0.4-1.4,0.6-2.3,0.6c-1.3,0-2.5-0.8-3.7-2.3
		c-1.1-1.5-1.7-3.4-1.7-5.6c0-3.2,1.1-5.7,3.2-7.7c2.2-2,5-3,8.5-3c2.8,0,5.1,0.9,7,2.6c1.8,1.8,2.8,4,2.8,6.7
		c0,2.8-0.7,5.1-2.2,6.8c-1.4,1.7-3.4,2.7-5.9,2.9L137,124.1z M133.7,111.1c-2,0.4-3.5,1.2-4.7,2.6c-1.1,1.3-1.7,3-1.7,5
		c0,1.2,0.3,2.3,0.8,3.3c0.5,1,1,1.4,1.4,1.4c0.2,0,0.5-0.1,0.7-0.3c0.2-0.2,0.5-0.6,0.8-1.2c0.3-0.6,0.6-1.3,0.9-2.2
		c0.3-0.9,0.6-2.1,0.9-3.6C133.2,114.6,133.5,112.9,133.7,111.1z"/>
	<path class="st1" d="M170.8,115.6h-2.2v1.9h2.2v2.6h-2.2v4.1c0,0.7,0,1.2,0,1.6c0,0.4-0.1,0.8-0.2,1.1c-0.1,0.3-0.2,0.6-0.4,0.7
		c-0.1,0.1-0.4,0.3-0.7,0.4c-0.3,0.1-0.7,0.2-1.1,0.2c-0.4,0-0.9,0-1.6,0c-0.5,0-1.5,0-3-0.1l-0.1-2.6c1.4,0.1,2.2,0.1,2.6,0.1
		c0.7,0,1,0,1.1-0.1c0.1-0.1,0.2-0.5,0.2-1.1v-4.3h-6c1.2,1.1,2.3,2.3,3.4,3.6l-2.2,1.9c-1.2-1.4-2.4-2.6-3.6-3.8l1.9-1.7h-2.4v6.2
		h-4.8v1.4h-2.9v-20.6h7.8v5.8h5.7v-2.3h-4.7v-2.6h4.7v-2.4h3.2v2.4h4.6v2.6h-4.6v2.3h5.4V115.6z M151.7,115.2h2v-5.3h-2V115.2z
		 M151.7,117.9v5.8h2v-5.8H151.7z M156.5,115.6v1.9h8.9v-1.9H156.5z"/>
	<path class="st1" d="M178.3,112.9v15.6h-3.2v-10.6c-0.6,0.9-1.1,1.7-1.6,2.2l-1.4-3.1c2.5-3,4.2-6.6,5.1-10.7l3,0.6
		C179.9,108.9,179.3,111,178.3,112.9z M184.9,106.2h3.2c0,2,0.1,3.9,0.2,5.6l6.8-0.6l0.2,2.8l-6.7,0.6c0.3,2.1,0.7,4,1.2,5.7
		s0.9,2.9,1.3,3.6c0.4,0.7,0.8,1.1,1,1.1c0.1,0,0.2-0.1,0.3-0.2c0.1-0.2,0.2-0.5,0.3-1.1c0.1-0.6,0.3-1.4,0.4-2.6l2.6,1.1
		c-0.2,2.3-0.6,3.9-1.3,4.9c-0.6,1-1.3,1.5-2.1,1.5c-0.6,0-1.1-0.1-1.6-0.4c-0.5-0.2-1.1-0.7-1.6-1.3c-0.6-0.6-1.1-1.4-1.6-2.4
		c-0.5-1-0.9-2.3-1.3-3.9c-0.4-1.6-0.7-3.5-0.9-5.6l-5.9,0.5l-0.2-2.8l5.8-0.5C185,110.5,184.9,108.5,184.9,106.2z M189,107.5l2-1.8
		c1.2,1,2.5,2.2,3.8,3.6l-2,1.8C191.6,109.8,190.3,108.6,189,107.5z"/>
	<path class="st1" d="M216.8,124.1l0.3,2.8c-2.2,0.3-4.3,0.5-6.4,0.5c-3.1,0-5.3-0.4-6.6-1.1c-1.4-0.7-2-1.9-2-3.4
		c0-1.2,0.6-2.4,1.7-3.4c1.1-1,2.8-1.9,5.1-2.7c-0.4-0.8-1.1-1.2-2.1-1.2c-1.7,0-3.8,1.7-6.2,5l-2.6-1.5c1.9-2.7,3.4-5.2,4.5-7.6
		h-4.2v-2.6h5.3c0.3-0.9,0.6-1.8,1-2.7l3.2,0.6c-0.2,0.6-0.5,1.3-0.8,2.1h10.2v2.6h-11.3c-0.2,0.5-0.5,1.1-0.9,2.1l0,0
		c0.9-0.4,1.7-0.5,2.5-0.5c2.2,0,3.7,1,4.4,2.9c1.7-0.4,3.5-0.6,5.2-0.8l0.2,2.7c-1.4,0.2-3,0.4-4.8,0.8c0.1,1.1,0.2,2.3,0.2,3.8
		h-3.3c0-1.3,0-2.2-0.1-3c-1.3,0.4-2.4,0.9-3.1,1.5c-0.7,0.5-1.1,1.1-1.1,1.6c0,0.5,0.1,0.8,0.4,1.1c0.2,0.3,0.8,0.5,1.6,0.7
		c0.8,0.2,2,0.3,3.4,0.3C212.4,124.7,214.4,124.5,216.8,124.1z"/>
	<path class="st1" d="M221.8,113.1v-2.6h8.7v2.6H221.8z M222.5,109.4v-2.5h7.6v2.5H222.5z M243.9,115.2v5.3h-3v-2.9h-7.2v1h2.7
		c0,2-0.2,3.6-0.5,4.9c-0.3,1.3-0.9,2.3-1.5,3c-0.7,0.8-1.6,1.4-2.8,2l-1.4-2.3v1.3h-5v0.9h-2.7v-7.5h7.7v4.9c1-0.5,1.7-1.2,2.2-1.9
		c0.5-0.7,0.8-1.8,0.9-3.2h-2.6v-5.6H243.9z M222.7,116.5v-2.4h7.4v2.4H222.7z M222.7,120v-2.4h7.4v2.4H222.7z M225.2,125.3h2.5
		v-1.9h-2.5V125.3z M244.2,107.7v2.6h-5.3v1.3h4.4v2.5h-11.7v-2.5h4v-1.3h-4.8v-2.6h4.8v-1.8h3.2v1.8H244.2z M237.2,118.7h3v6.4
		c0,0.2,0,0.4,0.1,0.4c0.1,0,0.2,0.1,0.5,0.1c0.4,0,0.6-0.1,0.6-0.4c0.1-0.3,0.1-1.3,0.1-3l2.7,0.4c0,0.8-0.1,1.4-0.1,1.9
		c0,0.4-0.1,0.9-0.1,1.4c-0.1,0.5-0.1,0.8-0.2,1.1c0,0.2-0.2,0.4-0.3,0.7c-0.2,0.2-0.3,0.4-0.4,0.5c-0.1,0.1-0.3,0.1-0.7,0.2
		c-0.3,0.1-0.6,0.1-0.8,0.1c-0.3,0-0.6,0-1.1,0c-0.6,0-1,0-1.4,0c-0.3,0-0.6-0.1-0.9-0.1c-0.3-0.1-0.5-0.2-0.6-0.3
		c-0.1-0.1-0.2-0.3-0.3-0.5c-0.1-0.2-0.2-0.5-0.2-0.8c0-0.3,0-0.6,0-1.1V118.7z"/>
	<path class="st1" d="M248.6,110.5v-2.8h10.2v2.8c-0.1,0.8-0.3,2.3-0.5,4.4c1.2,0.1,2.5,0.3,3.8,0.6c0-1.1,0-3,0-5.8h3.1
		c0,2.4,0,4.7-0.1,6.7c1.3,0.5,2.6,1.2,3.9,1.9l-1.4,2.6c-0.9-0.6-1.8-1.1-2.7-1.5c-0.1,1.2-0.3,2.3-0.6,3.1
		c-0.2,0.8-0.6,1.6-1.1,2.2c-0.5,0.6-1,1.1-1.6,1.6c-0.6,0.4-1.3,0.9-2.3,1.4l-1.6-2.6c0.8-0.4,1.4-0.8,1.8-1.1
		c0.4-0.3,0.8-0.7,1.2-1.2c0.4-0.5,0.6-1.1,0.8-1.8c0.2-0.7,0.3-1.6,0.4-2.7c-1.4-0.4-2.8-0.6-4.1-0.7c-0.3,1.6-0.5,2.9-0.8,4
		c-0.3,1.1-0.6,2-0.9,2.7c-0.3,0.7-0.7,1.2-1.1,1.6c-0.4,0.4-0.8,0.6-1.2,0.8c-0.4,0.1-0.9,0.2-1.4,0.2c-1.4,0-2.6-0.6-3.8-1.9
		c-1.2-1.3-1.8-2.7-1.8-4.3c0-1.5,0.7-2.8,2.2-3.9c1.4-1.1,3.4-1.8,6-2c0.2-1.5,0.4-3,0.5-4.4H248.6z M254.6,117.9
		c-1.5,0.2-2.6,0.6-3.4,1.1c-0.8,0.5-1.2,1.2-1.2,1.9c0,0.7,0.3,1.3,0.8,2c0.5,0.7,1,1,1.4,1C253.1,123.9,253.9,121.9,254.6,117.9z"
		/>
	<path class="st1" d="M290.1,121.9h3.5v2.7h-3.5v3.9h-3.2v-3.9h-4.8v-2.7h4.8v-2.4h-2.4c-0.3,0.7-0.6,1.4-1,2.1l-1.9-0.7v3.6
		c0,1,0,1.7,0,2.2c0,0.5-0.1,0.9-0.3,1.2c-0.2,0.3-0.4,0.5-0.6,0.5c-0.2,0.1-0.6,0.1-1.1,0.1c-0.4,0-1.5,0-3.2-0.1l-0.1-2.6
		c1.2,0.1,1.9,0.1,2.2,0.1c0.3,0,0.5,0,0.5-0.1c0-0.1,0.1-0.4,0.1-1v-1.5h-4.7c-0.2,2.2-0.6,4-1.2,5.5l-2.5-2.1
		c0.4-1.1,0.7-2.5,0.9-4c0.2-1.5,0.3-3.9,0.3-7.1V114l-1.2-0.8c1.4-2.2,2.4-4.8,3-7.7l3,0.3c0,0.3-0.1,0.7-0.3,1.3h4v2.5
		c-0.2,0.6-0.4,1.2-0.7,1.7h2v2.3c1.8-1,2.9-2.4,3.3-4.2H282v-2.7h11.3c0,1.3-0.1,2.4-0.1,3.2c0,0.8-0.1,1.5-0.2,2.2
		c-0.1,0.7-0.2,1.1-0.3,1.4c-0.1,0.3-0.3,0.6-0.5,0.8c-0.2,0.2-0.5,0.3-0.7,0.4c-0.2,0-0.6,0.1-1,0.1c-0.7,0-1.9,0-3.4-0.1l-0.2-2.2
		c-0.6,1.1-1.4,2.1-2.5,2.8l1.5,0.3c0,0.1-0.2,0.6-0.4,1.3h1.6v-1.6h3.1v1.6h3.1v2.6h-3.1V121.9z M274.5,118.4c0,0.1,0,0.8-0.1,2.3
		h1.2v-2.3H274.5z M274.5,116h1.1v-2.2h-1.1V116z M276.5,111.3c0.3-0.6,0.6-1.2,0.8-1.7h-1.8c-0.3,0.8-0.5,1.4-0.7,1.7H276.5z
		 M277.8,116h1.1v-2.2h-1.1V116z M277.8,118.4v2.3h1.1v-2.3H277.8z M282.8,116l-1.2-1.9v5C282,118.4,282.4,117.3,282.8,116z
		 M287.8,109.4c-0.1,1-0.4,1.9-0.8,2.7c0.8,0.1,1.5,0.1,2,0.1c0.4,0,0.7-0.1,0.8-0.4c0.1-0.3,0.2-1.1,0.2-2.4H287.8z"/>
	<path class="st1" d="M310.8,106.3l2,2.5c-3.1,2.3-6,4.3-8.7,6.1c-1,0.6-1.6,1-1.9,1.3c-0.3,0.2-0.4,0.5-0.4,0.7
		c0,0.2,0.1,0.5,0.4,0.7c0.2,0.2,0.8,0.6,1.7,1.3c3.2,2.2,6.4,4.6,9.6,7.2l-2.2,2.4c-3.3-2.7-6.4-5-9.3-7c-1.8-1.2-2.9-2.1-3.3-2.6
		c-0.4-0.5-0.6-1.1-0.6-1.9c0-0.9,0.2-1.5,0.7-2c0.4-0.5,1.6-1.3,3.3-2.4C305.1,110.5,308,108.5,310.8,106.3z"/>
	<path class="st1" d="M326.7,107.3h3.4l-0.5,6.9h-2.5L326.7,107.3z M331.8,107.3h3.4l-0.5,6.9h-2.5L331.8,107.3z"/>
	<path class="st1" d="M344.1,117.7v-2.8h5v-4.2h-1.2c-0.4,1.3-0.9,2.6-1.5,3.8l-2.6-1.1c1.1-2.4,1.9-5,2.5-7.8l2.8,0.4
		c-0.1,0.5-0.2,1.1-0.4,2h6.4v2.7h-2.7v4.2h3.6v-7.4h10.1v20.5h-3.1v-1.4h-4v1.4h-3V125l-2.4,1.7c-1-1.7-1.9-3.3-2.7-4.6
		c-1.2,2.7-2.8,4.8-4.9,6.1l-1.9-2.5c2.7-2,4.3-4.6,4.9-8H344.1z M352.1,117.7c0,0.3-0.1,0.6-0.2,1c1.7,2.4,3,4.5,4,6.3v-7.3H352.1z
		 M359,123.8h4v-13.6h-4V123.8z"/>
	<path class="st1" d="M387.9,128.2c-1.8,0-3.6,0-5.4-0.1l-0.1-2.8c1.5,0.1,2.8,0.1,4.1,0.1c0.3,0,0.5-0.3,0.6-0.8
		c0.1-0.5,0.3-1.8,0.4-3.9c0.1-2,0.2-5.1,0.3-9.3h-5.3c-0.7,1.4-1.4,2.7-2.1,3.8l2.2-1.3c1.4,1.9,2.7,4,3.8,6.4l-2.6,1.3
		c-1-2-2.3-4.1-3.7-6c-0.4,0.6-0.8,1.1-1.1,1.4l-0.9-0.9v10.2H372v1.8h-3.1v-18.8h2.7c0.4-1.2,0.7-2.3,1-3.4l3.1,0.4
		c-0.2,1-0.5,2-0.9,3h3.3v4c1.4-2.2,2.5-4.6,3.1-7.4l3.1,0.3c-0.3,1-0.5,1.9-0.8,2.6h7.4c0,2.4-0.1,4.5-0.1,6.2
		c0,1.7-0.1,3.3-0.2,4.7c-0.1,1.4-0.1,2.6-0.2,3.5c-0.1,0.9-0.2,1.7-0.3,2.4c-0.1,0.7-0.3,1.2-0.4,1.5c-0.1,0.3-0.3,0.6-0.5,0.8
		c-0.2,0.2-0.4,0.3-0.6,0.4C388.5,128.2,388.2,128.2,387.9,128.2z M372,116.4h3.2v-4.5H372V116.4z M372,119v4.6h3.2V119H372z"/>
	<path class="st1" d="M415.3,125.5l-1,2.8c-4.2-1-7.5-2.3-10-3.8c-2.4,1.6-5.7,2.8-10,3.8l-1-2.8c3.8-0.9,6.6-1.9,8.5-3
		c-1.4-1.4-2.6-3.1-3.5-5.2l3-1.1c0.8,1.8,1.9,3.3,3,4.5c1.2-1.2,2.2-2.6,3-4.5l3.1,1c-0.9,2.1-2.1,3.9-3.6,5.3
		C408.6,123.5,411.5,124.5,415.3,125.5z M413.1,118.6c-2.1-2-4.6-3.9-7.3-5.7l1.3-1.6H401l1.7,1.5c-1.8,2.3-4.4,4.3-7.6,5.9
		l-1.5-2.6c2.6-1.3,4.7-2.9,6.5-4.8h-6.5v-2.8h9.1v-2.8h3.3v2.8h9.1v2.8h-6.2c2.3,1.6,4.4,3.3,6.3,5.1L413.1,118.6z"/>
	<path class="st1" d="M433.3,111.7l2.8-1.2c1.6,2,2.9,4,4.1,6l-2.7,1.4c-0.5-0.8-0.8-1.4-1.1-1.7c-4.7,0.6-9.2,0.9-13.4,1l0-1.4
		l-1.6,1.9c-1.3-1.2-2.8-2.5-4.5-3.8l1.8-2.1c1.5,1.1,2.9,2.2,4.2,3.5l0-0.8c1.3,0,2.2-0.1,2.8-0.1c0.6-1.3,1.2-2.7,1.7-4.1h-4.3
		l-1.3,1.5c-1.3-1.2-2.6-2.3-4-3.4l1.8-2.1c1.2,0.9,2.3,1.8,3.4,2.7v-1.5h6.6v-1.9h3.4v1.9h6.8v2.7h-9.1c-0.4,1.2-1,2.5-1.6,3.9
		c2-0.1,3.9-0.3,5.6-0.5C434.4,113.3,434,112.6,433.3,111.7z M423.4,120.3c-0.9,3-2,5.7-3.5,7.9l-2.6-1.6c1.3-2.2,2.5-4.7,3.3-7.4
		L423.4,120.3z M424.8,117.8h3.1c0,3.1-0.3,5.5-1,7.1c-0.7,1.6-1.8,2.8-3.5,3.8l-2.1-2.4c1.3-0.8,2.2-1.8,2.7-3
		C424.5,122.2,424.8,120.3,424.8,117.8z M429.1,128.1v-10.3h3.1v10.3H429.1z M433.8,117.5h3.1v7.5c0,0.4,0,0.6,0.1,0.6
		c0,0.1,0.2,0.1,0.4,0.1c0.3,0,0.5-0.2,0.5-0.5c0.1-0.4,0.1-1.6,0.2-3.7l2.4,0.3c0,0.8,0,1.3,0,1.8c0,0.4,0,0.9-0.1,1.4
		c0,0.5-0.1,0.9-0.1,1.1c0,0.2-0.1,0.5-0.2,0.8c-0.1,0.3-0.2,0.5-0.2,0.6c-0.1,0.1-0.2,0.2-0.4,0.4s-0.3,0.2-0.5,0.3
		c-0.1,0-0.3,0.1-0.6,0.1c-0.3,0-0.6,0.1-0.8,0.1c-0.2,0-0.6,0-1,0c-1.3,0-2.1-0.1-2.4-0.3c-0.3-0.2-0.5-0.8-0.5-1.6V117.5z"/>
	<path class="st1" d="M442.6,111.1h4V107h3.2v4.2h6.9V107h3.3v4.2h4v2.9h-4v1.4c0,3.9-0.9,6.8-2.7,8.6c-1.8,1.8-4.9,2.9-9.3,3.3
		l-0.6-2.9c3.6-0.4,6.1-1.2,7.4-2.4c1.3-1.2,1.9-3.4,1.9-6.5v-1.4h-6.9v5h-3.2v-5h-4V111.1z"/>
	<path class="st1" d="M471.7,126.3h-3.4v-18h19.3v18H471.7z M471.7,123.3h12.4v-12h-12.4V123.3z"/>
	<path class="st1" d="M493.3,110.7l1.6-2.9c2.5,1.2,5,2.5,7.6,3.9l-1.6,2.9C498.6,113.4,496.1,112.1,493.3,110.7z M509.8,110.1
		l3.1,0.7c-0.9,4.9-2.8,8.6-5.9,11.2c-3.1,2.6-7.3,4.2-12.8,4.6l-0.5-3.2c4.7-0.5,8.4-1.8,10.9-3.9
		C507.3,117.4,509,114.3,509.8,110.1z"/>
	<path class="st1" d="M522.4,107.3h3.4l-0.5,6.9h-2.5L522.4,107.3z M527.5,107.3h3.4l-0.5,6.9H528L527.5,107.3z"/>
	<path class="st1" d="M533.6,117.7c1.7-2.5,4-3.7,6.8-3.7c1.9,0,3.7,0.7,5.4,2.1c1.2,1,2.3,1.5,3.4,1.5c0.8,0,1.5-0.2,2.2-0.6
		c0.7-0.4,1.4-1.1,2.2-2.1l2.5,2.2c-1.7,2.5-4,3.7-6.8,3.7c-1.9,0-3.7-0.7-5.4-2.1c-1.2-1-2.3-1.5-3.4-1.5c-0.8,0-1.5,0.2-2.2,0.6
		c-0.7,0.4-1.4,1.1-2.2,2.1L533.6,117.7z"/>
</g>
<g>
	
		<linearGradient id="SVGID_00000170973411073902345030000002364333693971681168_" gradientUnits="userSpaceOnUse" x1="120.7537" y1="30.8906" x2="120.7537" y2="53.8277">
		<stop  offset="0" style="stop-color:#178FC9"/>
		<stop  offset="0.5443" style="stop-color:#178FC9"/>
		<stop  offset="0.7257" style="stop-color:#178EC8"/>
		<stop  offset="0.8176" style="stop-color:#1489C4"/>
		<stop  offset="0.8893" style="stop-color:#1181BE"/>
		<stop  offset="0.9503" style="stop-color:#0E76B6"/>
		<stop  offset="1" style="stop-color:#0C68AC"/>
	</linearGradient>
	<path style="fill:url(#SVGID_00000170973411073902345030000002364333693971681168_);" d="M121.3,42.1h-4.1v1.1h3.8v3.1h-3.7
		c0.9,0.8,2,1.7,3,2.7c0.8-1.6,1.3-3.5,1.6-5.8c0.3-2.3,0.4-5.7,0.4-10.3c3.6-0.3,6.6-0.9,9-1.7l1,3.4c-1.9,0.6-4.1,1.1-6.5,1.4
		c0,1.2-0.1,2.1-0.1,2.7h6.7V42h-1.7v11.6H127V42h-1.5c-0.2,2.8-0.7,5-1.3,6.8c-0.6,1.8-1.4,3.4-2.5,4.9l-2.3-2.4l-0.5,0.6
		c-0.5-0.6-1-1.2-1.7-1.9v3.8h-3.7v-4.1c-0.8,1.2-1.6,2.3-2.5,3.2l-1.9-2.9c1.3-1.1,2.4-2.4,3.3-3.8h-2.6v-3.1h3.7v-1.1h-3.7v-3h1.9
		c-0.2-0.9-0.5-1.9-0.7-2.8h-1.1v-3.1h3.6v-2.3h3.7v2.3h4.2v3.1h-1c-0.2,0.8-0.5,1.7-0.9,2.8h1.8V42.1z M114.9,39.1h1.2
		c0.4-0.9,0.7-1.9,0.9-2.8h-2.8C114.6,37.5,114.8,38.5,114.9,39.1z"/>
	
		<linearGradient id="SVGID_00000000207164474986243600000012429176846479221388_" gradientUnits="userSpaceOnUse" x1="145.3714" y1="31.2582" x2="145.3714" y2="53.7295">
		<stop  offset="0" style="stop-color:#178FC9"/>
		<stop  offset="0.5443" style="stop-color:#178FC9"/>
		<stop  offset="0.7257" style="stop-color:#178EC8"/>
		<stop  offset="0.8176" style="stop-color:#1489C4"/>
		<stop  offset="0.8893" style="stop-color:#1181BE"/>
		<stop  offset="0.9503" style="stop-color:#0E76B6"/>
		<stop  offset="1" style="stop-color:#0C68AC"/>
	</linearGradient>
	<path style="fill:url(#SVGID_00000000207164474986243600000012429176846479221388_);" d="M134.1,43.5v-3.1h2.4c0-0.3,0-0.8,0-1.5
		v-0.9h-2.2v-3.3h2.2v-3.5h3.7v3.5h2.2v3.3h-2.2v0.7c0,0.8,0,1.3,0,1.7h2.2v3.1h-2.6c1.2,1.5,2.2,2.8,3,3.9l-2.2,2.4
		c-1-1.6-1.5-2.5-1.7-2.7c-0.7,2.6-1.7,4.8-3.2,6.4l-2.1-3.3c1.4-1.8,2.3-4.1,2.6-6.7H134.1z M153.3,53.4h-0.7h-0.7
		c-1.3,0-2.1-0.1-2.4-0.4c-0.3-0.2-0.5-0.8-0.5-1.7v-4.5h-0.6c-0.6,3.7-3,6-7.5,7l-1.1-3c1.6-0.3,2.8-0.8,3.6-1.4
		c0.8-0.6,1.4-1.5,1.6-2.5h-1.7v-15h12.7v15h-3.6v2.7c0,0.4,0,0.6,0,0.7c0,0.1,0.1,0.1,0.3,0.1c0,0,0.1,0,0.2,0c0.1,0,0.1,0,0.1,0
		c0,0,0.1,0,0.2,0c0.1,0,0.1,0,0.2,0c0.2,0,0.4-0.1,0.4-0.4c0-0.2,0.1-1,0.1-2.4l3.3,0.4c0,0.8-0.1,1.4-0.1,1.8
		c0,0.4-0.1,0.8-0.1,1.3c-0.1,0.5-0.1,0.8-0.2,1c0,0.2-0.1,0.4-0.3,0.6c-0.2,0.2-0.3,0.4-0.4,0.4c-0.1,0.1-0.3,0.1-0.7,0.2
		c-0.3,0.1-0.6,0.1-0.9,0.1C154.2,53.4,153.8,53.4,153.3,53.4z M146.8,36.1h5.3v-1.3h-5.3V36.1z M146.8,38.7v1.3h5.3v-1.3H146.8z
		 M146.8,42.5v1.3h5.3v-1.3H146.8z"/>
	
		<linearGradient id="SVGID_00000155835069715974264540000002945439064293806008_" gradientUnits="userSpaceOnUse" x1="121.5754" y1="56.6278" x2="121.5754" y2="76.3999">
		<stop  offset="0" style="stop-color:#178FC9"/>
		<stop  offset="0.5443" style="stop-color:#178FC9"/>
		<stop  offset="0.7257" style="stop-color:#178EC8"/>
		<stop  offset="0.8176" style="stop-color:#1489C4"/>
		<stop  offset="0.8893" style="stop-color:#1181BE"/>
		<stop  offset="0.9503" style="stop-color:#0E76B6"/>
		<stop  offset="1" style="stop-color:#0C68AC"/>
	</linearGradient>
	<path style="fill:url(#SVGID_00000155835069715974264540000002945439064293806008_);" d="M111.2,70.9c0-0.9,0.3-1.9,0.9-2.8
		c0.6-1,1.6-2.2,3.1-3.6l2.9,2.1c-1.8,1.8-2.8,3.1-2.8,3.9c0,0.7,0.5,1.3,1.4,1.7c0.9,0.4,2.3,0.6,4,0.6c1.1,0,2.4-0.1,4-0.4
		c1.6-0.2,3-0.5,4.1-0.8l0.7,3.6c-1.1,0.3-2.6,0.6-4.4,0.8c-1.8,0.2-3.3,0.3-4.6,0.3c-3,0-5.3-0.5-7-1.5
		C112.1,73.9,111.2,72.5,111.2,70.9z M113.4,60.1v-3.5h14.7v3.5H113.4z M128,65.9l-2.5,1.2c-0.6-1.3-1.3-2.6-2.1-3.9l2.5-1.3
		C126.6,63.4,127.3,64.7,128,65.9z M131.9,65.2l-2.6,1.2c-0.7-1.4-1.4-2.7-2.1-4l2.6-1.3C130.4,62.2,131.1,63.5,131.9,65.2z"/>
	
		<linearGradient id="SVGID_00000079450894862119335270000004065324337957125557_" gradientUnits="userSpaceOnUse" x1="145.4327" y1="55.8424" x2="145.4327" y2="77.4305">
		<stop  offset="0" style="stop-color:#178FC9"/>
		<stop  offset="0.5443" style="stop-color:#178FC9"/>
		<stop  offset="0.7257" style="stop-color:#178EC8"/>
		<stop  offset="0.8176" style="stop-color:#1489C4"/>
		<stop  offset="0.8893" style="stop-color:#1181BE"/>
		<stop  offset="0.9503" style="stop-color:#0E76B6"/>
		<stop  offset="1" style="stop-color:#0C68AC"/>
	</linearGradient>
	<path style="fill:url(#SVGID_00000079450894862119335270000004065324337957125557_);" d="M137.9,55.8h10.5v2c0,7.5,2.9,13,8.6,16.5
		l-2.2,3c-1.8-1-3.5-2.4-5-4.4c-1.5-1.9-2.7-4.1-3.6-6.5c-1.1,2.3-2.5,4.5-4.3,6.4c-1.8,1.9-3.8,3.4-5.9,4.5l-2.2-3
		c3.3-1.8,5.8-4.1,7.7-6.8c1.9-2.7,2.8-5.4,2.8-8.1v-0.3h-6.5V55.8z"/>
	
		<linearGradient id="SVGID_00000074424536644231501470000017197559356782173060_" gradientUnits="userSpaceOnUse" x1="169.9648" y1="55.1314" x2="169.9648" y2="77.8721">
		<stop  offset="0" style="stop-color:#178FC9"/>
		<stop  offset="0.5443" style="stop-color:#178FC9"/>
		<stop  offset="0.7257" style="stop-color:#178EC8"/>
		<stop  offset="0.8176" style="stop-color:#1489C4"/>
		<stop  offset="0.8893" style="stop-color:#1181BE"/>
		<stop  offset="0.9503" style="stop-color:#0E76B6"/>
		<stop  offset="1" style="stop-color:#0C68AC"/>
	</linearGradient>
	<path style="fill:url(#SVGID_00000074424536644231501470000017197559356782173060_);" d="M176.9,63.1v1.7H163v-1.7
		c-1.1,0.7-2.3,1.4-3.6,2l-1.4-3.2c3.6-1.9,6.8-4.1,9.4-6.7h5c2.6,2.6,5.8,4.9,9.4,6.7l-1.4,3.2C179.2,64.5,178,63.8,176.9,63.1z
		 M159.3,69.6v-3.2h21.3v3.2h-3.1c1.2,2.4,2.3,4.8,3.4,7.1l-3.5,1.2c-0.5-1.2-0.8-1.9-1-2.1c-5.9,0.7-11.3,1.1-16.3,1.2l-0.2-3.2
		c1.5-0.1,2.7-0.1,3.5-0.1c0.6-1.1,1.3-2.4,2.1-4H159.3z M174.7,61.7c-1.8-1.2-3.3-2.6-4.8-4.1c-1.4,1.5-3,2.8-4.8,4.1H174.7z
		 M175.1,72.7c-0.1-0.2-0.3-0.6-0.5-1.1c-0.2-0.5-0.4-0.9-0.5-1.1l2.7-0.9h-7c-0.5,1.2-1.1,2.5-1.8,3.8
		C171.1,73.1,173.5,72.9,175.1,72.7z"/>
</g>
</svg>
