<?xml version="1.0" encoding="utf-8"?>
<!-- Generator: Adobe Illustrator 25.4.1, SVG Export Plug-In . SVG Version: 6.00 Build 0)  -->
<svg version="1.1" id="レイヤー_1" xmlns="http://www.w3.org/2000/svg" xmlns:xlink="http://www.w3.org/1999/xlink" x="0px"
	 y="0px" viewBox="0 0 587.1 209" style="enable-background:new 0 0 587.1 209;" xml:space="preserve">
<style type="text/css">
	.st0{fill:#F5E929;}
	.st1{fill:#FFFFFF;}
	
		.st2{clip-path:url(#SVGID_00000022554095302659193930000000637273371853163676_);fill:url(#SVGID_00000023970912900001205340000000895124940772283290_);}
	.st3{fill:url(#SVGID_00000168103716337597529870000002952469583056887715_);}
	.st4{fill:url(#SVGID_00000024724211119513161740000017254715353337659285_);}
	.st5{fill:url(#SVGID_00000155115035144389120340000017647851617935375548_);}
	.st6{fill:url(#SVGID_00000088113202761905874920000016756127616100395916_);}
	.st7{fill:url(#SVGID_00000097493907229228421150000011682630723227910041_);}
</style>
<g>
	<g>
		
			<image style="overflow:visible;opacity:0.2;" width="909" height="485" xlink:href="E7EF1D3433915CEA.png"  transform="matrix(0.24 0 0 0.24 0 0)">
		</image>
		<path class="st0" d="M202,52.5l-15-21.4c-1.4-2.1-4.7-3.7-7.2-3.7H88.3C78.7,18,64.9,13.2,50.7,15.7c-23.5,4.1-39.1,26.5-35,50
			c4.1,23.5,26.5,39.1,50,35c11.1-2,20.5-8,26.8-16.4h87.2c2.5,0,5.8-1.7,7.2-3.7l14.9-20.7C203.4,57.9,203.4,54.5,202,52.5z"/>
	</g>
</g>
<g>
	<path class="st1" d="M43.6,204v3.8h-1.5V184c-2,4.3-4.7,8.5-7.8,12.4l-1.2-0.9c5.5-6.8,9.5-14.8,12-24.1h-8.7v-1.5h9.1
		c0.9-3.7,1.6-7.7,2.1-11.9H34.4v-1.5h13.3c0.3-3.5,0.5-7.2,0.5-11.1H37.1v-1.5h29.2v12.7h4.2v1.5h-4.2v13.4H46.7
		c-1,3.7-2.1,6.9-3.2,9.6h23.2v26.8h-1.5V204H43.6z M65.1,182.6H43.6v19.9h21.5V182.6z M47.1,169.9h17.6V158H49.1
		C48.7,162.2,48,166.2,47.1,169.9 M64.7,145.4h-15c0,3.9-0.2,7.6-0.5,11.1h15.4V145.4z M105,187.9v1.5H88.1v19.2h-1.5v-19.2H68.9
		v-1.5h17.6v-16.5H70.8v-1.5h15.7v-15.7H69.7v-1.5h22.9c2-4.4,3.8-8.6,5.1-12.5l1.4,0.5c-1.4,3.9-3,7.9-4.8,12h9.9v1.5H88.1v15.7h15
		v1.5h-15v16.5H105z M75.9,140.7l1.4-0.6c1.8,3.9,3.4,7.5,4.6,10.7l-1.4,0.6C79,147.5,77.5,143.9,75.9,140.7"/>
	<path class="st1" d="M115.4,206.3c3-5.5,5.6-11.5,7.7-17.9l1.4,0.5c-2.3,7-4.9,13-7.7,18.2L115.4,206.3z M123,183.3v-39.5h54.1v1.5
		h-27.2v10.7h24.9v1.5h-24.9v11.1h24.9v1.5h-24.9v11.5h30.7v0.8c0,9.2-0.7,15.7-2,19.4c-1.3,3.7-3.6,5.6-6.9,5.6
		c-2.9,0-6.3-0.3-10.4-0.8l0.2-1.5c4.7,0.5,8.1,0.8,10.3,0.8c1.1,0,2-0.2,2.7-0.7c0.7-0.4,1.5-1.4,2.2-2.8c0.8-1.4,1.4-3.7,1.8-6.9
		c0.4-3.2,0.6-7.3,0.6-12.3H123z M148.3,145.4h-23.8v10.7h23.8V145.4z M148.3,157.6h-23.8v11.1h23.8V157.6z M148.3,170.3h-23.8v11.5
		h23.8V170.3z M133.7,189.2l1.5-0.3c1.3,5.4,2.4,10.7,3.1,15.8l-1.5,0.2C136.1,199.9,135.1,194.7,133.7,189.2 M148.4,188.4l1.4-0.5
		c2.1,5.3,3.7,9.7,4.7,13.3l-1.5,0.5C151.6,197.2,150.1,192.8,148.4,188.4 M163,187.9l1.4-0.8c2.4,3.9,4.4,7.5,6.1,10.7l-1.4,0.8
		C167.3,195.3,165.3,191.8,163,187.9"/>
	<path class="st1" d="M228.5,147.7h-15v21.9h11.9v1.5h-11.9v27.7c6.4-1.9,11.3-3.6,14.7-5l0.6,1.4c-7.6,3.3-19.2,6.6-34.7,10
		l-0.3-1.5c0.5-0.1,1.5-0.3,3.1-0.7c1.6-0.4,2.8-0.6,3.6-0.8v-41.4h1.5v41c1.5-0.4,4.9-1.2,10-2.6v-51.5h-16.5v-1.5h33V147.7z
		 M236.2,158.1l1.5-0.2c1.5,12.6,4.7,22.6,9.4,30c6.3-8.3,10.2-19.8,11.6-34.5h-22.1c-2.6,8-5.5,15.1-9,21.1l-1.4-0.8
		c5.5-9.6,9.6-20.8,12.2-33.5l1.5,0.3c-0.7,3.5-1.7,7.3-2.9,11.4h29.4v1.5h-6.2c-1.4,15.4-5.4,27.4-12.2,35.9
		c4.2,6,10.2,11.5,18,16.4l-0.8,1.2c-8-5-14.1-10.5-18.3-16.4c-5.5,6.6-13.5,12.1-24,16.5l-0.6-1.4c10.3-4.3,18.2-9.8,23.7-16.4
		C241,181.5,237.7,171.1,236.2,158.1"/>
	<path class="st1" d="M299.9,162.5l1.4-0.6c2.6,6.3,4.5,12.5,5.8,18.6l-1.5,0.3c-0.7-2.7-1.1-4.4-1.2-5.1l-11.8,0.6v32.3H291v-32.2
		l-14.5,0.8l-0.2-1.5l5-0.2c1-1.1,3.1-3.6,6.1-7.4c-3.7-6.6-7-12.1-9.7-16.6l1.2-0.8c0.2,0.4,0.5,0.9,1,1.6c0.5,0.7,0.9,1.4,1.3,2
		c0.4,0.6,0.8,1.2,1.1,1.8c2.9-4,6.2-9.2,9.9-15.4l1.4,0.8c-3,5.2-6.5,10.5-10.4,16c3.2,5.4,5,8.5,5.4,9.2
		c4.8-6.1,9.2-12.5,13.3-19.1l1.4,0.8c-5.7,9.3-12.2,18.2-19.7,26.8l20.5-1.1C302.9,170.5,301.5,166.6,299.9,162.5 M277.3,203.4
		c2.7-7.1,4.3-14.3,4.9-21.7l1.5,0.2c-0.6,7.2-2.3,14.5-5.1,22L277.3,203.4z M299.4,181.6l1.5-0.3c1.4,5.7,2.5,11.6,3.1,17.7
		l-1.5,0.2C301.9,193.6,300.9,187.7,299.4,181.6 M327.1,204.4h19.2v1.5h-42.6v-1.5h21.9V186h-17.3v-1.5h17.3v-11.9h1.5v11.9h16.9
		v1.5h-16.9V204.4z M311.5,149.3l1.2-0.9c4.2,5.9,9.1,11.1,14.7,15.7c6.1-4.7,10.9-10.8,14.5-18.3H306v-1.5h37.6v1.5
		c-3.6,7.8-8.6,14.3-15,19.3c5.3,4.2,11,7.8,17.2,10.7l-0.6,1.4c-6.3-3-12.3-6.6-17.8-11c-4.8,3.6-11,6.8-18.5,9.5l-0.5-1.4
		c7-2.5,12.9-5.5,17.7-9.1C320.5,160.4,315.6,155.1,311.5,149.3"/>
	<path class="st1" d="M356.8,205c4.9-4.9,8.4-10.4,10.6-16.6l1.4,0.5c-2.3,6.5-5.9,12.2-10.9,17.2L356.8,205z M375.9,148.9l1.2-0.9
		c1.1,1.5,2.4,3.7,4.1,6.4c2.7-1.5,5-3.2,7.1-5l1.1,1.2c-2.4,2.1-5.5,4.2-9.4,6.2c2.6,2,4.7,4.6,6.2,7.8c1.5,3.1,2.3,6.5,2.3,9.9
		c0,3.7-0.4,6.1-1.1,7.4c-0.7,1.2-2.4,1.8-5,1.8c-1.7,0-4.5-0.1-8.5-0.4l0.2-1.5c4,0.3,6.8,0.4,8.4,0.4c1.9,0,3.2-0.4,3.8-1.2
		c0.6-0.8,0.8-3,0.8-6.5c0-1.3-0.1-2.6-0.4-4.1c-6.4,5.1-15.6,9.3-27.4,12.5l-0.5-1.5c12-3.2,21.2-7.4,27.5-12.7
		c-0.5-1.7-1.3-3.6-2.5-5.7c-5.8,4.3-14,7.9-24.5,10.7l-0.5-1.5c10.5-2.9,18.6-6.3,24.1-10.4c-1.3-1.7-2.7-3.1-4.3-4.2
		c-5.4,2.7-11.9,5-19.3,7l-0.5-1.5c4.2-1.1,7.4-2.1,9.7-2.9c-1.6-3.1-3.2-5.8-4.8-8.1l1.2-0.9c1.5,2.3,3.2,5.1,5,8.5
		c3.9-1.5,7.3-3,10-4.4C378.6,152.7,377.2,150.7,375.9,148.9 M360.3,148c11.7-1.7,20.5-4,26.6-6.8l0.6,1.4c-6.3,3-15.4,5.3-27.1,7
		L360.3,148z M377.3,187.2h1.5v10.7v3.3c0,0.6,0.1,1.3,0.2,2.1c0.1,0.8,0.2,1.2,0.3,1.4c0.1,0.2,0.4,0.4,0.9,0.7
		c0.5,0.3,0.9,0.4,1.3,0.4c0.4,0,1,0.1,2,0.2c3.1,0.3,6.2,0.4,9.5,0.4c3.2,0,6.3-0.1,9.5-0.4c1.7-0.2,2.9-0.3,3.5-0.3
		c0.7-0.1,1.4-0.3,2.3-0.7c0.8-0.4,1.4-0.7,1.6-1c0.2-0.3,0.5-0.9,0.8-2c0.4-1.1,0.6-2.1,0.7-3c0.1-0.9,0.2-2.4,0.4-4.6l1.5,0.2
		c-0.2,2.3-0.4,3.9-0.5,5c-0.1,1.1-0.4,2.2-0.8,3.3c-0.4,1.1-0.7,1.9-1,2.3c-0.3,0.4-0.9,0.8-1.8,1.2c-0.9,0.4-1.8,0.7-2.6,0.8
		c-0.9,0.1-2.2,0.2-3.9,0.4c-3.2,0.3-6.4,0.4-9.7,0.4c-3.3,0-6.5-0.1-9.7-0.4c-2.9-0.3-4.6-0.9-5.2-1.8c-0.6-1-0.9-3.6-0.9-7.7
		V187.2z M385.7,187.1l0.8-1.4c5.4,3.1,10.6,6.7,15.4,10.8l-0.9,1.2C396.5,193.9,391.4,190.3,385.7,187.1 M412.1,173.9
		c4,3.6,8.8,6.4,14.2,8.4l-0.5,1.4c-5.3-1.8-9.9-4.5-14-7.9c-4-3.5-7.1-7.4-9.3-11.9h-8V181c5.2-1.1,10.4-2.5,15.5-4.2l0.5,1.5
		c-7.2,2.4-14.5,4.1-21.9,5.4l-0.3-1.5c1.2-0.2,2.8-0.4,4.8-0.8v-38.3h29.2v20.7h-18c1.6,3.1,3.8,6.1,6.7,9c5-2.5,9.4-5.7,13.4-9.5
		l1.1,1.1C421.5,168,417.1,171.2,412.1,173.9 M394.6,152.6h26.1v-8.1h-26.1V152.6z M420.6,154.2h-26.1v8.1h26.1V154.2z M413.5,187.2
		l1.2-0.9c4.5,6,8.4,12.2,11.6,18.6l-1.4,0.6C421.9,199.5,418.1,193.4,413.5,187.2"/>
	<path class="st1" d="M439.1,154.2h26.8v1.5h-26.8V154.2z M441.4,143.8h23v1.5h-23V143.8z M442.9,205.2v3.8h-1.5v-22.6h23v18.8
		H442.9z M441.7,164.9H464v1.5h-22.2V164.9z M441.7,175.7H464v1.5h-22.2V175.7z M442.9,203.7h19.9v-15.7h-19.9V203.7z M503.3,142.7
		l0.5,1.5c-5.1,1.5-10.4,2.7-16,3.8v15h18v1.5h-18V178h15.7v29.9H502v-4.6H472v4.6h-1.5V178h15.7v-13.4h-18.8V163h18.8v-14.7
		c-5.6,1-11.4,1.7-17.2,2.1l-0.2-1.5C480.8,148,492.2,145.9,503.3,142.7 M502,179.5H472v22.2H502V179.5z"/>
	<path class="st1" d="M553.6,140.4c9.7,8.5,20.9,16.2,33.5,23.1l-0.8,1.4c-12.2-6.6-23.5-14.4-33.8-23.3
		c-10.3,8.9-21.5,16.7-33.8,23.3l-0.8-1.4c12.6-6.9,23.8-14.6,33.5-23.1H553.6z M568.1,185.3l1.2-0.9c5.3,7.4,10.4,15.1,15.3,23.1
		l-1.2,0.8c-0.6-1-2.3-3.6-5.1-8c-19.2,3.3-37.7,5.3-55.6,6.1v-1.5c2.2-0.1,5.9-0.3,11-0.6c3.8-8,7.2-16.5,10.2-25.5h-22.7v-1.5H584
		v1.5h-38.6c-3.3,9.7-6.6,18.1-10,25.4c13.3-1,27.3-2.7,42-5.2C574.9,195.1,571.8,190.6,568.1,185.3 M531.1,163.4h43v1.5h-43V163.4z
		"/>
</g>
<g>
	<defs>
		<path id="SVGID_1_" d="M103.1,54.3l0.1,0.7l5.6-1.2c-0.5,0.8-1.1,1.4-1.8,2c-0.9-0.2-1.6-0.6-2.3-1.1l-0.6,0.5
			c0.6,0.4,1.3,0.8,2.1,1.1c-0.8,0.6-1.9,1.1-3.1,1.5l0.4,0.6c1.5-0.6,2.7-1.2,3.6-1.9c1.2,0.2,2.5,0.3,4.1,0.3l0.1-0.7
			c-1.3,0.1-2.5,0-3.4-0.2c0.9-0.7,1.5-1.6,1.9-2.4l-0.1-0.7L103.1,54.3z M92.9,55.4l2.2-0.5l0.5,2.2l-2.2,0.5L92.9,55.4z
			 M92.2,52.1c0.1-0.4,0.1-0.8,0.1-1l-0.8,0c-0.1,1.6-0.5,3.2-1.1,4.7l0.8,0.3c0.4-1,0.7-2.1,1-3.2l2.5-0.5l0.4,1.8l-3,0.6l0.6,2.9
			l-1.9,0.4l0.2,0.7l4.9-1l0.5,2.4l0.8-0.2l-0.5-2.4l3.9-0.8l-0.2-0.7l-3.9,0.8L96,54.7l3-0.6l-0.1-0.7l-3,0.6l-0.4-1.8l3.4-0.7
			l-0.2-0.7L92.2,52.1z M31.1,49.3c-2.2,0.5-3.8,1.7-4.9,3.6c-1.1,1.9-1.3,4.3-0.7,7.2l5.5-1.2c-0.1-0.2-0.1-0.4-0.2-0.5
			c0-0.1-0.1-0.3-0.1-0.4c0,0,0,0,0-0.1c-0.2-0.9-0.2-1.7,0.1-2.3c0.3-0.6,0.7-1,1.4-1.1c0.6-0.1,1.2,0.1,1.7,0.6
			c0.6,0.5,0.9,1.2,1.1,2c0.1,0.6,0.2,1.2,0.1,1.9c-0.1,0.7-0.2,1.4-0.3,2.1c-0.2,0.7-0.4,1.4-0.6,2c-0.2,0.7-0.5,1.3-0.7,2
			c-0.2,0.6-0.5,1.2-0.8,1.8c-0.3,0.5-0.5,1-0.7,1.5l-3.5,7.4l15.3-3.3l-1.1-5.3l-6.2,1.3l2.4-4.4c0.1-0.3,0.3-0.5,0.4-0.8
			c0.1-0.3,0.2-0.5,0.3-0.8c0.4-1.1,0.7-2.1,0.8-3.1c0.1-1,0-2.1-0.2-3.2c-0.5-2.5-1.6-4.4-3.4-5.7c-1.3-1-2.7-1.5-4.2-1.5
			C32.1,49.1,31.7,49.2,31.1,49.3 M104.5,51.6l3-0.6l0.2,1.1l-3,0.6L104.5,51.6z M101.7,50.5l1.6-0.3l0.2,0.9l-1.6,0.3L101.7,50.5z
			 M104.1,50l3-0.6l0.2,0.9l-3,0.6L104.1,50z M104.5,48.3l0.2,0.9l-4,0.8l0.7,3.1c0.2,1.1,0.4,2.1,0.4,2.9c0,0.8,0,1.6-0.2,2.3
			l0.7,0.5c0.4-1.5,0.4-3.3-0.1-5.4l-0.3-1.3l1.6-0.3l0.4,1.7l4.7-1l-0.4-1.7l1.7-0.4l-0.1-0.7l-1.7,0.4l-0.2-0.9l1.7-0.4l-0.1-0.7
			l-3.9,0.8l-0.2-0.9L104.5,48.3z M48.4,64.7c-0.9-1.2-1.6-2.9-2-5.1c-0.5-2.2-0.6-4-0.2-5.5c0.3-1.5,0.9-2.3,1.9-2.5
			c0.9-0.2,1.8,0.3,2.7,1.6c0.9,1.2,1.5,3,2,5.1c0.5,2.2,0.5,4,0.3,5.5c-0.3,1.5-0.9,2.3-1.8,2.5c-0.1,0-0.3,0-0.4,0
			C50,66.3,49.2,65.8,48.4,64.7 M46.9,46c-1.2,0.3-2.2,0.8-3.1,1.6c-0.9,0.8-1.6,1.9-2.1,3.3c-0.5,1.3-0.8,2.8-0.8,4.3
			c0,1.5,0.1,3.3,0.6,5.3c0.4,2,1,3.6,1.6,5c0.7,1.4,1.5,2.6,2.5,3.7c1,1.1,2.1,1.8,3.2,2.2c1.1,0.4,2.3,0.5,3.5,0.2
			c1.2-0.3,2.2-0.8,3.1-1.6c0.9-0.8,1.5-1.9,2.1-3.3c0.5-1.4,0.8-2.8,0.8-4.4c0-1.6-0.2-3.3-0.6-5.3c-0.4-2-1-3.7-1.6-5.1
			c-0.7-1.4-1.5-2.6-2.5-3.6c-1-1.1-2.1-1.8-3.2-2.2c-0.7-0.3-1.4-0.4-2.1-0.4C47.8,45.9,47.3,45.9,46.9,46 M62.6,42.6
			c-2.2,0.5-3.8,1.7-4.9,3.6c-1.1,1.9-1.3,4.3-0.7,7.2l5.5-1.2c-0.1-0.2-0.1-0.4-0.2-0.5c0-0.1-0.1-0.3-0.1-0.4c0,0,0,0,0-0.1
			C62,50.4,62,49.6,62.3,49c0.3-0.6,0.7-1,1.4-1.1c0.6-0.1,1.2,0.1,1.7,0.6c0.6,0.5,0.9,1.2,1.1,2c0.1,0.6,0.2,1.2,0.1,1.9
			c-0.1,0.7-0.2,1.4-0.3,2.1c-0.2,0.7-0.3,1.4-0.6,2c-0.2,0.7-0.5,1.3-0.7,2c-0.2,0.6-0.5,1.2-0.7,1.8c-0.3,0.5-0.5,1-0.7,1.5
			L60,69.1l15.3-3.3l-1.1-5.3l-6.2,1.3l2.4-4.4c0.1-0.3,0.3-0.5,0.4-0.8c0.1-0.3,0.2-0.5,0.3-0.8c0.4-1.1,0.7-2.1,0.8-3.1
			c0.1-1,0-2.1-0.2-3.2c-0.5-2.5-1.6-4.4-3.4-5.7c-1.3-1-2.7-1.5-4.2-1.5C63.6,42.4,63.1,42.5,62.6,42.6 M78.4,39.2
			c-2.2,0.5-3.8,1.7-4.9,3.6c-1.1,1.9-1.3,4.3-0.7,7.2l5.5-1.2c-0.1-0.2-0.1-0.4-0.2-0.5c0-0.1-0.1-0.3-0.1-0.4c0,0,0,0,0-0.1
			c-0.2-0.9-0.2-1.7,0.1-2.3c0.3-0.6,0.7-1,1.4-1.1c0.6-0.1,1.2,0.1,1.7,0.6c0.6,0.5,0.9,1.2,1.1,2c0.1,0.6,0.2,1.2,0.1,1.9
			c-0.1,0.7-0.2,1.4-0.3,2.1c-0.2,0.7-0.3,1.4-0.6,2c-0.2,0.7-0.5,1.3-0.7,2c-0.2,0.6-0.5,1.2-0.8,1.7c-0.3,0.5-0.5,1-0.7,1.5
			l-3.5,7.4L91,62.5l-1.1-5.3l-6.2,1.3l2.4-4.4c0.1-0.3,0.3-0.5,0.4-0.8c0.1-0.3,0.2-0.5,0.3-0.8c0.4-1.1,0.7-2.1,0.8-3.1
			c0.1-1,0-2.1-0.2-3.2c-0.5-2.5-1.6-4.4-3.4-5.7c-1.3-1-2.7-1.5-4.2-1.5C79.4,39.1,78.9,39.1,78.4,39.2"/>
	</defs>
	<clipPath id="SVGID_00000092443942852969345620000008073211986481133455_">
		<use xlink:href="#SVGID_1_"  style="overflow:visible;"/>
	</clipPath>
	
		<linearGradient id="SVGID_00000167367060321643743970000003979724491685952416_" gradientUnits="userSpaceOnUse" x1="7.1476" y1="537.1071" x2="7.9542" y2="537.1071" gradientTransform="matrix(1.5121 43.2992 43.2992 -1.5121 -23199.623 542.1437)">
		<stop  offset="0" style="stop-color:#178FC9"/>
		<stop  offset="0.5443" style="stop-color:#178FC9"/>
		<stop  offset="0.7257" style="stop-color:#178EC8"/>
		<stop  offset="0.8176" style="stop-color:#1489C4"/>
		<stop  offset="0.8893" style="stop-color:#1181BE"/>
		<stop  offset="0.9503" style="stop-color:#0E76B6"/>
		<stop  offset="1" style="stop-color:#0C68AC"/>
	</linearGradient>
	
		<polygon style="clip-path:url(#SVGID_00000092443942852969345620000008073211986481133455_);fill:url(#SVGID_00000167367060321643743970000003979724491685952416_);" points="
		111.2,36.1 112.6,75.8 25,78.8 23.6,39.1 	"/>
</g>
<g>
	<path class="st1" d="M51.3,121c1.8-2.5,4.1-3.8,7-3.8c2,0,3.9,0.7,5.6,2.2c1.2,1,2.4,1.5,3.5,1.5c0.8,0,1.6-0.2,2.3-0.6
		c0.7-0.4,1.4-1.1,2.3-2.2l2.5,2.2c-1.8,2.5-4.1,3.8-7,3.8c-2,0-3.9-0.7-5.6-2.2c-1.2-1-2.4-1.5-3.5-1.5c-0.8,0-1.6,0.2-2.3,0.6
		c-0.7,0.4-1.4,1.1-2.3,2.2L51.3,121z"/>
	<path class="st1" d="M80.7,121c-1.5-1.4-3-2.6-4.7-3.9l1.9-2.3c1.5,1,3,2.3,4.7,3.8L80.7,121z M83,123.6c-0.9,3.2-2.1,6-3.7,8.4
		l-2.7-1.7c1.5-2.3,2.7-4.9,3.6-7.8L83,123.6z M77.3,111.6l1.9-2.3c1.4,1,2.8,2.1,4.2,3.4l-1.9,2.3
		C80.3,113.9,78.9,112.8,77.3,111.6z M82.2,131.9l-0.3-2.7c1.1-0.2,2-0.3,2.4-0.3v-8h3.3v1.9H91v2.7h-3.4v2.8c1-0.2,2.1-0.5,3.3-0.8
		l0.4,2.7C88.2,131,85.2,131.6,82.2,131.9z M87.5,120h-3.2v-10.2h14.5V120H87.5z M87.5,113.9h8v-1.5h-8V113.9z M87.5,116.1v1.6h8
		v-1.6H87.5z M95.8,131.7c-0.5,0-1.1,0-1.8-0.1c-1-0.1-1.6-0.2-1.8-0.4c-0.2-0.2-0.4-0.7-0.4-1.4v-9h3.3v2.2
		c1.2-0.5,2.5-1.1,3.9-1.9l1.1,2.4c-1.7,0.9-3.4,1.7-5.1,2.2v2.8c0,0.2,0,0.4,0.1,0.4c0,0,0.2,0.1,0.4,0.1c0.1,0,0.1,0,0.2,0
		c0.1,0,0.2,0,0.3,0c0.1,0,0.2,0,0.3,0c0.1,0,0.2,0,0.3,0c0.1,0,0.2,0,0.3,0c0.1,0,0.1-0.1,0.2-0.1c0.1-0.1,0.1-0.2,0.1-0.3
		c0-0.1,0.1-0.3,0.1-0.5c0-0.2,0-0.5,0.1-0.8c0-0.3,0-0.7,0.1-1.3v0l2.7,0.4c-0.1,0.9-0.1,1.6-0.1,2.1c0,0.5-0.1,1-0.2,1.4
		s-0.2,0.8-0.3,1c-0.1,0.2-0.2,0.4-0.4,0.5c-0.2,0.2-0.4,0.2-0.6,0.3c-0.2,0-0.5,0.1-0.9,0.1C96.9,131.7,96.3,131.7,95.8,131.7z"/>
	<path class="st1" d="M106.3,120.9c-1.4-1.2-3-2.4-4.8-3.7l1.8-2.3c1.8,1.2,3.4,2.4,4.8,3.6L106.3,120.9z M108.6,123.4
		c-0.9,3.2-2.2,6.1-3.8,8.6l-2.7-1.7c1.5-2.4,2.7-5,3.7-8L108.6,123.4z M122.3,125.2l3.2,0.7c-0.1,1-0.1,1.8-0.2,2.4
		c-0.1,0.6-0.2,1.1-0.3,1.6s-0.4,0.9-0.5,1.1c-0.2,0.2-0.5,0.4-1,0.5c-0.5,0.2-1,0.3-1.5,0.3s-1.2,0-2.2,0c-0.8,0-1.5,0-2,0
		s-0.9-0.1-1.3-0.2s-0.7-0.2-0.9-0.3c-0.2-0.1-0.3-0.3-0.5-0.6c-0.1-0.3-0.2-0.6-0.2-0.9s0-0.7,0-1.2v-3.7h-2.2v2.6h-3.1v-11.1h3.1
		v5.8h2.2v-7.3c-2.1,0.2-4,0.3-5.8,0.3l-0.3-2.5l-1.5,2.2c-1.4-1.1-2.9-2.1-4.5-3.1l1.7-2.4c1.5,0.9,2.9,1.9,4.3,2.9
		c2.2-0.1,4.2-0.2,6.2-0.4v-2.7h3.4v2.3c2.5-0.4,4.5-0.7,6-1.2l0.7,2.9c-1.7,0.5-4,0.9-6.6,1.3v7.7h2.6V116h3.2v9h-5.9v3.2
		c0,0.4,0.1,0.6,0.3,0.7c0.2,0.1,0.8,0.1,1.8,0.1c0.9,0,1.5-0.2,1.7-0.5S122.3,127.1,122.3,125.2z"/>
	<path class="st1" d="M141,127.7c1.8-0.2,3.3-1,4.3-2.2c1-1.2,1.5-2.8,1.5-4.9c0-1.8-0.5-3.2-1.6-4.4c-1.1-1.2-2.5-1.9-4.2-2.2
		c-0.4,3.2-0.9,5.9-1.4,8.1c-0.5,2.2-1.2,3.8-1.8,5c-0.7,1.1-1.3,1.9-2,2.4c-0.7,0.4-1.5,0.7-2.3,0.7c-1.4,0-2.6-0.8-3.8-2.4
		s-1.7-3.5-1.7-5.8c0-3.3,1.1-5.9,3.3-8c2.2-2,5.1-3.1,8.7-3.1c2.9,0,5.3,0.9,7.2,2.7c1.9,1.8,2.9,4.1,2.9,7c0,2.9-0.7,5.3-2.2,7.1
		c-1.5,1.8-3.5,2.8-6,3L141,127.7z M137.6,114.2c-2,0.4-3.6,1.3-4.8,2.7c-1.2,1.4-1.7,3.1-1.7,5.1c0,1.3,0.3,2.4,0.8,3.4
		c0.5,1,1,1.5,1.5,1.5c0.2,0,0.5-0.1,0.7-0.3c0.3-0.2,0.5-0.6,0.8-1.3c0.3-0.6,0.6-1.4,0.9-2.3c0.3-0.9,0.6-2.2,0.9-3.7
		C137,117.9,137.3,116.1,137.6,114.2z"/>
	<path class="st1" d="M175.9,118.9h-2.3v2h2.3v2.7h-2.3v4.2c0,0.7,0,1.3,0,1.7s-0.1,0.8-0.2,1.1c-0.1,0.4-0.2,0.6-0.4,0.8
		c-0.2,0.2-0.4,0.3-0.7,0.4c-0.3,0.1-0.7,0.2-1.1,0.2s-0.9,0-1.6,0c-0.5,0-1.5,0-3.1-0.1l-0.2-2.7c1.4,0.1,2.3,0.1,2.7,0.1
		c0.7,0,1.1,0,1.2-0.2s0.2-0.5,0.2-1.1v-4.4H164c1.2,1.1,2.4,2.3,3.5,3.7l-2.3,2c-1.2-1.4-2.4-2.7-3.7-3.9l2-1.8h-2.5v6.4h-5v1.4h-3
		v-21.3h8v6h5.9v-2.3h-4.9v-2.7h4.9v-2.4h3.3v2.4h4.7v2.7h-4.7v2.3h5.6V118.9z M156.1,118.5h2.1V113h-2.1V118.5z M156.1,121.2v6h2.1
		v-6H156.1z M161.1,118.9v2h9.2v-2H161.1z"/>
	<path class="st1" d="M183.6,116.1v16.1h-3.3v-10.9c-0.6,1-1.2,1.7-1.6,2.2l-1.4-3.2c2.6-3.1,4.3-6.8,5.2-11.1l3.1,0.6
		C185.3,112,184.6,114.1,183.6,116.1z M190.4,109.2h3.3c0,2.1,0.1,4,0.2,5.8l7.1-0.6l0.2,2.9l-6.9,0.6c0.3,2.2,0.7,4.2,1.2,5.9
		s1,2.9,1.4,3.7c0.4,0.8,0.8,1.1,1.1,1.1c0.1,0,0.2-0.1,0.3-0.3s0.2-0.6,0.3-1.2c0.1-0.6,0.3-1.5,0.4-2.6l2.6,1.1
		c-0.2,2.3-0.7,4-1.3,5c-0.6,1-1.4,1.5-2.2,1.5c-0.6,0-1.1-0.1-1.7-0.4c-0.5-0.2-1.1-0.7-1.7-1.3c-0.6-0.7-1.1-1.5-1.6-2.5
		c-0.5-1-0.9-2.4-1.3-4.1c-0.4-1.7-0.7-3.6-1-5.8l-6.1,0.6l-0.2-2.9l6-0.6C190.5,113.6,190.4,111.6,190.4,109.2z M194.7,110.5
		l2.1-1.9c1.3,1.1,2.6,2.3,3.9,3.7l-2.1,1.9C197.3,112.9,196,111.7,194.7,110.5z"/>
	<path class="st1" d="M223.4,127.7l0.3,2.9c-2.2,0.3-4.4,0.5-6.6,0.5c-3.2,0-5.5-0.4-6.9-1.1s-2.1-1.9-2.1-3.5
		c0-1.3,0.6-2.4,1.8-3.5c1.2-1.1,2.9-2,5.3-2.7c-0.4-0.8-1.1-1.2-2.2-1.2c-1.8,0-3.9,1.7-6.4,5.1l-2.7-1.6c2-2.8,3.5-5.4,4.6-7.8
		h-4.3V112h5.4c0.3-0.9,0.7-1.8,1-2.8l3.3,0.6c-0.2,0.6-0.5,1.3-0.8,2.2h10.5v2.7h-11.6c-0.2,0.5-0.5,1.2-1,2.1l0,0.1
		c0.9-0.4,1.8-0.6,2.6-0.6c2.3,0,3.8,1,4.6,3c1.8-0.4,3.6-0.7,5.4-0.9l0.3,2.8c-1.5,0.2-3.1,0.4-5,0.8c0.2,1.1,0.2,2.4,0.2,3.9h-3.4
		c0-1.3,0-2.3-0.1-3.1c-1.4,0.5-2.4,1-3.2,1.5c-0.7,0.5-1.1,1.1-1.1,1.6c0,0.5,0.1,0.9,0.4,1.2c0.3,0.3,0.8,0.5,1.6,0.7
		c0.8,0.2,2,0.3,3.5,0.3C218.8,128.3,220.9,128.1,223.4,127.7z"/>
	<path class="st1" d="M228.5,116.3v-2.7h8.9v2.7H228.5z M229.2,112.5v-2.6h7.9v2.6H229.2z M251.3,118.5v5.5h-3.1v-3h-7.4v1.1h2.8
		c0,2-0.2,3.7-0.5,5c-0.4,1.3-0.9,2.4-1.6,3.1c-0.7,0.8-1.7,1.5-2.9,2.1l-1.5-2.4v1.4H232v0.9h-2.8v-7.7h7.9v5c1-0.5,1.8-1.2,2.3-2
		c0.5-0.8,0.8-1.9,1-3.3h-2.6v-5.8H251.3z M229.4,119.9v-2.5h7.6v2.5H229.4z M229.4,123.4V121h7.6v2.5H229.4z M232,128.9h2.5v-2H232
		V128.9z M251.7,110.8v2.7h-5.5v1.4h4.6v2.6h-12.1v-2.6h4.2v-1.4h-5v-2.7h5v-1.9h3.3v1.9H251.7z M244.4,122.1h3.1v6.6
		c0,0.3,0,0.4,0.1,0.5c0.1,0.1,0.2,0.1,0.5,0.1c0.4,0,0.6-0.2,0.7-0.5c0.1-0.3,0.1-1.4,0.2-3.1l2.8,0.4c0,0.8-0.1,1.5-0.1,2
		c0,0.5-0.1,0.9-0.1,1.4s-0.1,0.9-0.2,1.1c-0.1,0.2-0.2,0.5-0.3,0.7c-0.2,0.2-0.3,0.4-0.4,0.5c-0.1,0.1-0.4,0.1-0.7,0.2
		c-0.3,0.1-0.6,0.1-0.9,0.1c-0.3,0-0.7,0-1.2,0c-0.6,0-1.1,0-1.4,0s-0.7-0.1-1-0.1c-0.3-0.1-0.5-0.2-0.6-0.3
		c-0.1-0.1-0.2-0.3-0.3-0.5c-0.1-0.2-0.2-0.5-0.2-0.8c0-0.3,0-0.7,0-1.2V122.1z"/>
	<path class="st1" d="M256.2,113.7v-2.9h10.5v2.9c-0.1,0.9-0.3,2.4-0.6,4.5c1.2,0.1,2.5,0.3,4,0.6c0-1.1,0.1-3.1,0.1-6h3.2
		c0,2.5,0,4.8-0.1,7c1.3,0.5,2.7,1.2,4,2l-1.4,2.7c-0.9-0.6-1.9-1.1-2.8-1.5c-0.2,1.3-0.4,2.4-0.6,3.2c-0.3,0.9-0.6,1.6-1.1,2.3
		c-0.5,0.7-1,1.2-1.6,1.6c-0.6,0.4-1.4,0.9-2.4,1.5l-1.6-2.7c0.8-0.4,1.4-0.8,1.8-1.1c0.4-0.3,0.8-0.7,1.2-1.2
		c0.4-0.5,0.7-1.1,0.8-1.9c0.2-0.7,0.3-1.7,0.4-2.8c-1.5-0.4-2.9-0.7-4.2-0.7c-0.3,1.6-0.6,3-0.9,4.2c-0.3,1.1-0.6,2.1-0.9,2.8
		c-0.3,0.7-0.7,1.2-1.1,1.6c-0.4,0.4-0.8,0.7-1.2,0.8c-0.4,0.1-0.9,0.2-1.5,0.2c-1.4,0-2.7-0.7-3.9-2c-1.2-1.3-1.8-2.8-1.8-4.4
		c0-1.6,0.7-2.9,2.2-4.1c1.5-1.1,3.6-1.8,6.2-2.1c0.2-1.6,0.4-3.1,0.5-4.6H256.2z M262.4,121.2c-1.5,0.2-2.7,0.6-3.5,1.2
		c-0.8,0.6-1.2,1.2-1.2,2c0,0.7,0.3,1.4,0.8,2.1c0.5,0.7,1,1,1.5,1C260.9,127.5,261.7,125.4,262.4,121.2z"/>
	<path class="st1" d="M299,125.4h3.6v2.8H299v4h-3.3v-4h-4.9v-2.8h4.9v-2.5h-2.5c-0.3,0.7-0.6,1.4-1,2.2l-2-0.8v3.7
		c0,1,0,1.8-0.1,2.3c0,0.5-0.1,0.9-0.3,1.2c-0.2,0.3-0.4,0.5-0.6,0.5c-0.2,0.1-0.6,0.1-1.2,0.1c-0.5,0-1.6,0-3.3-0.1l-0.2-2.7
		c1.3,0.1,2,0.1,2.2,0.1c0.3,0,0.5-0.1,0.6-0.2c0.1-0.1,0.1-0.4,0.1-1v-1.6h-4.9c-0.3,2.3-0.7,4.2-1.2,5.6l-2.6-2.2
		c0.5-1.2,0.8-2.6,1-4.1c0.2-1.6,0.3-4,0.3-7.4v-1.4l-1.2-0.8c1.5-2.3,2.5-4.9,3.1-8l3.1,0.3c-0.1,0.3-0.1,0.7-0.3,1.3h4.1v2.6
		c-0.2,0.6-0.4,1.2-0.7,1.8h2.1v2.4c1.9-1,3-2.5,3.4-4.3h-3v-2.8h11.7c-0.1,1.4-0.1,2.5-0.1,3.3c0,0.8-0.1,1.6-0.2,2.3
		c-0.1,0.7-0.2,1.2-0.3,1.5c-0.1,0.3-0.3,0.6-0.5,0.8c-0.2,0.2-0.5,0.3-0.7,0.4c-0.3,0-0.6,0.1-1,0.1c-0.7,0-1.9,0-3.5-0.1l-0.2-2.2
		c-0.6,1.2-1.5,2.1-2.6,2.9l1.6,0.3c0,0.1-0.2,0.6-0.4,1.3h1.6v-1.6h3.2v1.6h3.2v2.7H299V125.4z M282.9,121.8c0,0.1,0,0.9-0.1,2.3
		h1.2v-2.3H282.9z M282.9,119.3h1.1v-2.3h-1.1V119.3z M285,114.4c0.3-0.7,0.6-1.3,0.8-1.8H284c-0.3,0.8-0.5,1.4-0.7,1.8H285z
		 M286.3,119.3h1.2v-2.3h-1.2V119.3z M286.3,121.8v2.3h1.2v-2.3H286.3z M291.5,119.3l-1.2-1.9v5.1
		C290.6,121.8,291,120.7,291.5,119.3z M296.7,112.5c-0.2,1-0.4,1.9-0.8,2.8c0.9,0.1,1.5,0.1,2,0.1c0.5,0,0.7-0.1,0.9-0.4
		c0.1-0.3,0.2-1.1,0.3-2.4H296.7z"/>
	<path class="st1" d="M320.4,109.3l2.1,2.6c-3.2,2.4-6.2,4.5-8.9,6.3c-1,0.6-1.7,1.1-1.9,1.3c-0.3,0.2-0.4,0.5-0.4,0.7
		c0,0.2,0.1,0.5,0.4,0.7c0.3,0.2,0.8,0.7,1.8,1.3c3.3,2.2,6.6,4.7,9.9,7.4l-2.3,2.4c-3.4-2.8-6.6-5.2-9.7-7.3
		c-1.8-1.3-3-2.1-3.4-2.6c-0.4-0.5-0.6-1.1-0.6-2c0-0.9,0.2-1.6,0.7-2.1c0.5-0.5,1.6-1.3,3.4-2.5
		C314.5,113.6,317.5,111.5,320.4,109.3z"/>
	<path class="st1" d="M336.8,110.3h3.5l-0.5,7.1h-2.5L336.8,110.3z M342.1,110.3h3.5l-0.5,7.1h-2.5L342.1,110.3z"/>
	<path class="st1" d="M354.8,121v-2.9h5.2v-4.4h-1.2c-0.5,1.4-1,2.7-1.6,3.9l-2.7-1.1c1.1-2.4,2-5.1,2.5-8.1l2.9,0.5
		c-0.1,0.5-0.2,1.2-0.4,2h6.6v2.8h-2.8v4.4h3.7v-7.7h10.4v21.1h-3.2v-1.4h-4.1v1.4h-3.1v-3l-2.5,1.7c-1-1.8-2-3.4-2.8-4.8
		c-1.2,2.8-2.9,4.9-5,6.3l-2-2.6c2.8-2,4.5-4.8,5-8.3H354.8z M363.1,121c0,0.3-0.1,0.6-0.2,1c1.7,2.5,3.1,4.7,4.2,6.5V121H363.1z
		 M370.2,127.4h4.1v-14h-4.1V127.4z"/>
	<path class="st1" d="M400.1,131.9c-1.8,0-3.7-0.1-5.6-0.2l-0.2-2.9c1.5,0.1,2.9,0.2,4.2,0.2c0.3,0,0.5-0.3,0.6-0.8
		c0.1-0.5,0.3-1.9,0.4-4c0.1-2.1,0.3-5.3,0.4-9.6h-5.5c-0.7,1.5-1.4,2.8-2.2,3.9l2.3-1.4c1.4,2,2.7,4.2,3.9,6.6l-2.6,1.4
		c-1.1-2.1-2.3-4.2-3.8-6.2c-0.4,0.6-0.8,1.1-1.1,1.5l-0.9-0.9v10.5h-6.4v1.8h-3.2v-19.5h2.8c0.4-1.2,0.8-2.4,1-3.5l3.2,0.4
		c-0.2,1-0.5,2.1-0.9,3.1h3.4v4.1c1.5-2.2,2.5-4.8,3.2-7.6l3.2,0.4c-0.3,1.1-0.5,2-0.8,2.7h7.6c0,2.5-0.1,4.6-0.1,6.4
		s-0.1,3.4-0.2,4.9c-0.1,1.5-0.1,2.6-0.2,3.6s-0.2,1.7-0.3,2.4c-0.1,0.7-0.3,1.2-0.4,1.6c-0.1,0.4-0.3,0.6-0.5,0.8
		c-0.2,0.2-0.4,0.3-0.6,0.4C400.7,131.9,400.4,131.9,400.1,131.9z M383.6,119.7h3.3V115h-3.3V119.7z M383.6,122.4v4.8h3.3v-4.8
		H383.6z"/>
	<path class="st1" d="M428.3,129.1l-1.1,2.9c-4.4-1-7.8-2.3-10.3-4c-2.5,1.6-5.9,2.9-10.3,4l-1.1-2.9c3.9-1,6.8-2,8.7-3.1
		c-1.4-1.4-2.7-3.2-3.6-5.4l3.1-1.1c0.9,1.9,1.9,3.4,3.1,4.6c1.2-1.2,2.3-2.7,3.1-4.6l3.2,1.1c-1,2.2-2.2,4-3.7,5.5
		C421.5,127.1,424.4,128.1,428.3,129.1z M426,122c-2.2-2-4.7-4-7.5-5.9l1.3-1.7h-6.3l1.7,1.5c-1.9,2.4-4.5,4.5-7.9,6.1l-1.5-2.6
		c2.6-1.4,4.9-3,6.7-5h-6.7v-2.9h9.3v-2.9h3.4v2.9h9.3v2.9h-6.4c2.4,1.7,4.6,3.4,6.5,5.2L426,122z"/>
	<path class="st1" d="M446.9,114.9l2.9-1.3c1.6,2.1,3,4.1,4.2,6.2l-2.8,1.5c-0.5-0.8-0.8-1.4-1.1-1.8c-4.9,0.6-9.5,0.9-13.9,1.1
		l-0.1-1.5l-1.6,2c-1.3-1.3-2.9-2.6-4.6-3.9l1.9-2.2c1.5,1.1,3,2.3,4.4,3.6l0-0.8c1.3,0,2.3-0.1,2.9-0.1c0.6-1.4,1.2-2.8,1.8-4.3
		h-4.4l-1.3,1.6c-1.3-1.2-2.7-2.4-4.1-3.5l1.8-2.2c1.2,0.9,2.4,1.9,3.5,2.8v-1.5h6.8v-1.9h3.5v1.9h7v2.8h-9.3c-0.5,1.3-1,2.6-1.6,4
		c2.1-0.1,4-0.3,5.8-0.5C448.1,116.5,447.6,115.8,446.9,114.9z M436.7,123.8c-0.9,3.1-2.1,5.9-3.6,8.2l-2.7-1.7
		c1.4-2.3,2.5-4.8,3.4-7.6L436.7,123.8z M438.1,121.2h3.2c0,3.2-0.3,5.7-1,7.3c-0.7,1.6-1.9,2.9-3.6,3.9l-2.1-2.4
		c1.3-0.8,2.3-1.8,2.8-3.1C437.9,125.7,438.1,123.8,438.1,121.2z M442.6,131.8v-10.6h3.2v10.6H442.6z M447.4,120.9h3.2v7.7
		c0,0.4,0,0.6,0.1,0.7s0.2,0.1,0.4,0.1c0.3,0,0.5-0.2,0.5-0.5s0.1-1.6,0.2-3.8l2.5,0.3c0,0.8,0,1.4-0.1,1.8c0,0.4,0,0.9-0.1,1.4
		c0,0.5-0.1,0.9-0.1,1.1c0,0.2-0.1,0.5-0.2,0.8c-0.1,0.3-0.2,0.5-0.3,0.6c-0.1,0.1-0.2,0.2-0.4,0.4s-0.3,0.3-0.5,0.3
		s-0.4,0.1-0.7,0.1c-0.3,0.1-0.6,0.1-0.8,0.1c-0.2,0-0.6,0-1,0c-1.3,0-2.1-0.1-2.5-0.3c-0.3-0.2-0.5-0.8-0.5-1.7V120.9z"/>
	<path class="st1" d="M456.6,114.3h4.2V110h3.3v4.3h7.1V110h3.4v4.3h4.2v3h-4.2v1.4c0,4.1-0.9,7-2.8,8.9c-1.9,1.9-5.1,3-9.6,3.4
		l-0.6-3c3.7-0.4,6.3-1.2,7.6-2.5c1.3-1.3,2-3.5,2-6.8v-1.4H464v5.1h-3.3v-5.1h-4.2V114.3z"/>
	<path class="st1" d="M486.5,130H483v-18.6h19.9V130H486.5z M486.5,126.9h12.8v-12.4h-12.8V126.9z"/>
	<path class="st1" d="M508.9,113.8l1.6-3c2.5,1.2,5.2,2.6,7.9,4.1l-1.7,3C514.4,116.6,511.8,115.3,508.9,113.8z M526,113.2l3.2,0.7
		c-0.9,5-2.9,8.9-6.1,11.6c-3.2,2.7-7.5,4.3-13.2,4.8l-0.5-3.3c4.9-0.5,8.7-1.8,11.3-4C523.3,120.8,525.1,117.5,526,113.2z"/>
	<path class="st1" d="M538.9,110.3h3.5l-0.5,7.1h-2.5L538.9,110.3z M544.2,110.3h3.5l-0.5,7.1h-2.5L544.2,110.3z"/>
	<path class="st1" d="M550.5,121c1.8-2.5,4.1-3.8,7-3.8c2,0,3.9,0.7,5.6,2.2c1.2,1,2.4,1.5,3.5,1.5c0.8,0,1.6-0.2,2.3-0.6
		c0.7-0.4,1.4-1.1,2.3-2.2l2.5,2.2c-1.8,2.5-4.1,3.8-7,3.8c-2,0-3.9-0.7-5.6-2.2c-1.2-1-2.4-1.5-3.5-1.5c-0.8,0-1.6,0.2-2.3,0.6
		c-0.7,0.4-1.4,1.1-2.3,2.2L550.5,121z"/>
</g>
<g>
	
		<linearGradient id="SVGID_00000152260539446697674490000007534771289842400416_" gradientUnits="userSpaceOnUse" x1="124.1771" y1="31.4269" x2="124.1771" y2="55.1125">
		<stop  offset="0" style="stop-color:#178FC9"/>
		<stop  offset="0.5443" style="stop-color:#178FC9"/>
		<stop  offset="0.7257" style="stop-color:#178EC8"/>
		<stop  offset="0.8176" style="stop-color:#1489C4"/>
		<stop  offset="0.8893" style="stop-color:#1181BE"/>
		<stop  offset="0.9503" style="stop-color:#0E76B6"/>
		<stop  offset="1" style="stop-color:#0C68AC"/>
	</linearGradient>
	<path style="fill:url(#SVGID_00000152260539446697674490000007534771289842400416_);" d="M124.7,43h-4.2v1.1h3.9v3.2h-3.8
		c1,0.8,2,1.8,3.1,2.8c0.8-1.6,1.4-3.6,1.7-6c0.3-2.3,0.5-5.9,0.5-10.7c3.7-0.3,6.8-0.9,9.3-1.8l1,3.5c-2,0.6-4.2,1.1-6.7,1.4
		c0,1.3-0.1,2.2-0.1,2.8h6.9v3.5h-1.8v12h-3.7v-12h-1.6c-0.3,2.9-0.7,5.2-1.3,7c-0.6,1.8-1.5,3.5-2.6,5l-2.4-2.5l-0.6,0.7
		c-0.5-0.6-1.1-1.2-1.7-2v3.9h-3.8v-4.2c-0.8,1.3-1.6,2.4-2.6,3.3l-1.9-3c1.4-1.2,2.5-2.5,3.4-3.9h-2.7v-3.2h3.8V43h-3.8v-3.1h2
		c-0.2-1-0.5-1.9-0.8-2.9H113v-3.2h3.7v-2.4h3.8v2.4h4.3V37h-1.1c-0.2,0.8-0.5,1.8-0.9,2.9h1.9V43z M118.1,39.9h1.3
		c0.4-1,0.7-1.9,1-2.9h-2.9C117.8,38.3,118,39.2,118.1,39.9z"/>
	
		<linearGradient id="SVGID_00000106142377850799430460000016373435175331873713_" gradientUnits="userSpaceOnUse" x1="149.598" y1="31.8065" x2="149.598" y2="55.011">
		<stop  offset="0" style="stop-color:#178FC9"/>
		<stop  offset="0.5443" style="stop-color:#178FC9"/>
		<stop  offset="0.7257" style="stop-color:#178EC8"/>
		<stop  offset="0.8176" style="stop-color:#1489C4"/>
		<stop  offset="0.8893" style="stop-color:#1181BE"/>
		<stop  offset="0.9503" style="stop-color:#0E76B6"/>
		<stop  offset="1" style="stop-color:#0C68AC"/>
	</linearGradient>
	<path style="fill:url(#SVGID_00000106142377850799430460000016373435175331873713_);" d="M138,44.4v-3.2h2.5c0-0.3,0-0.8,0-1.5
		v-0.9h-2.3v-3.4h2.3v-3.6h3.8v3.6h2.2v3.4h-2.2v0.7c0,0.8,0,1.4,0,1.7h2.3v3.2h-2.7c1.2,1.6,2.3,2.9,3.1,4.1l-2.3,2.5
		c-1-1.6-1.6-2.5-1.7-2.8c-0.7,2.7-1.8,4.9-3.3,6.6l-2.2-3.4c1.5-1.9,2.4-4.2,2.7-6.9H138z M157.7,54.6H157h-0.7
		c-1.3,0-2.2-0.1-2.5-0.4c-0.3-0.2-0.5-0.8-0.5-1.7v-4.7h-0.7c-0.6,3.8-3.1,6.2-7.7,7.2l-1.2-3.1c1.6-0.3,2.9-0.8,3.7-1.5
		c0.9-0.7,1.4-1.5,1.6-2.6h-1.8V32.3h13.1v15.5h-3.7v2.8c0,0.4,0,0.6,0,0.7c0,0.1,0.1,0.1,0.3,0.1c0,0,0.1,0,0.2,0
		c0.1,0,0.1,0,0.2,0c0,0,0.1,0,0.2,0c0.1,0,0.1,0,0.2,0c0.3,0,0.4-0.1,0.5-0.4c0.1-0.2,0.1-1.1,0.1-2.4l3.4,0.4
		c0,0.8-0.1,1.4-0.1,1.8c0,0.4-0.1,0.9-0.1,1.3c-0.1,0.5-0.1,0.8-0.2,1c0,0.2-0.2,0.4-0.3,0.7c-0.2,0.2-0.3,0.4-0.5,0.4
		c-0.1,0.1-0.4,0.1-0.7,0.2c-0.3,0.1-0.6,0.1-0.9,0.1C158.7,54.6,158.3,54.6,157.7,54.6z M151.1,36.8h5.5v-1.3h-5.5V36.8z
		 M151.1,39.5v1.3h5.5v-1.3H151.1z M151.1,43.4v1.3h5.5v-1.3H151.1z"/>
	
		<linearGradient id="SVGID_00000102533994848218151140000018444490012025589919_" gradientUnits="userSpaceOnUse" x1="125.0256" y1="58.0039" x2="125.0256" y2="78.4212">
		<stop  offset="0" style="stop-color:#178FC9"/>
		<stop  offset="0.5443" style="stop-color:#178FC9"/>
		<stop  offset="0.7257" style="stop-color:#178EC8"/>
		<stop  offset="0.8176" style="stop-color:#1489C4"/>
		<stop  offset="0.8893" style="stop-color:#1181BE"/>
		<stop  offset="0.9503" style="stop-color:#0E76B6"/>
		<stop  offset="1" style="stop-color:#0C68AC"/>
	</linearGradient>
	<path style="fill:url(#SVGID_00000102533994848218151140000018444490012025589919_);" d="M114.3,72.7c0-0.9,0.3-1.9,0.9-2.9
		c0.6-1,1.7-2.2,3.2-3.7l3,2.2c-1.9,1.8-2.9,3.2-2.9,4c0,0.7,0.5,1.3,1.4,1.8c0.9,0.4,2.3,0.7,4.2,0.7c1.1,0,2.5-0.1,4.2-0.4
		c1.7-0.2,3.1-0.5,4.3-0.8l0.8,3.7c-1.2,0.3-2.7,0.6-4.5,0.9c-1.8,0.2-3.4,0.4-4.7,0.4c-3.1,0-5.5-0.5-7.2-1.6
		C115.2,75.8,114.3,74.4,114.3,72.7z M116.6,61.6V58h15.2v3.6H116.6z M131.6,67.6l-2.6,1.2c-0.7-1.3-1.4-2.7-2.2-4l2.6-1.3
		C130.2,65,131,66.3,131.6,67.6z M135.7,66.8l-2.7,1.3c-0.8-1.5-1.5-2.8-2.2-4.1l2.7-1.3C134.1,63.7,134.9,65.1,135.7,66.8z"/>
	
		<linearGradient id="SVGID_00000170982757662518708180000004354048238567130518_" gradientUnits="userSpaceOnUse" x1="149.6613" y1="57.1928" x2="149.6613" y2="79.4853">
		<stop  offset="0" style="stop-color:#178FC9"/>
		<stop  offset="0.5443" style="stop-color:#178FC9"/>
		<stop  offset="0.7257" style="stop-color:#178EC8"/>
		<stop  offset="0.8176" style="stop-color:#1489C4"/>
		<stop  offset="0.8893" style="stop-color:#1181BE"/>
		<stop  offset="0.9503" style="stop-color:#0E76B6"/>
		<stop  offset="1" style="stop-color:#0C68AC"/>
	</linearGradient>
	<path style="fill:url(#SVGID_00000170982757662518708180000004354048238567130518_);" d="M141.9,57.2h10.8v2.1c0,7.8,3,13.5,8.9,17
		l-2.3,3.1c-1.9-1-3.6-2.5-5.1-4.5c-1.5-2-2.8-4.2-3.7-6.8c-1.1,2.4-2.6,4.6-4.5,6.6c-1.8,2-3.9,3.5-6.1,4.7l-2.3-3.1
		c3.4-1.9,6-4.2,7.9-7c1.9-2.8,2.9-5.6,2.9-8.4v-0.3h-6.7V57.2z"/>
	
		<linearGradient id="SVGID_00000145024133005022895130000008399585349715808420_" gradientUnits="userSpaceOnUse" x1="174.9939" y1="56.4587" x2="174.9939" y2="79.9413">
		<stop  offset="0" style="stop-color:#178FC9"/>
		<stop  offset="0.5443" style="stop-color:#178FC9"/>
		<stop  offset="0.7257" style="stop-color:#178EC8"/>
		<stop  offset="0.8176" style="stop-color:#1489C4"/>
		<stop  offset="0.8893" style="stop-color:#1181BE"/>
		<stop  offset="0.9503" style="stop-color:#0E76B6"/>
		<stop  offset="1" style="stop-color:#0C68AC"/>
	</linearGradient>
	<path style="fill:url(#SVGID_00000145024133005022895130000008399585349715808420_);" d="M182.1,64.7v1.7h-14.3v-1.7
		c-1.2,0.7-2.4,1.4-3.7,2.1l-1.5-3.3c3.8-1.9,7-4.3,9.8-7h5.2c2.7,2.7,6,5,9.8,7l-1.5,3.3C184.5,66.1,183.3,65.4,182.1,64.7z
		 M164,71.4v-3.3h22v3.3h-3.2c1.2,2.5,2.4,4.9,3.5,7.4l-3.6,1.2c-0.5-1.2-0.9-2-1-2.2c-6.1,0.7-11.7,1.1-16.8,1.2l-0.2-3.3
		c1.6-0.1,2.8-0.1,3.6-0.2c0.6-1.1,1.4-2.5,2.1-4.2H164z M179.9,63.2c-1.8-1.3-3.5-2.7-4.9-4.2c-1.5,1.5-3.1,2.9-4.9,4.2H179.9z
		 M180.3,74.6c-0.1-0.2-0.3-0.6-0.5-1.1c-0.2-0.5-0.4-0.9-0.5-1.2l2.8-1h-7.3c-0.5,1.3-1.2,2.5-1.9,3.9
		C176.2,75,178.7,74.8,180.3,74.6z"/>
</g>
</svg>
