<?xml version="1.0" encoding="utf-8"?>
<!-- Generator: Adobe Illustrator 25.4.1, SVG Export Plug-In . SVG Version: 6.00 Build 0)  -->
<svg version="1.1" id="レイヤー_1" xmlns="http://www.w3.org/2000/svg" xmlns:xlink="http://www.w3.org/1999/xlink" x="0px"
	 y="0px" viewBox="0 0 496 182.8" style="enable-background:new 0 0 496 182.8;" xml:space="preserve">
<style type="text/css">
	.st0{fill:#F5E929;}
	.st1{fill:#FFFFFF;}
	.st2{fill:#178FC9;}
	
		.st3{clip-path:url(#SVGID_00000113350524893367420380000006293189879508569274_);fill:url(#SVGID_00000005989020908644810560000008290297903560099993_);}
	
		.st4{clip-path:url(#SVGID_00000043417837809314188150000005045153530911706802_);fill:url(#SVGID_00000110434308726455105530000016669573405418765995_);}
	
		.st5{clip-path:url(#SVGID_00000008132264545074148530000004365764530910377405_);fill:url(#SVGID_00000003089823607262010560000000592329217203931539_);}
	
		.st6{clip-path:url(#SVGID_00000063616607868905120350000010024757314289925281_);fill:url(#SVGID_00000075127484192872178240000006161905994485614464_);}
	
		.st7{clip-path:url(#SVGID_00000150808815154386894200000008420733308432532652_);fill:url(#SVGID_00000085935545481834918780000010841262699947566498_);}
	
		.st8{clip-path:url(#SVGID_00000019675509428176931050000013898004860345123773_);fill:url(#SVGID_00000132793441232173122790000006495800512003261318_);}
	
		.st9{clip-path:url(#SVGID_00000179604959722295055360000000440065385151496109_);fill:url(#SVGID_00000165215509855000698910000010186516997950093710_);}
</style>
<g>
	<path class="st0" d="M193.1,37.1l-14.9-21.2c-1.4-2-4.6-3.7-7.1-3.7H80.3c-9.5-9.3-23.2-14-37.3-11.5C19.8,4.8,4.3,26.9,8.4,50.2
		C12.5,73.5,34.6,89,57.9,84.9c11-1.9,20.3-8,26.6-16.2H171c2.5,0,5.7-1.7,7.2-3.7L193,44.5C194.5,42.5,194.5,39.1,193.1,37.1z"/>
</g>
<g>
	<path class="st1" d="M9.5,178.4v3.4H8.1v-21.4c-1.8,3.9-4.2,7.6-7,11.1L0,170.8c4.9-6.1,8.5-13.3,10.8-21.6H3v-1.4h8.2
		c0.8-3.3,1.4-6.9,1.9-10.6H1.2v-1.4h11.9c0.3-3.2,0.4-6.5,0.4-10h-10v-1.4h26.1v11.3h3.8v1.4h-3.8v12H12.2
		c-0.9,3.3-1.9,6.2-2.9,8.6h20.7v24h-1.4v-3.4H9.5z M28.7,159.2H9.5V177h19.2V159.2z M12.6,147.8h15.8v-10.6H14.4
		C14,140.9,13.4,144.5,12.6,147.8 M28.4,125.8H15c0,3.5-0.1,6.8-0.4,10h13.8V125.8z M64.4,164v1.4H49.3v17.2h-1.4v-17.2H32.1V164
		h15.8v-14.8H33.9v-1.4h14.1v-14.1H32.8v-1.4h20.5c1.8-3.9,3.4-7.7,4.6-11.2l1.2,0.4c-1.2,3.5-2.7,7.1-4.3,10.8h8.9v1.4H49.3v14.1
		h13.4v1.4H49.3V164H64.4z M38.4,121.7l1.2-0.5c1.6,3.5,3,6.7,4.1,9.6l-1.2,0.5C41.2,127.8,39.8,124.5,38.4,121.7"/>
	<path class="st1" d="M73.8,180.4c2.7-4.9,5-10.3,6.9-16l1.2,0.4c-2.1,6.2-4.3,11.7-6.9,16.3L73.8,180.4z M80.6,159.8v-35.4H129v1.4
		h-24.4v9.6h22.3v1.4h-22.3v10h22.3v1.4h-22.3v10.3h27.5v0.7c0,8.2-0.6,14-1.8,17.3c-1.2,3.3-3.2,5-6.1,5c-2.6,0-5.7-0.2-9.3-0.7
		l0.1-1.4c4.2,0.5,7.3,0.7,9.2,0.7c1,0,1.8-0.2,2.4-0.6c0.6-0.4,1.3-1.2,2-2.5c0.7-1.3,1.2-3.3,1.6-6.2c0.4-2.9,0.5-6.5,0.5-11H80.6
		z M103.2,125.8H81.9v9.6h21.3V125.8z M103.2,136.8H81.9v10h21.3V136.8z M103.2,148.2H81.9v10.3h21.3V148.2z M90.2,165.1l1.4-0.3
		c1.2,4.9,2.1,9.6,2.7,14.1l-1.4,0.1C92.3,174.7,91.4,170,90.2,165.1 M103.3,164.4l1.2-0.5c1.9,4.8,3.3,8.7,4.2,11.9l-1.4,0.4
		C106.2,172.3,104.8,168.4,103.3,164.4 M116.3,164l1.2-0.7c2.2,3.5,4,6.7,5.5,9.6l-1.2,0.7C120.2,170.6,118.4,167.4,116.3,164"/>
	<path class="st1" d="M175,127.9h-13.4v19.6h10.6v1.4h-10.6v24.8c5.7-1.7,10.1-3.2,13.1-4.5l0.6,1.2c-6.8,2.9-17.2,5.9-31,9
		l-0.3-1.4c0.4-0.1,1.3-0.3,2.7-0.6c1.4-0.3,2.5-0.6,3.2-0.8v-37.1h1.4v36.7c1.4-0.3,4.3-1.1,8.9-2.3v-46.1h-14.8v-1.4H175V127.9z
		 M181.8,137.2l1.4-0.1c1.4,11.3,4.2,20.2,8.4,26.9c5.7-7.4,9.1-17.7,10.4-30.9h-19.8c-2.3,7.2-5,13.5-8,18.9l-1.2-0.7
		c4.9-8.6,8.6-18.6,10.9-30l1.4,0.3c-0.6,3.2-1.5,6.5-2.6,10.2H209v1.4h-5.6c-1.2,13.8-4.9,24.5-10.9,32.1
		c3.8,5.4,9.1,10.3,16.1,14.7l-0.7,1.1c-7.1-4.5-12.6-9.4-16.3-14.7c-4.9,5.9-12.1,10.8-21.5,14.8l-0.5-1.2
		c9.2-3.8,16.3-8.7,21.2-14.7C186.2,158.2,183.2,148.9,181.8,137.2"/>
	<path class="st1" d="M238.9,141.2l1.2-0.5c2.3,5.6,4,11.2,5.2,16.7l-1.4,0.3c-0.6-2.4-1-3.9-1.1-4.5l-10.6,0.6v28.9h-1.4v-28.8
		l-13,0.7l-0.1-1.4l4.5-0.2c0.9-1,2.7-3.2,5.5-6.6c-3.3-5.9-6.2-10.9-8.7-14.8l1.1-0.7c0.2,0.3,0.5,0.8,0.9,1.4
		c0.4,0.6,0.8,1.2,1.1,1.8c0.3,0.6,0.7,1.1,1,1.6c2.6-3.6,5.6-8.2,8.9-13.8l1.2,0.7c-2.7,4.6-5.8,9.4-9.3,14.4
		c2.8,4.9,4.4,7.6,4.8,8.2c4.3-5.5,8.3-11.2,11.9-17.1l1.2,0.7c-5.1,8.3-11,16.3-17.6,24l18.3-1
		C241.6,148.3,240.4,144.8,238.9,141.2 M218.7,177.8c2.4-6.3,3.8-12.8,4.4-19.4l1.4,0.1c-0.5,6.4-2.1,13-4.5,19.7L218.7,177.8z
		 M238.5,158.3l1.4-0.3c1.3,5.1,2.2,10.4,2.7,15.9l-1.4,0.1C240.7,169,239.8,163.8,238.5,158.3 M263.2,178.7h17.2v1.4h-38.1v-1.4
		h19.6v-16.5h-15.4v-1.4h15.4v-10.6h1.4v10.6h15.1v1.4h-15.1V178.7z M249.3,129.4l1.1-0.8c3.8,5.3,8.1,10,13.1,14.1
		c5.4-4.2,9.8-9.7,13-16.4h-32.1v-1.4H278v1.4c-3.2,7-7.7,12.8-13.4,17.3c4.8,3.8,9.9,7,15.4,9.5l-0.6,1.2c-5.7-2.7-11-5.9-15.9-9.9
		c-4.3,3.2-9.8,6-16.5,8.5l-0.4-1.2c6.2-2.2,11.5-5,15.9-8.2C257.4,139.3,253,134.6,249.3,129.4"/>
	<path class="st1" d="M289.9,179.3c4.4-4.4,7.6-9.3,9.5-14.8l1.2,0.4c-2.1,5.8-5.3,10.9-9.8,15.4L289.9,179.3z M307,129l1.1-0.8
		c1,1.4,2.2,3.3,3.6,5.7c2.4-1.4,4.5-2.9,6.3-4.5l1,1.1c-2.1,1.9-4.9,3.7-8.4,5.6c2.3,1.8,4.2,4.2,5.5,7c1.3,2.8,2,5.8,2,8.9
		c0,3.3-0.3,5.5-1,6.6c-0.7,1.1-2.2,1.6-4.5,1.6c-1.5,0-4.1-0.1-7.6-0.3l0.1-1.4c3.6,0.2,6.1,0.3,7.5,0.3c1.7,0,2.9-0.4,3.4-1.1
		c0.5-0.7,0.8-2.6,0.8-5.8c0-1.1-0.1-2.4-0.3-3.6c-5.8,4.6-13.9,8.3-24.5,11.2l-0.4-1.4c10.8-2.9,19-6.7,24.6-11.3
		c-0.4-1.6-1.2-3.2-2.3-5.1c-5.2,3.8-12.5,7-21.9,9.5l-0.4-1.4c9.4-2.6,16.6-5.7,21.6-9.3c-1.1-1.5-2.4-2.8-3.8-3.8
		c-4.9,2.4-10.6,4.5-17.3,6.2l-0.4-1.4c3.8-1,6.7-1.9,8.7-2.6c-1.5-2.7-2.9-5.2-4.3-7.3l1.1-0.8c1.4,2.1,2.9,4.6,4.5,7.6
		c3.5-1.3,6.5-2.7,9-4C309.3,132.5,308.2,130.6,307,129 M293,128.3c10.4-1.5,18.4-3.5,23.8-6.1l0.5,1.2c-5.7,2.7-13.8,4.7-24.2,6.3
		L293,128.3z M308.2,163.3h1.4v9.6v3c0,0.5,0.1,1.2,0.2,1.9c0.1,0.7,0.2,1.1,0.3,1.3c0.1,0.2,0.4,0.4,0.8,0.6
		c0.4,0.2,0.8,0.4,1.1,0.4c0.3,0,0.9,0.1,1.8,0.2c2.7,0.2,5.6,0.3,8.5,0.3c2.8,0,5.7-0.1,8.5-0.3c1.5-0.1,2.6-0.2,3.2-0.3
		c0.6,0,1.3-0.2,2-0.6c0.8-0.3,1.2-0.6,1.4-0.9c0.2-0.2,0.4-0.8,0.8-1.8c0.3-1,0.5-1.9,0.6-2.7c0.1-0.8,0.2-2.2,0.4-4.2l1.4,0.1
		c-0.2,2-0.3,3.5-0.4,4.5c-0.1,1-0.3,2-0.7,3c-0.3,1-0.7,1.7-0.9,2c-0.3,0.3-0.8,0.7-1.6,1.1c-0.8,0.4-1.6,0.6-2.4,0.7
		c-0.8,0.1-1.9,0.2-3.5,0.3c-2.9,0.2-5.8,0.3-8.7,0.3c-2.9,0-5.8-0.1-8.7-0.3c-2.6-0.2-4.1-0.8-4.6-1.6s-0.8-3.2-0.8-6.9V163.3z
		 M315.8,163.2l0.7-1.2c4.9,2.8,9.5,6,13.8,9.7l-0.8,1.1C325.3,169.3,320.8,166.1,315.8,163.2 M339.3,151.4
		c3.6,3.3,7.9,5.7,12.7,7.5l-0.4,1.2c-4.7-1.6-8.9-4-12.5-7.1c-3.6-3.1-6.4-6.6-8.3-10.7h-7.1v15.5c4.7-1,9.3-2.3,13.9-3.8l0.4,1.4
		c-6.4,2.1-13,3.7-19.6,4.8l-0.3-1.4c1.1-0.1,2.5-0.4,4.3-0.8v-34.3h26.1v18.5h-16.1c1.4,2.8,3.4,5.5,6,8c4.4-2.2,8.4-5.1,12-8.5
		l1,1C347.8,146.2,343.8,149,339.3,151.4 M323.6,132.4H347v-7.2h-23.3V132.4z M347,133.7h-23.3v7.2H347V133.7z M340.6,163.3l1.1-0.8
		c4.1,5.4,7.5,10.9,10.4,16.6l-1.2,0.5C348.1,174.3,344.7,168.8,340.6,163.3"/>
	<path class="st1" d="M363.5,133.7h24v1.4h-24V133.7z M365.5,124.5h20.6v1.4h-20.6V124.5z M366.9,179.4v3.4h-1.4v-20.3h20.6v16.8
		H366.9z M365.9,143.4h19.9v1.4h-19.9V143.4z M365.9,153h19.9v1.4h-19.9V153z M366.9,178h17.9V164h-17.9V178z M421,123.4l0.4,1.4
		c-4.6,1.3-9.3,2.5-14.3,3.4v13.5h16.1v1.4h-16.1v12h14.1v26.8h-1.4v-4.1H393v4.1h-1.4V155h14.1v-12h-16.8v-1.4h16.8v-13.2
		c-5,0.9-10.2,1.5-15.4,1.9l-0.1-1.4C400.8,128.2,411.1,126.4,421,123.4 M419.8,156.4H393v19.9h26.8V156.4z"/>
	<path class="st1" d="M466,121.4c8.7,7.6,18.7,14.5,30,20.7l-0.7,1.2c-10.9-6-21-12.9-30.2-20.9c-9.2,8-19.3,14.9-30.2,20.9
		l-0.7-1.2c11.3-6.2,21.3-13.1,30-20.7H466z M479,161.6l1.1-0.8c4.7,6.6,9.3,13.5,13.7,20.7l-1.1,0.7c-0.5-0.9-2.1-3.3-4.6-7.1
		c-17.2,3-33.8,4.8-49.8,5.4v-1.4c2-0.1,5.2-0.3,9.8-0.5c3.4-7.2,6.5-14.8,9.1-22.8H437v-1.4h56.3v1.4h-34.5
		c-2.9,8.7-5.9,16.2-9,22.7c11.9-0.9,24.5-2.4,37.6-4.7C485,170.4,482.3,166.3,479,161.6 M445.9,142h38.5v1.4h-38.5V142z"/>
</g>
<path class="st2" d="M111.4,18.5h10.2v2c0,7.3,2.8,12.6,8.4,16l-2.1,3c-1.8-1-3.4-2.4-4.8-4.2c-1.4-1.9-2.6-4-3.5-6.3
	c-1.1,2.3-2.5,4.3-4.2,6.2c-1.7,1.9-3.6,3.3-5.7,4.4l-2.1-3c3.2-1.8,5.6-4,7.5-6.6c1.8-2.6,2.7-5.2,2.7-7.9v-0.3h-6.3V18.5z"/>
<path class="st2" d="M149.3,25.5v1.6h-13.4v-1.6c-1.1,0.7-2.3,1.3-3.5,1.9l-1.4-3.1c3.5-1.8,6.6-4,9.2-6.5h4.9
	c2.6,2.5,5.6,4.7,9.2,6.5l-1.4,3.1C151.6,26.8,150.4,26.2,149.3,25.5 M132.2,31.8v-3.1h20.7v3.1h-3c1.1,2.3,2.2,4.6,3.3,6.9
	l-3.4,1.1c-0.5-1.1-0.8-1.8-0.9-2.1c-5.7,0.6-11,1-15.8,1.2l-0.2-3.1c1.5-0.1,2.6-0.1,3.4-0.1c0.6-1.1,1.3-2.4,2-3.9H132.2z
	 M147.2,24.1c-1.7-1.2-3.2-2.5-4.6-4c-1.4,1.4-2.9,2.7-4.6,4H147.2z M147.6,34.9c-0.1-0.2-0.3-0.6-0.5-1.1c-0.2-0.5-0.4-0.9-0.5-1.1
	l2.6-0.9h-6.8c-0.5,1.2-1.1,2.4-1.8,3.6C143.7,35.2,146,35,147.6,34.9"/>
<path class="st2" d="M168.2,34.7c3.4-0.5,5.1-2.5,5.1-6.1c0-1.5-0.4-2.7-1.3-3.8c-0.8-1-2-1.7-3.3-2c-0.4,3-0.9,5.4-1.4,7.4
	c-0.5,2-1.1,3.5-1.7,4.6c-0.6,1.1-1.3,1.8-2,2.2c-0.7,0.4-1.4,0.6-2.3,0.6c-1.3,0-2.6-0.8-3.7-2.3c-1.1-1.5-1.7-3.4-1.7-5.6
	c0-3.1,1.1-5.7,3.2-7.6c2.1-2,4.9-2.9,8.3-2.9c2.8,0,5.1,0.9,6.9,2.6c1.8,1.8,2.7,4,2.7,6.7c0,2.8-0.7,5.1-2.1,6.8
	c-1.4,1.7-3.4,2.6-5.8,2.8L168.2,34.7z M164.8,23c-1.7,0.4-3,1.2-3.9,2.4c-0.9,1.2-1.4,2.7-1.4,4.4c0,1.1,0.2,2,0.6,2.9
	c0.4,0.9,0.8,1.3,1.2,1.3c0.2,0,0.4-0.1,0.6-0.3c0.2-0.2,0.4-0.6,0.7-1.1c0.3-0.5,0.5-1.2,0.7-2c0.2-0.8,0.5-1.9,0.8-3.2
	C164.3,26.1,164.6,24.6,164.8,23"/>
<path class="st2" d="M109.4,57.4c0-0.9,0.3-1.8,0.8-2.8c0.6-1,1.6-2.1,3-3.5l2.8,2.1c-1.8,1.7-2.7,3-2.7,3.8c0,0.7,0.4,1.3,1.3,1.7
	c0.9,0.4,2.2,0.6,3.9,0.6c1,0,2.3-0.1,3.9-0.3c1.6-0.2,2.9-0.5,4-0.8l0.7,3.5c-1.1,0.3-2.5,0.6-4.2,0.8c-1.7,0.2-3.2,0.3-4.4,0.3
	c-2.9,0-5.1-0.5-6.8-1.5C110.2,60.4,109.4,59.1,109.4,57.4 M111.5,43.6h14.3V47h-14.3V43.6z M125.6,52.7l-2.5,1.2
	c-0.6-1.3-1.3-2.5-2-3.8l2.5-1.2C124.3,50.2,125,51.4,125.6,52.7 M129.5,51.9l-2.5,1.2c-0.7-1.4-1.4-2.7-2.1-3.9l2.5-1.3
	C128,49,128.7,50.3,129.5,51.9"/>
<path class="st2" d="M131.9,49.7v-3h0.5v-3.5h8.3v-1.9h3.9v1.9h8.3v3.5h0.5v3h-3.7c-0.9,1.1-1.8,2-2.9,2.6c1.9,0.6,3.8,1.2,5.7,2
	l-1.1,1.4h2v3h-5.8c2,0.9,4.1,1.6,6.6,2.2l-1.4,3c-3.2-1-5.9-2.3-8.1-3.8v3.7h-3.9v-3.7c-2.3,1.5-5,2.8-8.1,3.8l-1.4-3
	c2.4-0.6,4.6-1.4,6.6-2.2h-5.8v-3h1.9l-0.9-2.6c1.7-0.1,3.3-0.3,4.5-0.5l-2.9-1.4c0.9-0.8,1.5-1.3,1.8-1.5H131.9z M134.7,55.7h5.9
	v-1C139.1,55.1,137.1,55.5,134.7,55.7 M139.1,46.7c0,0,0.1-0.2,0.3-0.4c0.2-0.2,0.3-0.4,0.4-0.5h-3.7v0.9H139.1z M142.7,51.3
	c1.1-0.5,2-1,2.8-1.6h-4.3c-0.3,0.3-0.7,0.7-1,1C140.7,50.8,141.6,51,142.7,51.3 M141.5,54.5h3v1.2h3.8c-1.8-0.7-3.4-1.3-5-1.8
	C142.8,54.2,142.1,54.4,141.5,54.5 M143.4,46.7h5.7v-0.9h-5.2C143.6,46.4,143.5,46.7,143.4,46.7"/>
<path class="st2" d="M164.4,41.8h3.8v2.4h8.5v14.9c0,0.7,0,1.3,0,1.7c0,0.4-0.1,0.8-0.2,1.2c-0.1,0.4-0.2,0.6-0.4,0.8
	c-0.1,0.2-0.4,0.3-0.7,0.4c-0.3,0.1-0.7,0.2-1.1,0.2c-0.4,0-0.9,0-1.6,0c-0.9,0-2.2,0-4-0.1l-0.2-3.2c2.1,0.1,3.2,0.1,3.4,0.1
	c0.5,0,0.8,0,0.9-0.1c0.1-0.1,0.1-0.4,0.1-0.8v-3.4l-2.3,1.5c-1.5-2.1-2.8-3.7-4-5c-1.3,2-3.1,3.6-5.5,4.9l-1.2-1.4v7.6h-3.8V44.2
	h8.3V41.8z M159.9,53.7c1.4-0.7,2.5-1.6,3.3-2.6c0.7-1,1.1-2.2,1.2-3.7h-4.5V53.7z M167.9,49c1.8,1.6,3.5,3.4,5,5.4v-7h-4.7
	C168.1,47.9,168,48.4,167.9,49"/>
<g>
	<defs>
		<path id="SVGID_1_" d="M111.4,18.5v3.3h6.3V22c0,2.6-0.9,5.3-2.7,7.9s-4.3,4.8-7.5,6.6l2.1,3c2.1-1.1,4-2.5,5.7-4.4
			c1.7-1.9,3.1-3.9,4.2-6.2c0.9,2.4,2,4.5,3.5,6.3c1.4,1.9,3,3.3,4.8,4.2l2.1-3c-5.6-3.4-8.4-8.7-8.4-16v-2H111.4z"/>
	</defs>
	<clipPath id="SVGID_00000047046304940529341630000008527966198302182788_">
		<use xlink:href="#SVGID_1_"  style="overflow:visible;"/>
	</clipPath>
	
		<linearGradient id="SVGID_00000182508493726188053090000017018297131921623470_" gradientUnits="userSpaceOnUse" x1="-26.9512" y1="510.8247" x2="-26.1512" y2="510.8247" gradientTransform="matrix(0 50.0875 50.0875 0 -25467.1641 1367.5228)">
		<stop  offset="0" style="stop-color:#178FC9"/>
		<stop  offset="0.5443" style="stop-color:#178FC9"/>
		<stop  offset="0.7257" style="stop-color:#178EC8"/>
		<stop  offset="0.8176" style="stop-color:#1489C4"/>
		<stop  offset="0.8893" style="stop-color:#1181BE"/>
		<stop  offset="0.9503" style="stop-color:#0E76B6"/>
		<stop  offset="1" style="stop-color:#0C68AC"/>
	</linearGradient>
	
		<rect x="107.6" y="18.5" style="clip-path:url(#SVGID_00000047046304940529341630000008527966198302182788_);fill:url(#SVGID_00000182508493726188053090000017018297131921623470_);" width="22.4" height="21"/>
</g>
<g>
	<defs>
		<path id="SVGID_00000093151052076435994650000011244664297638726791_" d="M142.3,31.8h6.8l-2.6,0.9c0.1,0.2,0.3,0.6,0.5,1.1
			c0.2,0.5,0.4,0.8,0.5,1.1c-1.5,0.2-3.9,0.4-7,0.6C141.2,34.2,141.8,33,142.3,31.8 M132.2,28.7v3.1h6c-0.7,1.5-1.4,2.8-2,3.9
			c-0.8,0-1.9,0.1-3.4,0.1l0.2,3.1c4.8-0.1,10.1-0.5,15.8-1.2c0.1,0.2,0.4,0.9,0.9,2.1l3.4-1.1c-1-2.3-2.1-4.6-3.3-6.9h3v-3.1H132.2
			z M142.6,20.2c1.4,1.4,2.9,2.7,4.6,4h-9.3C139.6,22.9,141.2,21.6,142.6,20.2 M140.1,17.8c-2.6,2.5-5.6,4.7-9.2,6.5l1.4,3.1
			c1.2-0.6,2.4-1.2,3.5-1.9v1.6h13.4v-1.6c1.1,0.7,2.3,1.3,3.5,1.9l1.4-3.1c-3.5-1.8-6.6-4-9.2-6.5H140.1z"/>
	</defs>
	<clipPath id="SVGID_00000101098592144735087730000004848695629179866500_">
		<use xlink:href="#SVGID_00000093151052076435994650000011244664297638726791_"  style="overflow:visible;"/>
	</clipPath>
	
		<linearGradient id="SVGID_00000085248082613869796310000007024375882696116395_" gradientUnits="userSpaceOnUse" x1="-26.9512" y1="511.3001" x2="-26.1512" y2="511.3001" gradientTransform="matrix(0 50.0875 50.0875 0 -25467.1641 1367.5228)">
		<stop  offset="0" style="stop-color:#178FC9"/>
		<stop  offset="0.5443" style="stop-color:#178FC9"/>
		<stop  offset="0.7257" style="stop-color:#178EC8"/>
		<stop  offset="0.8176" style="stop-color:#1489C4"/>
		<stop  offset="0.8893" style="stop-color:#1181BE"/>
		<stop  offset="0.9503" style="stop-color:#0E76B6"/>
		<stop  offset="1" style="stop-color:#0C68AC"/>
	</linearGradient>
	
		<rect x="131" y="17.8" style="clip-path:url(#SVGID_00000101098592144735087730000004848695629179866500_);fill:url(#SVGID_00000085248082613869796310000007024375882696116395_);" width="23.2" height="22.1"/>
</g>
<g>
	<defs>
		<path id="SVGID_00000053519821247587808760000014164143448251014293_" d="M160.1,32.7c-0.4-0.9-0.6-1.8-0.6-2.9
			c0-1.7,0.5-3.2,1.4-4.4c0.9-1.2,2.3-2,3.9-2.4c-0.2,1.6-0.5,3.1-0.8,4.4c-0.3,1.3-0.5,2.3-0.8,3.2c-0.2,0.8-0.5,1.5-0.8,2
			c-0.3,0.5-0.5,0.9-0.7,1.1c-0.2,0.2-0.4,0.3-0.6,0.3C160.9,34,160.5,33.6,160.1,32.7 M159,22.2c-2.1,2-3.2,4.5-3.2,7.6
			c0,2.2,0.6,4,1.7,5.6c1.1,1.5,2.4,2.3,3.7,2.3c0.9,0,1.6-0.2,2.3-0.6c0.7-0.4,1.3-1.1,2-2.2c0.6-1.1,1.2-2.6,1.7-4.6
			c0.5-2,1-4.5,1.4-7.4c1.4,0.3,2.5,0.9,3.3,2c0.8,1,1.3,2.3,1.3,3.8c0,3.6-1.7,5.7-5.1,6.1l0.8,3.5c2.4-0.2,4.4-1.2,5.8-2.8
			s2.1-3.9,2.1-6.8c0-2.7-0.9-4.9-2.7-6.7c-1.8-1.8-4.1-2.6-6.9-2.6C163.9,19.3,161.1,20.2,159,22.2"/>
	</defs>
	<clipPath id="SVGID_00000041289121816606033630000010548667136524540069_">
		<use xlink:href="#SVGID_00000053519821247587808760000014164143448251014293_"  style="overflow:visible;"/>
	</clipPath>
	
		<linearGradient id="SVGID_00000084519369763057686720000005678270107087007659_" gradientUnits="userSpaceOnUse" x1="-26.9512" y1="511.7755" x2="-26.1512" y2="511.7755" gradientTransform="matrix(0 50.0875 50.0875 0 -25467.1641 1367.5228)">
		<stop  offset="0" style="stop-color:#178FC9"/>
		<stop  offset="0.5443" style="stop-color:#178FC9"/>
		<stop  offset="0.7257" style="stop-color:#178EC8"/>
		<stop  offset="0.8176" style="stop-color:#1489C4"/>
		<stop  offset="0.8893" style="stop-color:#1181BE"/>
		<stop  offset="0.9503" style="stop-color:#0E76B6"/>
		<stop  offset="1" style="stop-color:#0C68AC"/>
	</linearGradient>
	
		<rect x="155.8" y="19.3" style="clip-path:url(#SVGID_00000041289121816606033630000010548667136524540069_);fill:url(#SVGID_00000084519369763057686720000005678270107087007659_);" width="21.1" height="18.9"/>
</g>
<g>
	<defs>
		<path id="SVGID_00000132084768735382832260000010915239870130713022_" d="M110.2,54.7c-0.6,1-0.8,1.9-0.8,2.8
			c0,1.6,0.8,2.9,2.5,3.9c1.6,1,3.9,1.5,6.8,1.5c1.2,0,2.7-0.1,4.4-0.3c1.7-0.2,3.1-0.5,4.2-0.8l-0.7-3.5c-1.1,0.3-2.5,0.6-4,0.8
			c-1.6,0.2-2.9,0.3-3.9,0.3c-1.7,0-3-0.2-3.9-0.6c-0.9-0.4-1.3-1-1.3-1.7c0-0.8,0.9-2.1,2.7-3.8l-2.8-2.1
			C111.8,52.6,110.8,53.7,110.2,54.7 M121.1,50c0.7,1.3,1.4,2.5,2,3.8l2.5-1.2c-0.6-1.2-1.3-2.5-2-3.9L121.1,50z M124.9,49.2
			c0.7,1.2,1.4,2.5,2.1,3.9l2.5-1.2c-0.8-1.6-1.5-2.9-2.1-3.9L124.9,49.2z M111.5,47h14.3v-3.4h-14.3V47z"/>
	</defs>
	<clipPath id="SVGID_00000153693846784390915560000010713939697085779640_">
		<use xlink:href="#SVGID_00000132084768735382832260000010915239870130713022_"  style="overflow:visible;"/>
	</clipPath>
	
		<linearGradient id="SVGID_00000109708321971343589190000005083706381731619237_" gradientUnits="userSpaceOnUse" x1="-26.9512" y1="510.8378" x2="-26.1512" y2="510.8378" gradientTransform="matrix(0 50.0875 50.0875 0 -25467.1641 1367.5228)">
		<stop  offset="0" style="stop-color:#178FC9"/>
		<stop  offset="0.5443" style="stop-color:#178FC9"/>
		<stop  offset="0.7257" style="stop-color:#178EC8"/>
		<stop  offset="0.8176" style="stop-color:#1489C4"/>
		<stop  offset="0.8893" style="stop-color:#1181BE"/>
		<stop  offset="0.9503" style="stop-color:#0E76B6"/>
		<stop  offset="1" style="stop-color:#0C68AC"/>
	</linearGradient>
	
		<rect x="109.4" y="43.6" style="clip-path:url(#SVGID_00000153693846784390915560000010713939697085779640_);fill:url(#SVGID_00000109708321971343589190000005083706381731619237_);" width="20.1" height="19.2"/>
</g>
<g>
	<defs>
		<path id="SVGID_00000139270373635577485580000014495688807842874521_" d="M140.6,54.8v1h-5.9C137.1,55.5,139.1,55.1,140.6,54.8
			 M143.3,54c1.5,0.5,3.2,1.1,5,1.8h-3.8v-1.2h-3C142.1,54.4,142.8,54.2,143.3,54 M140.1,50.7c0.3-0.3,0.7-0.7,1-1h4.3
			c-0.7,0.6-1.7,1.1-2.8,1.6C141.6,51,140.7,50.8,140.1,50.7 M136.1,45.9h3.7c-0.1,0.1-0.2,0.3-0.4,0.5c-0.2,0.2-0.3,0.3-0.3,0.4
			h-3.1V45.9z M143.9,45.9h5.2v0.9h-5.7C143.5,46.7,143.6,46.4,143.9,45.9 M140.6,41.4v1.9h-8.3v3.5h-0.5v3h4.4
			c-0.3,0.3-0.9,0.8-1.8,1.5l2.9,1.4c-1.3,0.2-2.8,0.4-4.5,0.5l0.9,2.6h-1.9v3h5.8c-2,0.9-4.1,1.6-6.6,2.2l1.4,3
			c3.2-1,5.9-2.3,8.1-3.8v3.7h3.9v-3.7c2.3,1.5,5,2.8,8.1,3.8l1.4-3c-2.4-0.6-4.6-1.4-6.6-2.2h5.8v-3h-2l1.1-1.4
			c-1.9-0.8-3.8-1.5-5.7-2c1.1-0.7,2-1.6,2.9-2.6h3.7v-3h-0.5v-3.5h-8.3v-1.9H140.6z"/>
	</defs>
	<clipPath id="SVGID_00000011030415559640527200000007787555165058348988_">
		<use xlink:href="#SVGID_00000139270373635577485580000014495688807842874521_"  style="overflow:visible;"/>
	</clipPath>
	
		<linearGradient id="SVGID_00000000206079463964218620000001973175628995814589_" gradientUnits="userSpaceOnUse" x1="-26.9512" y1="511.3001" x2="-26.1512" y2="511.3001" gradientTransform="matrix(0 50.0875 50.0875 0 -25467.1641 1367.5228)">
		<stop  offset="0" style="stop-color:#178FC9"/>
		<stop  offset="0.5443" style="stop-color:#178FC9"/>
		<stop  offset="0.7257" style="stop-color:#178EC8"/>
		<stop  offset="0.8176" style="stop-color:#1489C4"/>
		<stop  offset="0.8893" style="stop-color:#1181BE"/>
		<stop  offset="0.9503" style="stop-color:#0E76B6"/>
		<stop  offset="1" style="stop-color:#0C68AC"/>
	</linearGradient>
	
		<rect x="131.1" y="41.4" style="clip-path:url(#SVGID_00000011030415559640527200000007787555165058348988_);fill:url(#SVGID_00000000206079463964218620000001973175628995814589_);" width="23" height="22.6"/>
</g>
<g>
	<defs>
		<path id="SVGID_00000111157925066764245210000011884548388674411934_" d="M159.9,47.4h4.5c-0.1,1.5-0.5,2.7-1.2,3.7
			c-0.7,1-1.8,1.9-3.3,2.6V47.4z M167.9,49c0.1-0.6,0.2-1.1,0.3-1.6h4.7v7C171.4,52.4,169.7,50.7,167.9,49 M164.4,41.8v2.4h-8.3
			v19.2h3.8v-7.6l1.2,1.4c2.4-1.3,4.2-2.9,5.5-4.9c1.2,1.2,2.5,2.9,4,5l2.3-1.5v3.4c0,0.5,0,0.8-0.1,0.8c-0.1,0.1-0.4,0.1-0.9,0.1
			c-0.1,0-1.3,0-3.4-0.1l0.2,3.2c1.8,0.1,3.1,0.1,4,0.1c0.7,0,1.2,0,1.6,0c0.4,0,0.7-0.1,1.1-0.2c0.3-0.1,0.6-0.2,0.7-0.4
			c0.1-0.2,0.3-0.4,0.4-0.8c0.1-0.4,0.2-0.8,0.2-1.2c0-0.4,0-1,0-1.7V44.2h-8.5v-2.4H164.4z"/>
	</defs>
	<clipPath id="SVGID_00000121280621838193516290000004788486109506860447_">
		<use xlink:href="#SVGID_00000111157925066764245210000011884548388674411934_"  style="overflow:visible;"/>
	</clipPath>
	
		<linearGradient id="SVGID_00000108296994293317388330000012915774953068601739_" gradientUnits="userSpaceOnUse" x1="-26.9512" y1="511.7755" x2="-26.1512" y2="511.7755" gradientTransform="matrix(0 50.0875 50.0875 0 -25467.1641 1367.5228)">
		<stop  offset="0" style="stop-color:#178FC9"/>
		<stop  offset="0.5443" style="stop-color:#178FC9"/>
		<stop  offset="0.7257" style="stop-color:#178EC8"/>
		<stop  offset="0.8176" style="stop-color:#1489C4"/>
		<stop  offset="0.8893" style="stop-color:#1181BE"/>
		<stop  offset="0.9503" style="stop-color:#0E76B6"/>
		<stop  offset="1" style="stop-color:#0C68AC"/>
	</linearGradient>
	
		<rect x="156.1" y="41.8" style="clip-path:url(#SVGID_00000121280621838193516290000004788486109506860447_);fill:url(#SVGID_00000108296994293317388330000012915774953068601739_);" width="20.6" height="21.6"/>
</g>
<g>
	<defs>
		<path id="SVGID_00000085222733534344803510000004347514876213051317_" d="M94.9,38.9l0.1,0.7l5.5-1.2c-0.5,0.8-1.1,1.4-1.8,2
			c-0.9-0.2-1.6-0.6-2.3-1.1L96,39.9c0.6,0.4,1.3,0.8,2.1,1.1c-0.8,0.6-1.8,1.1-3,1.5l0.4,0.6c1.5-0.6,2.6-1.2,3.6-1.9
			c1.1,0.2,2.5,0.3,4,0.3l0.1-0.7c-1.3,0.1-2.4,0-3.4-0.1c0.9-0.7,1.5-1.5,1.8-2.4l-0.1-0.7L94.9,38.9z M84.9,39.9l2.2-0.5l0.5,2.2
			l-2.1,0.5L84.9,39.9z M84.2,36.8c0.1-0.4,0.1-0.8,0.1-1l-0.8,0c-0.1,1.6-0.5,3.2-1.1,4.6l0.8,0.3c0.4-1,0.7-2.1,1-3.2l2.5-0.5
			l0.4,1.8l-3,0.6l0.6,2.9l-1.9,0.4l0.2,0.7l4.8-1l0.5,2.4l0.8-0.2l-0.5-2.4l3.8-0.8l-0.2-0.7l-3.8,0.8l-0.5-2.2l3-0.6L90.8,38
			l-3,0.6l-0.4-1.8l3.3-0.7l-0.1-0.7L84.2,36.8z M23.6,33.9c-2.2,0.5-3.8,1.7-4.9,3.6c-1.1,1.9-1.3,4.3-0.7,7.1l5.4-1.2
			c-0.1-0.2-0.1-0.4-0.2-0.5c0-0.1-0.1-0.3-0.1-0.4c0,0,0,0,0-0.1c-0.2-0.9-0.2-1.6,0.1-2.2c0.3-0.6,0.7-1,1.4-1.1
			c0.6-0.1,1.2,0.1,1.7,0.6c0.6,0.5,0.9,1.2,1.1,2c0.1,0.6,0.2,1.2,0.1,1.9c0,0.7-0.2,1.4-0.3,2.1c-0.2,0.7-0.3,1.4-0.6,2
			c-0.2,0.7-0.5,1.3-0.7,1.9c-0.2,0.6-0.5,1.2-0.7,1.7c-0.3,0.5-0.5,1-0.7,1.5L21,60.3L36.2,57l-1.1-5.2l-6.2,1.3l2.4-4.4
			c0.1-0.3,0.3-0.5,0.4-0.8c0.1-0.3,0.2-0.5,0.3-0.8c0.4-1.1,0.7-2.1,0.8-3.1c0.1-1,0-2.1-0.2-3.2c-0.5-2.4-1.6-4.3-3.3-5.7
			c-1.3-1-2.7-1.5-4.1-1.5C24.6,33.8,24.1,33.8,23.6,33.9 M96.3,36.2l3-0.6l0.2,1.1l-3,0.6L96.3,36.2z M93.6,35.2l1.6-0.3l0.2,0.9
			l-1.6,0.3L93.6,35.2z M96,34.7l3-0.6l0.2,0.9l-3,0.6L96,34.7z M96.4,32.9l0.2,0.9l-4,0.8l0.7,3.1c0.2,1.1,0.4,2.1,0.4,2.9
			c0,0.8,0,1.6-0.2,2.3l0.7,0.5c0.4-1.5,0.4-3.3-0.1-5.3l-0.3-1.3l1.6-0.3l0.4,1.7l4.6-1l-0.4-1.7l1.7-0.4l-0.1-0.7l-1.7,0.4
			l-0.2-0.9l1.7-0.4l-0.1-0.7l-3.9,0.8l-0.2-0.9L96.4,32.9z M40.8,49.2c-0.9-1.2-1.5-2.9-2-5.1c-0.5-2.2-0.5-4-0.2-5.5
			c0.3-1.5,0.9-2.3,1.8-2.5c0.9-0.2,1.8,0.3,2.7,1.5c0.9,1.2,1.5,2.9,2,5.1c0.5,2.2,0.5,4,0.3,5.4c-0.3,1.5-0.9,2.3-1.8,2.5
			c-0.1,0-0.3,0-0.4,0C42.3,50.8,41.5,50.3,40.8,49.2 M39.2,30.7c-1.2,0.3-2.2,0.8-3,1.6c-0.9,0.8-1.5,1.9-2.1,3.3
			c-0.5,1.3-0.8,2.7-0.8,4.3c0,1.5,0.1,3.3,0.6,5.2c0.4,1.9,0.9,3.6,1.6,5c0.7,1.4,1.5,2.6,2.5,3.6c1,1,2.1,1.8,3.2,2.2
			c1.1,0.4,2.3,0.5,3.4,0.2c1.2-0.2,2.2-0.8,3-1.6c0.9-0.8,1.5-1.9,2-3.3c0.5-1.3,0.8-2.8,0.8-4.3c0-1.5-0.2-3.3-0.6-5.2
			c-0.4-2-1-3.6-1.6-5c-0.7-1.4-1.5-2.6-2.5-3.6c-1-1-2.1-1.8-3.2-2.2c-0.7-0.3-1.4-0.4-2.1-0.4C40.1,30.6,39.6,30.6,39.2,30.7
			 M54.8,27.3c-2.2,0.5-3.8,1.7-4.9,3.6c-1.1,1.9-1.3,4.3-0.7,7.1l5.4-1.2c-0.1-0.2-0.1-0.4-0.2-0.5c0-0.1-0.1-0.3-0.1-0.4
			c0,0,0,0,0-0.1c-0.2-0.9-0.2-1.6,0.1-2.2c0.3-0.6,0.7-1,1.4-1.1c0.6-0.1,1.2,0.1,1.7,0.6c0.6,0.5,0.9,1.2,1.1,2
			c0.1,0.6,0.2,1.2,0.1,1.9c-0.1,0.7-0.2,1.4-0.3,2.1c-0.2,0.7-0.3,1.4-0.6,2c-0.2,0.7-0.5,1.3-0.7,2c-0.2,0.6-0.5,1.2-0.7,1.7
			c-0.3,0.5-0.5,1-0.7,1.5l-3.5,7.3l15.2-3.2l-1.1-5.2l-6.2,1.3l2.4-4.4c0.1-0.3,0.3-0.5,0.4-0.8c0.1-0.3,0.2-0.5,0.3-0.8
			c0.4-1.1,0.7-2.1,0.8-3.1c0.1-1,0-2.1-0.2-3.2c-0.5-2.4-1.6-4.3-3.3-5.7c-1.3-1-2.7-1.5-4.1-1.5C55.8,27.1,55.3,27.2,54.8,27.3
			 M70.5,24c-2.2,0.5-3.8,1.7-4.9,3.6c-1.1,1.9-1.3,4.3-0.7,7.1l5.4-1.2c-0.1-0.2-0.1-0.4-0.2-0.5c0-0.1-0.1-0.3-0.1-0.4
			c0,0,0,0,0-0.1c-0.2-0.9-0.2-1.6,0.1-2.2c0.3-0.6,0.7-1,1.4-1.1c0.6-0.1,1.2,0.1,1.7,0.6c0.6,0.5,0.9,1.2,1.1,2
			c0.1,0.6,0.2,1.2,0.1,1.9c-0.1,0.7-0.2,1.4-0.3,2.1c-0.2,0.7-0.3,1.4-0.6,2c-0.2,0.7-0.5,1.3-0.7,2c-0.2,0.6-0.5,1.2-0.7,1.7
			c-0.3,0.5-0.5,1-0.7,1.5l-3.5,7.3L83,47.1l-1.1-5.2l-6.2,1.3l2.4-4.4c0.1-0.3,0.3-0.5,0.4-0.8c0.1-0.3,0.2-0.5,0.3-0.8
			c0.4-1.1,0.7-2.1,0.8-3.1c0.1-1,0-2.1-0.2-3.2c-0.5-2.4-1.6-4.3-3.3-5.7c-1.3-1-2.7-1.5-4.1-1.5C71.5,23.8,71,23.8,70.5,24"/>
	</defs>
	<clipPath id="SVGID_00000093899238315373094290000017437083913922648994_">
		<use xlink:href="#SVGID_00000085222733534344803510000004347514876213051317_"  style="overflow:visible;"/>
	</clipPath>
	
		<linearGradient id="SVGID_00000106123791074115239530000015120352744942244494_" gradientUnits="userSpaceOnUse" x1="-27.6438" y1="511.8618" x2="-26.8438" y2="511.8618" gradientTransform="matrix(1.5121 43.2992 43.2992 -1.5121 -22061.7422 1995.1382)">
		<stop  offset="0" style="stop-color:#178FC9"/>
		<stop  offset="0.5443" style="stop-color:#178FC9"/>
		<stop  offset="0.7257" style="stop-color:#178EC8"/>
		<stop  offset="0.8176" style="stop-color:#1489C4"/>
		<stop  offset="0.8893" style="stop-color:#1181BE"/>
		<stop  offset="0.9503" style="stop-color:#0E76B6"/>
		<stop  offset="1" style="stop-color:#0C68AC"/>
	</linearGradient>
	
		<polygon style="clip-path:url(#SVGID_00000093899238315373094290000017437083913922648994_);fill:url(#SVGID_00000106123791074115239530000015120352744942244494_);" points="
		103,20.8 104.4,60.2 17.5,63.2 16.2,23.8 	"/>
</g>
<g>
	<path class="st1" d="M16.3,104.1c1.6-2.3,3.7-3.4,6.3-3.4c1.8,0,3.5,0.7,5,2c1.1,0.9,2.1,1.4,3.1,1.4c0.7,0,1.4-0.2,2-0.5
		c0.6-0.4,1.3-1,2-1.9l2.3,2c-1.6,2.3-3.7,3.4-6.3,3.4c-1.8,0-3.5-0.6-5-2c-1.1-0.9-2.1-1.4-3.1-1.4c-0.7,0-1.4,0.2-2,0.5
		c-0.6,0.4-1.3,1-2.1,2L16.3,104.1z"/>
	<path class="st1" d="M42.7,104.1c-1.3-1.2-2.7-2.4-4.2-3.5l1.7-2c1.3,0.9,2.7,2.1,4.2,3.4L42.7,104.1z M44.7,106.4
		c-0.8,2.8-1.9,5.3-3.3,7.5l-2.4-1.5c1.3-2.1,2.4-4.4,3.2-7L44.7,106.4z M39.6,95.6l1.7-2c1.3,0.9,2.5,1.9,3.8,3l-1.7,2.1
		C42.3,97.7,41,96.7,39.6,95.6z M44,113.8l-0.3-2.4c1-0.1,1.7-0.2,2.2-0.3v-7.2h2.9v1.7h3.1v2.4h-3.1v2.5c0.9-0.2,1.9-0.4,3-0.7
		l0.3,2.4C49.4,113,46.7,113.5,44,113.8z M48.8,103.1h-2.9V94h13v9.2H48.8z M48.8,97.7h7.1v-1.4h-7.1V97.7z M48.8,99.6v1.4h7.1v-1.4
		H48.8z M56.2,113.6c-0.5,0-1,0-1.6,0c-0.9,0-1.4-0.2-1.6-0.3c-0.2-0.2-0.3-0.6-0.3-1.3v-8.1h2.9v2c1.1-0.4,2.3-1,3.5-1.7l1,2.2
		c-1.5,0.8-3.1,1.5-4.5,2v2.5c0,0.2,0,0.3,0,0.4c0,0,0.1,0.1,0.3,0.1c0,0,0.1,0,0.2,0s0.2,0,0.2,0s0.2,0,0.3,0s0.2,0,0.3,0
		c0.1,0,0.2,0,0.2,0c0.1,0,0.1,0,0.2-0.1c0.1-0.1,0.1-0.2,0.1-0.2c0-0.1,0-0.3,0.1-0.5c0-0.2,0-0.5,0.1-0.7s0-0.7,0-1.1v0l2.4,0.3
		c0,0.8-0.1,1.4-0.1,1.9s-0.1,0.9-0.2,1.3s-0.2,0.7-0.2,0.9c-0.1,0.2-0.2,0.3-0.4,0.5c-0.2,0.1-0.4,0.2-0.5,0.2
		c-0.2,0-0.5,0.1-0.8,0.1C57.2,113.6,56.6,113.6,56.2,113.6z"/>
	<path class="st1" d="M65.6,103.9c-1.2-1.1-2.6-2.2-4.3-3.3l1.6-2.1c1.6,1.1,3,2.2,4.3,3.3L65.6,103.9z M67.7,106.2
		c-0.8,2.9-1.9,5.5-3.4,7.7l-2.4-1.5c1.3-2.1,2.5-4.5,3.3-7.1L67.7,106.2z M80,107.8l2.9,0.6c0,0.9-0.1,1.7-0.1,2.2
		c0,0.5-0.1,1-0.3,1.4s-0.3,0.8-0.5,1c-0.2,0.2-0.5,0.3-0.9,0.5s-0.9,0.2-1.3,0.2c-0.5,0-1.1,0-2,0c-0.7,0-1.3,0-1.8,0
		s-0.8-0.1-1.2-0.1s-0.6-0.2-0.8-0.3s-0.3-0.3-0.4-0.5c-0.1-0.2-0.2-0.5-0.2-0.8c0-0.3,0-0.6,0-1.1v-3.4h-2v2.3h-2.8v-9.9h2.8v5.1h2
		v-6.5c-1.9,0.2-3.6,0.2-5.2,0.3l-0.3-2.2l-1.4,2c-1.2-1-2.6-1.9-4-2.8l1.5-2.1c1.4,0.8,2.6,1.7,3.8,2.6c1.9-0.1,3.8-0.2,5.5-0.3
		v-2.4h3v2.1c2.3-0.3,4-0.7,5.3-1l0.6,2.6c-1.6,0.5-3.5,0.8-5.9,1.1v6.8h2.3v-5.5h2.9v8h-5.2v2.9c0,0.4,0.1,0.6,0.2,0.6
		c0.2,0.1,0.7,0.1,1.6,0.1c0.8,0,1.3-0.1,1.5-0.4C79.8,110.5,79.9,109.5,80,107.8z"/>
	<path class="st1" d="M96.6,110c1.6-0.2,2.9-0.9,3.8-1.9c0.9-1.1,1.3-2.5,1.3-4.4c0-1.6-0.5-2.9-1.4-4c-1-1.1-2.2-1.7-3.8-1.9
		c-0.4,2.9-0.8,5.3-1.3,7.2s-1,3.4-1.6,4.4s-1.2,1.7-1.8,2.1s-1.3,0.6-2.1,0.6c-1.2,0-2.4-0.7-3.4-2.1c-1-1.4-1.5-3.1-1.5-5.1
		c0-2.9,1-5.3,3-7.1s4.6-2.7,7.8-2.7c2.6,0,4.8,0.8,6.5,2.4s2.6,3.7,2.6,6.2c0,2.6-0.7,4.7-2,6.3c-1.3,1.6-3.1,2.5-5.4,2.7L96.6,110
		z M93.6,98c-1.8,0.3-3.3,1.1-4.3,2.4c-1,1.2-1.6,2.8-1.6,4.6c0,1.1,0.2,2.2,0.7,3.1c0.5,0.9,0.9,1.3,1.3,1.3c0.2,0,0.4-0.1,0.7-0.3
		c0.2-0.2,0.5-0.6,0.8-1.1c0.3-0.5,0.6-1.2,0.8-2.1c0.3-0.8,0.5-1.9,0.8-3.3S93.4,99.7,93.6,98z"/>
	<path class="st1" d="M127.9,102.1h-2v1.8h2v2.4h-2v3.8c0,0.6,0,1.1,0,1.5c0,0.4-0.1,0.7-0.2,1c-0.1,0.3-0.2,0.5-0.4,0.7
		c-0.1,0.1-0.4,0.3-0.7,0.4c-0.3,0.1-0.6,0.2-1,0.2c-0.3,0-0.8,0-1.5,0c-0.4,0-1.4,0-2.8-0.1l-0.1-2.4c1.3,0.1,2.1,0.1,2.4,0.1
		c0.6,0,1,0,1.1-0.1c0.1-0.1,0.1-0.4,0.1-1v-4h-5.6c1.1,1,2.1,2.1,3.2,3.3l-2,1.8c-1.1-1.3-2.2-2.4-3.3-3.5l1.8-1.6h-2.2v5.7h-4.4
		v1.3h-2.7v-19h7.2v5.4h5.3v-2.1h-4.4v-2.4h4.4V93h3v2.2h4.2v2.4h-4.2v2.1h5V102.1z M110.2,101.8h1.8v-4.9h-1.8V101.8z M110.2,104.3
		v5.3h1.8v-5.3H110.2z M114.7,102.1v1.8h8.2v-1.8H114.7z"/>
	<path class="st1" d="M134.8,99.7V114h-2.9v-9.8c-0.6,0.9-1.1,1.5-1.5,2l-1.3-2.9c2.3-2.8,3.9-6.1,4.7-9.9l2.8,0.5
		C136.3,96,135.7,97.9,134.8,99.7z M140.9,93.5h2.9c0,1.9,0.1,3.6,0.2,5.2l6.3-0.6l0.2,2.6l-6.2,0.6c0.3,2,0.6,3.7,1.1,5.3
		c0.4,1.5,0.9,2.6,1.2,3.3c0.4,0.7,0.7,1,0.9,1c0.1,0,0.2-0.1,0.3-0.2c0.1-0.2,0.2-0.5,0.3-1c0.1-0.5,0.2-1.3,0.4-2.4l2.4,1
		c-0.2,2.1-0.6,3.6-1.2,4.5c-0.6,0.9-1.2,1.4-2,1.4c-0.5,0-1-0.1-1.5-0.3c-0.5-0.2-1-0.6-1.5-1.2s-1-1.3-1.5-2.2
		c-0.4-0.9-0.8-2.1-1.2-3.6c-0.4-1.5-0.7-3.2-0.9-5.2l-5.4,0.5l-0.2-2.6l5.4-0.5C141,97.4,140.9,95.6,140.9,93.5z M144.7,94.7
		l1.9-1.7c1.1,1,2.3,2.1,3.5,3.3l-1.9,1.7C147.1,96.8,145.9,95.7,144.7,94.7z"/>
	<path class="st1" d="M170.4,110l0.2,2.6c-2,0.3-4,0.5-5.9,0.5c-2.8,0-4.9-0.3-6.1-1s-1.9-1.7-1.9-3.1c0-1.1,0.5-2.2,1.6-3.1
		s2.6-1.8,4.8-2.5c-0.3-0.7-1-1.1-1.9-1.1c-1.6,0-3.5,1.5-5.7,4.6l-2.4-1.4c1.8-2.5,3.2-4.8,4.1-7h-3.9V96h4.9
		c0.3-0.8,0.6-1.6,0.9-2.5L162,94c-0.2,0.5-0.4,1.2-0.7,2h9.4v2.4h-10.4c-0.2,0.4-0.5,1.1-0.9,1.9l0,0c0.8-0.3,1.6-0.5,2.3-0.5
		c2,0,3.4,0.9,4.1,2.7c1.6-0.3,3.2-0.6,4.8-0.8l0.2,2.5c-1.3,0.2-2.8,0.4-4.4,0.7c0.1,1,0.2,2.2,0.2,3.5h-3c0-1.2,0-2.1-0.1-2.7
		c-1.2,0.4-2.2,0.9-2.8,1.3s-1,1-1,1.5c0,0.4,0.1,0.8,0.3,1c0.2,0.3,0.7,0.5,1.5,0.7c0.8,0.2,1.8,0.3,3.2,0.3
		C166.3,110.6,168.2,110.4,170.4,110z"/>
	<path class="st1" d="M175,99.8v-2.4h8v2.4H175z M175.6,96.4v-2.3h7v2.3H175.6z M195.4,101.8v4.9h-2.7v-2.7H186v1h2.5
		c0,1.8-0.2,3.3-0.5,4.5c-0.3,1.2-0.8,2.1-1.4,2.8c-0.6,0.7-1.5,1.3-2.6,1.8l-1.3-2.1v1.2h-4.6v0.8h-2.5v-6.9h7.1v4.5
		c0.9-0.5,1.6-1.1,2.1-1.8s0.7-1.7,0.9-3h-2.4v-5.2H195.4z M175.8,103v-2.2h6.8v2.2H175.8z M175.8,106.2V104h6.8v2.2H175.8z
		 M178.2,111.2h2.3v-1.7h-2.3V111.2z M195.7,94.9v2.4h-4.9v1.2h4.1v2.3h-10.8v-2.3h3.7v-1.2h-4.4v-2.4h4.4v-1.7h3v1.7H195.7z
		 M189.2,105.1h2.8v5.9c0,0.2,0,0.4,0.1,0.4c0.1,0,0.2,0.1,0.5,0.1c0.3,0,0.5-0.1,0.6-0.4c0.1-0.3,0.1-1.2,0.1-2.8l2.5,0.3
		c0,0.8-0.1,1.3-0.1,1.7c0,0.4,0,0.8-0.1,1.3c-0.1,0.5-0.1,0.8-0.1,1s-0.1,0.4-0.3,0.6c-0.2,0.2-0.3,0.4-0.4,0.4
		c-0.1,0.1-0.3,0.1-0.6,0.2c-0.3,0.1-0.5,0.1-0.8,0.1c-0.2,0-0.6,0-1.1,0c-0.5,0-1,0-1.3,0c-0.3,0-0.6-0.1-0.9-0.1
		c-0.3-0.1-0.5-0.1-0.6-0.2c-0.1-0.1-0.2-0.2-0.3-0.5c-0.1-0.2-0.1-0.5-0.2-0.7c0-0.2,0-0.6,0-1V105.1z"/>
	<path class="st1" d="M199.8,97.5v-2.6h9.4v2.6c-0.1,0.8-0.2,2.1-0.5,4.1c1.1,0.1,2.3,0.2,3.5,0.5c0-1,0-2.8,0-5.4h2.9
		c0,2.2,0,4.3-0.1,6.2c1.2,0.5,2.4,1.1,3.6,1.8l-1.3,2.4c-0.8-0.6-1.7-1-2.5-1.4c-0.1,1.1-0.3,2.1-0.5,2.9c-0.2,0.8-0.6,1.5-1,2
		c-0.4,0.6-0.9,1.1-1.4,1.4c-0.5,0.4-1.2,0.8-2.1,1.3l-1.5-2.4c0.7-0.4,1.3-0.7,1.6-1s0.7-0.6,1.1-1.1c0.3-0.5,0.6-1,0.7-1.7
		c0.2-0.7,0.3-1.5,0.4-2.5c-1.3-0.4-2.6-0.6-3.8-0.7c-0.2,1.5-0.5,2.7-0.8,3.7s-0.6,1.9-0.8,2.5c-0.3,0.6-0.6,1.1-1,1.5
		c-0.4,0.4-0.7,0.6-1.1,0.7c-0.4,0.1-0.8,0.2-1.3,0.2c-1.3,0-2.4-0.6-3.5-1.8c-1.1-1.2-1.6-2.5-1.6-4c0-1.4,0.7-2.6,2-3.6
		c1.3-1,3.2-1.6,5.5-1.9c0.2-1.4,0.3-2.8,0.5-4.1H199.8z M205.3,104.3c-1.4,0.2-2.4,0.5-3.1,1c-0.7,0.5-1.1,1.1-1.1,1.8
		c0,0.6,0.2,1.2,0.7,1.8c0.5,0.6,0.9,0.9,1.3,0.9C204,109.8,204.7,108,205.3,104.3z"/>
	<path class="st1" d="M238.1,108h3.2v2.5h-3.2v3.6h-2.9v-3.6h-4.4V108h4.4v-2.2H233c-0.3,0.6-0.6,1.3-0.9,2l-1.7-0.7v3.3
		c0,0.9,0,1.6,0,2.1s-0.1,0.8-0.3,1.1c-0.2,0.3-0.4,0.4-0.6,0.5c-0.2,0.1-0.6,0.1-1,0.1c-0.4,0-1.4,0-2.9-0.1l-0.1-2.4
		c1.1,0.1,1.8,0.1,2,0.1c0.3,0,0.5,0,0.5-0.1s0.1-0.4,0.1-0.9v-1.4h-4.4c-0.2,2.1-0.6,3.7-1.1,5.1l-2.3-2c0.4-1.1,0.7-2.3,0.9-3.7
		c0.2-1.4,0.2-3.6,0.2-6.6v-1.3l-1.1-0.7c1.3-2,2.2-4.4,2.8-7.1l2.8,0.3c0,0.3-0.1,0.6-0.2,1.2h3.7v2.3c-0.2,0.5-0.4,1.1-0.6,1.6
		h1.8v2.1c1.7-0.9,2.7-2.2,3-3.9h-2.7V94h10.5c0,1.2-0.1,2.2-0.1,2.9c0,0.7-0.1,1.4-0.2,2c-0.1,0.6-0.2,1.1-0.3,1.3
		c-0.1,0.3-0.3,0.5-0.5,0.7c-0.2,0.2-0.4,0.3-0.7,0.3c-0.2,0-0.5,0.1-0.9,0.1c-0.7,0-1.7,0-3.2-0.1l-0.2-2c-0.6,1-1.3,1.9-2.3,2.6
		l1.4,0.2c0,0.1-0.1,0.5-0.3,1.2h1.5v-1.5h2.8v1.5h2.8v2.4h-2.8V108z M223.7,104.7c0,0.1,0,0.8-0.1,2.1h1.1v-2.1H223.7z
		 M223.7,102.6h1v-2h-1V102.6z M225.6,98.2c0.3-0.6,0.5-1.1,0.7-1.6h-1.7c-0.3,0.7-0.5,1.3-0.7,1.6H225.6z M226.8,102.6h1v-2h-1
		V102.6z M226.8,104.7v2.1h1v-2.1H226.8z M231.4,102.6l-1.1-1.7v4.6C230.6,104.7,231,103.8,231.4,102.6z M236,96.4
		c-0.1,0.9-0.4,1.7-0.7,2.5c0.8,0.1,1.4,0.1,1.8,0.1c0.4,0,0.7-0.1,0.8-0.4c0.1-0.3,0.2-1,0.2-2.2H236z"/>
	<path class="st1" d="M257.3,93.6l1.9,2.3c-2.8,2.1-5.5,4-8,5.6c-0.9,0.6-1.5,1-1.7,1.2c-0.3,0.2-0.4,0.4-0.4,0.7
		c0,0.2,0.1,0.4,0.3,0.6c0.2,0.2,0.8,0.6,1.6,1.2c3,2,5.9,4.2,8.9,6.7l-2,2.2c-3.1-2.5-5.9-4.6-8.6-6.5c-1.6-1.1-2.7-1.9-3-2.4
		c-0.4-0.4-0.6-1-0.6-1.8c0-0.8,0.2-1.4,0.6-1.9s1.4-1.2,3.1-2.2C252,97.4,254.7,95.6,257.3,93.6z"/>
	<path class="st1" d="M271.9,94.5h3.2l-0.5,6.3h-2.3L271.9,94.5z M276.7,94.5h3.2l-0.5,6.3h-2.3L276.7,94.5z"/>
	<path class="st1" d="M288.1,104.1v-2.6h4.6v-3.9h-1.1c-0.4,1.2-0.9,2.4-1.4,3.5l-2.4-1c1-2.2,1.8-4.6,2.3-7.2l2.6,0.4
		c-0.1,0.5-0.2,1.1-0.4,1.8h5.9v2.5h-2.5v3.9h3.4v-6.8h9.3v18.9h-2.9v-1.3h-3.7v1.3H299v-2.7l-2.2,1.6c-0.9-1.6-1.8-3-2.5-4.3
		c-1.1,2.5-2.6,4.4-4.5,5.6l-1.7-2.3c2.5-1.8,4-4.3,4.5-7.4H288.1z M295.5,104.1c0,0.3-0.1,0.6-0.2,0.9c1.5,2.3,2.8,4.2,3.7,5.8
		v-6.8H295.5z M301.8,109.8h3.7V97.2h-3.7V109.8z"/>
	<path class="st1" d="M328.6,113.8c-1.6,0-3.3,0-5-0.1l-0.1-2.6c1.4,0.1,2.6,0.1,3.8,0.1c0.2,0,0.4-0.2,0.6-0.7
		c0.1-0.5,0.3-1.7,0.4-3.6c0.1-1.9,0.2-4.8,0.3-8.6h-4.9c-0.6,1.3-1.3,2.5-1.9,3.5l2-1.2c1.3,1.8,2.5,3.7,3.5,5.9l-2.4,1.2
		c-1-1.9-2.1-3.7-3.4-5.6c-0.4,0.6-0.7,1-1,1.3l-0.8-0.8v9.4h-5.7v1.7H311V96.2h2.5c0.4-1.1,0.7-2.1,0.9-3.1l2.9,0.3
		c-0.2,0.9-0.5,1.9-0.8,2.8h3.1v3.7c1.3-2,2.3-4.3,2.9-6.8l2.8,0.3c-0.2,1-0.5,1.7-0.7,2.4h6.8c0,2.2-0.1,4.1-0.1,5.7
		c0,1.6-0.1,3.1-0.2,4.4c-0.1,1.3-0.1,2.4-0.2,3.2c-0.1,0.8-0.2,1.6-0.3,2.2c-0.1,0.6-0.2,1.1-0.4,1.4s-0.3,0.6-0.5,0.8
		s-0.4,0.3-0.6,0.3C329.1,113.8,328.9,113.8,328.6,113.8z M313.8,102.9h2.9v-4.2h-2.9V102.9z M313.8,105.3v4.3h2.9v-4.3H313.8z"/>
	<path class="st1" d="M353.9,111.3l-1,2.6c-3.9-0.9-7-2.1-9.2-3.5c-2.2,1.4-5.3,2.6-9.2,3.5l-1-2.6c3.5-0.9,6.1-1.8,7.8-2.8
		c-1.3-1.3-2.4-2.9-3.3-4.8l2.8-1c0.8,1.7,1.7,3.1,2.8,4.1c1.1-1.1,2-2.4,2.8-4.1l2.8,1c-0.9,2-2,3.6-3.3,4.9
		C347.7,109.5,350.3,110.4,353.9,111.3z M351.8,104.9c-2-1.8-4.2-3.6-6.7-5.3l1.2-1.5h-5.6l1.5,1.4c-1.7,2.2-4.1,4-7.1,5.5l-1.4-2.4
		c2.4-1.2,4.4-2.7,6-4.5h-6v-2.6h8.4V93h3.1v2.6h8.4v2.6h-5.7c2.1,1.5,4.1,3.1,5.8,4.7L351.8,104.9z"/>
	<path class="st1" d="M370.5,98.6l2.6-1.1c1.4,1.9,2.7,3.7,3.8,5.5l-2.5,1.3c-0.4-0.7-0.7-1.3-1-1.6c-4.4,0.5-8.5,0.8-12.4,1l0-1.3
		l-1.5,1.8c-1.2-1.1-2.6-2.3-4.1-3.5l1.7-2c1.4,1,2.7,2.1,3.9,3.2l0-0.7c1.2,0,2-0.1,2.6-0.1c0.6-1.2,1.1-2.5,1.6-3.8h-4l-1.2,1.4
		c-1.2-1.1-2.4-2.1-3.7-3.1l1.7-2c1.1,0.8,2.2,1.7,3.2,2.5v-1.4h6.1V93h3.1v1.7h6.3v2.5h-8.4c-0.4,1.1-0.9,2.3-1.5,3.6
		c1.9-0.1,3.6-0.3,5.1-0.4C371.6,100,371.1,99.4,370.5,98.6z M361.4,106.6c-0.8,2.8-1.9,5.2-3.2,7.3l-2.4-1.5c1.2-2,2.3-4.3,3.1-6.8
		L361.4,106.6z M362.7,104.2h2.9c0,2.9-0.3,5.1-0.9,6.6s-1.7,2.6-3.2,3.5l-1.9-2.2c1.2-0.7,2-1.6,2.5-2.7
		C362.4,108.2,362.7,106.5,362.7,104.2z M366.6,113.7v-9.5h2.9v9.5H366.6z M371,103.9h2.9v6.9c0,0.3,0,0.5,0.1,0.6
		c0,0.1,0.2,0.1,0.4,0.1c0.3,0,0.4-0.2,0.5-0.5c0.1-0.3,0.1-1.5,0.2-3.4l2.2,0.3c0,0.7,0,1.2,0,1.6c0,0.4,0,0.8-0.1,1.3
		c0,0.5-0.1,0.8-0.1,1s-0.1,0.5-0.2,0.7c-0.1,0.3-0.2,0.5-0.2,0.6c-0.1,0.1-0.2,0.2-0.3,0.4c-0.2,0.1-0.3,0.2-0.4,0.2
		c-0.1,0-0.3,0.1-0.6,0.1c-0.3,0-0.5,0.1-0.7,0.1s-0.5,0-0.9,0c-1.2,0-1.9-0.1-2.2-0.3c-0.3-0.2-0.4-0.7-0.4-1.5V103.9z"/>
	<path class="st1" d="M379.1,98h3.7v-3.9h2.9V98h6.3v-3.9h3.1V98h3.7v2.7h-3.7v1.3c0,3.6-0.8,6.3-2.5,7.9c-1.7,1.7-4.5,2.7-8.6,3
		l-0.6-2.7c3.4-0.3,5.6-1.1,6.8-2.2c1.2-1.1,1.8-3.2,1.8-6v-1.3h-6.3v4.6h-2.9v-4.6h-3.7V98z"/>
	<path class="st1" d="M406,112.1h-3.2V95.4h17.8v16.6H406z M406,109.3h11.5V98.2H406V109.3z"/>
	<path class="st1" d="M426,97.6l1.5-2.7c2.3,1.1,4.6,2.3,7,3.7l-1.5,2.7C430.9,100.1,428.6,98.9,426,97.6z M441.3,97.1l2.9,0.6
		c-0.8,4.5-2.6,7.9-5.4,10.4c-2.8,2.4-6.8,3.8-11.8,4.3l-0.5-2.9c4.4-0.4,7.8-1.6,10.1-3.6C438.9,103.9,440.5,101,441.3,97.1z"/>
	<path class="st1" d="M452.9,94.5h3.2l-0.5,6.3h-2.3L452.9,94.5z M457.6,94.5h3.2l-0.5,6.3h-2.3L457.6,94.5z"/>
	<path class="st1" d="M463.2,104.1c1.6-2.3,3.7-3.4,6.3-3.4c1.8,0,3.5,0.7,5,2c1.1,0.9,2.1,1.4,3.1,1.4c0.7,0,1.4-0.2,2-0.5
		s1.3-1,2-1.9l2.3,2c-1.6,2.3-3.7,3.4-6.3,3.4c-1.8,0-3.5-0.6-5-2c-1.1-0.9-2.1-1.4-3.1-1.4c-0.7,0-1.4,0.2-2,0.5
		c-0.6,0.4-1.3,1-2.1,2L463.2,104.1z"/>
</g>
</svg>
