<?xml version="1.0" encoding="utf-8"?>
<!-- Generator: Adobe Illustrator 15.1.0, SVG Export Plug-In . SVG Version: 6.00 Build 0)  -->
<!DOCTYPE svg PUBLIC "-//W3C//DTD SVG 1.1//EN" "http://www.w3.org/Graphics/SVG/1.1/DTD/svg11.dtd">
<svg version="1.1" id="レイヤー_1" xmlns="http://www.w3.org/2000/svg" xmlns:xlink="http://www.w3.org/1999/xlink" x="0px"
	 y="0px" width="600px" height="213px" viewBox="0 0 600 213" enable-background="new 0 0 600 213" xml:space="preserve">
<path fill="#FFF100" d="M524.401,48.799L506.02,22.625c-1.791-2.552-5.809-4.64-8.928-4.64H92.689
	C80.893,4.594,62.605-2.513,43.745,0.813C14.959,5.89-4.263,33.34,0.812,62.128c5.076,28.786,32.528,48.011,61.314,42.934
	c12.306-2.17,22.854-8.438,30.514-17.143h404.452c3.119,0,7.164-2.068,8.987-4.597l18.261-25.288
	C526.166,55.507,526.194,51.351,524.401,48.799z"/>
<g>
	<g>
		<g>
			<path fill="#FFFFFF" d="M45.056,208.948v3.776h-1.511v-23.492c-2.016,4.281-4.583,8.359-7.705,12.236l-1.208-0.906
				c5.438-6.696,9.392-14.604,11.859-23.72H37.88v-1.511h8.989c0.905-3.675,1.586-7.578,2.04-11.708H35.991v-1.511h13.144
				c0.302-3.475,0.453-7.127,0.453-10.953H38.635v-1.512H67.34v12.465h4.155v1.511H67.34v13.219H48.077
				c-1.009,3.677-2.065,6.825-3.173,9.442h22.812v26.438h-1.511v-3.775L45.056,208.948L45.056,208.948z M66.207,207.438v-19.641
				H45.056v19.641H66.207z M48.455,175.333h17.374v-11.708H50.495C50.041,167.755,49.361,171.658,48.455,175.333z M65.829,151.161
				h-14.73c0,3.827-0.15,7.479-0.453,10.953h15.184V151.161z M105.486,193.085v1.511H88.868v18.885h-1.512v-18.885H69.983v-1.511
				h17.374v-16.241H71.872v-1.511h15.484v-15.485H70.739v-1.511h22.587c2.014-4.33,3.701-8.435,5.061-12.312l1.36,0.453
				c-1.36,3.828-2.946,7.779-4.76,11.858h9.744v1.511H88.868v15.485h14.729v1.511H88.868v16.241H105.486z M76.857,146.553
				l1.36-0.604c1.812,3.826,3.324,7.353,4.532,10.574l-1.36,0.604C79.929,153.251,78.418,149.727,76.857,146.553z"/>
			<path fill="#FFFFFF" d="M115.76,211.214c2.971-5.438,5.488-11.305,7.554-17.601l1.36,0.453
				c-2.266,6.85-4.785,12.816-7.554,17.902L115.76,211.214z M123.238,188.553V149.65h53.256v1.511h-26.816v10.575h24.55v1.511
				h-24.55V174.2h24.55v1.511h-24.55v11.331h30.216v0.755c0,9.064-0.642,15.423-1.926,19.074c-1.284,3.65-3.539,5.477-6.761,5.477
				c-2.821,0-6.245-0.253-10.273-0.756l0.151-1.511c4.632,0.503,8.007,0.756,10.122,0.756c1.058,0,1.938-0.215,2.644-0.644
				c0.705-0.428,1.437-1.334,2.191-2.719s1.333-3.664,1.736-6.836c0.402-3.174,0.604-7.201,0.604-12.087L123.238,188.553
				L123.238,188.553z M148.166,161.736v-10.575h-23.417v10.575H148.166z M148.166,163.247h-23.417V174.2h23.417V163.247z
				 M148.166,175.711h-23.417v11.331h23.417V175.711z M133.813,194.369l1.512-0.303c1.309,5.339,2.315,10.525,3.021,15.562
				l-1.511,0.151C136.129,204.895,135.123,199.758,133.813,194.369z M148.241,193.538l1.359-0.528
				c2.064,5.237,3.601,9.594,4.608,13.067l-1.512,0.454C151.438,202.251,149.953,197.919,148.241,193.538z M162.594,193.085
				l1.359-0.756c2.366,3.879,4.381,7.403,6.043,10.576l-1.36,0.755C166.874,200.389,164.86,196.861,162.594,193.085z"/>
			<path fill="#FFFFFF" d="M227.104,153.427h-14.729v21.529h11.708v1.511h-11.708v27.27c6.294-1.862,11.104-3.5,14.428-4.909
				l0.604,1.358c-7.504,3.225-18.885,6.522-34.144,9.896l-0.302-1.512c0.453-0.102,1.46-0.327,3.021-0.68
				c1.562-0.354,2.744-0.629,3.55-0.83V166.27h1.512v40.412c1.511-0.352,4.784-1.207,9.819-2.567v-50.688h-16.24v-1.511h32.48v1.511
				H227.104z M234.657,163.7l1.511-0.15c1.511,12.388,4.607,22.233,9.292,29.535c6.244-8.158,10.046-19.489,11.406-33.992H235.11
				c-2.519,7.906-5.464,14.831-8.838,20.772l-1.358-0.756c5.438-9.467,9.441-20.471,12.01-33.01l1.511,0.303
				c-0.706,3.475-1.662,7.201-2.87,11.18h28.932v1.511h-6.119c-1.36,15.158-5.363,26.942-12.011,35.353
				c4.129,5.943,10.047,11.33,17.751,16.166l-0.756,1.207c-7.855-4.935-13.85-10.321-17.978-16.164
				c-5.439,6.496-13.321,11.908-23.645,16.24l-0.604-1.359c10.123-4.23,17.903-9.618,23.342-16.165
				C239.441,186.715,236.168,176.492,234.657,163.7z"/>
			<path fill="#FFFFFF" d="M297.43,168.006l1.36-0.604c2.517,6.193,4.431,12.312,5.74,18.355l-1.511,0.303
				c-0.653-2.668-1.058-4.33-1.209-4.985l-11.632,0.604v31.801h-1.511v-31.727l-14.277,0.756l-0.151-1.511l4.91-0.228
				c1.007-1.106,3.021-3.523,6.043-7.252c-3.676-6.496-6.874-11.936-9.593-16.315l1.208-0.755c0.201,0.353,0.529,0.881,0.982,1.586
				c0.454,0.706,0.869,1.373,1.247,2.002c0.378,0.63,0.742,1.222,1.095,1.773c2.871-3.978,6.119-9.037,9.745-15.183l1.359,0.755
				c-2.972,5.087-6.396,10.35-10.272,15.788c3.122,5.338,4.884,8.358,5.288,9.063c4.732-6.043,9.089-12.312,13.067-18.81
				l1.359,0.757c-5.59,9.114-12.061,17.928-19.413,26.438l20.169-1.059C300.376,175.889,299.041,172.036,297.43,168.006z
				 M275.146,208.344c2.618-6.949,4.23-14.074,4.834-21.377l1.512,0.15c-0.604,7.051-2.267,14.277-4.985,21.68L275.146,208.344z
				 M296.977,186.814l1.511-0.303c1.409,5.641,2.417,11.457,3.021,17.45l-1.511,0.149
				C299.443,198.625,298.437,192.857,296.977,186.814z M324.17,209.326h18.885v1.511h-41.924v-1.511h21.528v-18.131h-16.995v-1.51
				h16.995v-11.709h1.511v11.709h16.618v1.51H324.17V209.326z M308.836,155.014l1.209-0.906c4.129,5.791,8.938,10.953,14.428,15.485
				c5.992-4.633,10.751-10.651,14.277-18.054h-35.354v-1.512h37.014v1.512c-3.524,7.705-8.436,14.05-14.729,19.035
				c5.236,4.181,10.877,7.681,16.92,10.5l-0.604,1.359c-6.246-2.92-12.087-6.547-17.525-10.877
				c-4.734,3.524-10.803,6.646-18.205,9.365l-0.453-1.359c6.848-2.467,12.664-5.463,17.449-8.988
				C317.724,165.941,312.914,160.755,308.836,155.014z"/>
			<path fill="#FFFFFF" d="M353.48,209.93c4.834-4.834,8.309-10.271,10.424-16.315l1.359,0.454
				c-2.267,6.396-5.842,12.035-10.728,16.92L353.48,209.93z M372.288,154.636l1.209-0.905c1.058,1.511,2.392,3.601,4.004,6.27
				c2.617-1.511,4.935-3.146,6.949-4.91l1.058,1.209c-2.316,2.065-5.39,4.104-9.215,6.118c2.567,2.015,4.594,4.569,6.079,7.667
				c1.484,3.098,2.229,6.357,2.229,9.782c0,3.626-0.365,6.044-1.096,7.252c-0.73,1.209-2.379,1.813-4.947,1.813
				c-1.662,0-4.457-0.125-8.385-0.379l0.149-1.511c3.93,0.252,6.673,0.378,8.234,0.378c1.913,0,3.146-0.391,3.701-1.171
				c0.554-0.78,0.831-2.908,0.831-6.384c0-1.258-0.126-2.594-0.378-4.004c-6.346,5.037-15.334,9.141-26.968,12.312l-0.453-1.511
				c11.834-3.173,20.85-7.327,27.044-12.464c-0.453-1.711-1.285-3.575-2.493-5.59c-5.741,4.229-13.774,7.73-24.098,10.5
				l-0.453-1.512c10.373-2.818,18.28-6.244,23.72-10.272c-1.261-1.662-2.67-3.046-4.23-4.154c-5.338,2.619-11.684,4.91-19.035,6.874
				l-0.452-1.511c4.129-1.107,7.326-2.064,9.594-2.871c-1.613-3.021-3.174-5.688-4.685-8.007l1.209-0.906
				c1.511,2.266,3.146,5.061,4.909,8.385c3.878-1.46,7.177-2.92,9.896-4.381C374.906,158.438,373.598,156.398,372.288,154.636z
				 M356.954,153.805c11.481-1.662,20.219-3.9,26.211-6.723l0.605,1.359c-6.246,2.922-15.135,5.213-26.666,6.873L356.954,153.805z
				 M373.648,192.329h1.511v10.576c0,1.562,0,2.644,0,3.247c0,0.604,0.063,1.285,0.188,2.039c0.125,0.757,0.239,1.222,0.34,1.397
				c0.102,0.177,0.391,0.39,0.869,0.644c0.479,0.25,0.894,0.39,1.246,0.414c0.352,0.025,1.008,0.088,1.965,0.189
				c3.021,0.251,6.143,0.377,9.367,0.377c3.121,0,6.243-0.126,9.365-0.377c1.661-0.15,2.819-0.253,3.476-0.303
				c0.653-0.051,1.396-0.266,2.229-0.643c0.831-0.377,1.348-0.692,1.549-0.943c0.2-0.254,0.479-0.92,0.832-2.002
				c0.352-1.082,0.565-2.064,0.642-2.946c0.075-0.88,0.214-2.404,0.415-4.569l1.512,0.15c-0.203,2.217-0.367,3.865-0.492,4.947
				c-0.125,1.084-0.377,2.18-0.755,3.287c-0.378,1.105-0.718,1.851-1.02,2.228c-0.302,0.378-0.896,0.769-1.775,1.171
				c-0.882,0.402-1.751,0.654-2.605,0.756c-0.856,0.102-2.142,0.227-3.853,0.379c-3.173,0.25-6.346,0.377-9.518,0.377
				c-3.226,0-6.396-0.127-9.52-0.377c-2.82-0.254-4.521-0.857-5.099-1.813c-0.58-0.957-0.869-3.499-0.869-7.629V192.329z
				 M381.957,192.254l0.756-1.359c5.338,3.072,10.397,6.623,15.184,10.65l-0.906,1.209
				C392.508,198.928,387.496,195.427,381.957,192.254z M407.866,179.262c3.979,3.576,8.638,6.32,13.976,8.233l-0.453,1.358
				c-5.188-1.812-9.771-4.418-13.748-7.817c-3.979-3.397-7.025-7.313-9.14-11.746h-7.856v16.996
				c5.137-1.106,10.223-2.492,15.26-4.154l0.453,1.511c-7.052,2.317-14.252,4.08-21.604,5.289l-0.303-1.512
				c1.208-0.15,2.77-0.428,4.685-0.831v-37.694h28.704v20.396h-17.678c1.562,3.072,3.752,6.02,6.572,8.838
				c4.885-2.467,9.291-5.59,13.219-9.365l1.06,1.057C417.184,173.496,412.803,176.645,407.866,179.262z M390.645,158.337h25.684
				v-7.932h-25.684V158.337z M416.327,167.779v-7.932h-25.684v7.932H416.327z M409.303,192.405l1.209-0.906
				c4.48,5.942,8.283,12.036,11.406,18.28l-1.359,0.604C417.586,204.441,413.835,198.448,409.303,192.405z"/>
			<path fill="#FFFFFF" d="M434.456,161.357v-1.51h26.438v1.51H434.456z M436.723,151.161v-1.511h22.662v1.511H436.723z
				 M438.234,210.081v3.776h-1.512v-22.283h22.662v18.507H438.234z M437.102,171.936v-1.512h21.906v1.512H437.102z M437.102,182.51
				v-1.511h21.906v1.511H437.102z M438.234,208.57h19.64v-15.485h-19.64V208.57z M497.684,148.518l0.453,1.512
				c-5.037,1.461-10.273,2.693-15.713,3.701v14.806h17.752v1.511h-17.752v13.219h15.485v29.461h-1.512v-4.533h-29.46v4.533h-1.511
				v-29.461h15.485v-13.219h-18.508v-1.511h18.508v-14.504c-5.541,1.008-11.181,1.688-16.922,2.04l-0.149-1.512
				C475.523,153.755,486.805,151.74,497.684,148.518z M496.398,206.682v-21.906h-29.46v21.906H496.398z"/>
			<path fill="#FFFFFF" d="M547.236,146.251c9.567,8.36,20.571,15.938,33.01,22.737l-0.755,1.359
				c-12.036-6.547-23.113-14.201-33.236-22.965c-10.122,8.764-21.201,16.418-33.236,22.965l-0.756-1.359
				c12.438-6.799,23.44-14.377,33.01-22.737H547.236z M561.513,190.518l1.209-0.906c5.187,7.303,10.222,14.881,15.106,22.736
				l-1.208,0.756c-0.604-0.957-2.293-3.576-5.062-7.855c-18.885,3.271-37.141,5.262-54.766,5.967v-1.511
				c2.164-0.103,5.767-0.302,10.802-0.604c3.776-7.904,7.126-16.265,10.047-25.078h-22.359v-1.511h61.941v1.511h-37.996
				c-3.223,9.519-6.521,17.854-9.896,25.004c13.144-0.957,26.916-2.67,41.319-5.137
				C568.186,200.161,565.139,195.704,561.513,190.518z M525.104,170.424v-1.511h42.301v1.511H525.104z"/>
		</g>
	</g>
</g>
<g>
	<g>
		<path fill="#FFFFFF" d="M53.891,126.717c-1.616-0.749-2.79-1.123-3.521-1.123c-0.579,0-1.004,0.195-1.276,0.586
			c-0.272,0.394-0.408,1.047-0.408,1.965h-1.709c0-2.84,1.046-4.26,3.139-4.26c1.122,0,2.703,0.477,4.744,1.428
			c1.616,0.75,2.79,1.123,3.521,1.123c0.578,0,1.003-0.183,1.274-0.549c0.272-0.365,0.408-0.947,0.408-1.748h1.709
			c0,2.672-1.046,4.006-3.138,4.006C57.514,128.145,55.932,127.669,53.891,126.717z"/>
		<path fill="#FFFFFF" d="M74.887,124.318c-1.378-1.327-2.9-2.611-4.567-3.854l1.123-1.378c1.804,1.345,3.343,2.619,4.618,3.827
			L74.887,124.318z M76.647,127.559c-1.004,3.045-2.339,5.74-4.005,8.086l-1.606-1.045c1.633-2.348,2.941-4.916,3.929-7.705
			L76.647,127.559z M71.724,114.854l1.148-1.377c1.463,1.104,2.849,2.271,4.158,3.494l-1.174,1.377
			C74.581,117.158,73.203,115.992,71.724,114.854z M75.882,135.619l-0.23-1.658c1.26-0.17,2.203-0.306,2.832-0.408v-8.979h1.964
			v2.628h4.541v1.657h-4.541v4.338c1.311-0.256,2.866-0.631,4.669-1.122l0.255,1.633C82.158,134.607,78.995,135.246,75.882,135.619z
			 M80.397,123.629h-1.913v-9.72h14.083v9.72H80.397z M80.397,118.018h10.205v-2.5H80.397V118.018z M80.397,119.471v2.68h10.205
			v-2.68H80.397z M89.888,135.416c-0.51,0-1.14-0.018-1.888-0.051c-0.782-0.035-1.275-0.15-1.479-0.346
			c-0.204-0.196-0.306-0.634-0.306-1.312v-9.134h1.964v3.087c1.718-0.578,3.453-1.344,5.205-2.297l0.74,1.479
			c-2.041,1.105-4.022,1.939-5.944,2.5v3.648c0,0.34,0.025,0.545,0.077,0.612c0.051,0.066,0.229,0.109,0.536,0.127
			c0.237,0.018,0.621,0.025,1.147,0.025c0.527,0,0.928-0.009,1.199-0.025c0.477-0.018,0.765-0.119,0.867-0.307
			c0.17-0.238,0.314-1.25,0.434-3.035c0-0.035,0-0.094,0-0.18l1.786,0.204c-0.051,0.868-0.098,1.515-0.14,1.938
			c-0.043,0.426-0.106,0.858-0.191,1.301c-0.085,0.443-0.166,0.74-0.243,0.895c-0.075,0.152-0.213,0.307-0.407,0.459
			c-0.195,0.152-0.396,0.246-0.6,0.28s-0.502,0.06-0.893,0.077C90.9,135.398,90.279,135.416,89.888,135.416z"/>
		<path fill="#FFFFFF" d="M100.526,124.318c-1.377-1.327-2.899-2.611-4.565-3.854l1.123-1.378c1.802,1.345,3.342,2.619,4.618,3.827
			L100.526,124.318z M102.465,127.404c-1.004,3.062-2.373,5.809-4.107,8.24l-1.582-1.045c1.649-2.33,2.985-4.959,4.005-7.884
			L102.465,127.404z M97.133,114.854l1.147-1.377c1.548,1.172,2.942,2.338,4.185,3.494l-1.173,1.377
			C100.101,117.227,98.715,116.061,97.133,114.854z M117.772,128.809l1.914,0.356c-0.051,0.868-0.089,1.544-0.115,2.028
			c-0.024,0.483-0.085,0.986-0.178,1.506c-0.094,0.519-0.179,0.9-0.255,1.146c-0.077,0.246-0.221,0.497-0.434,0.754
			c-0.213,0.254-0.413,0.42-0.601,0.496c-0.188,0.077-0.479,0.157-0.88,0.242c-0.399,0.085-0.787,0.133-1.161,0.141
			c-0.374,0.01-0.893,0.014-1.556,0.014c-0.953,0-1.684-0.018-2.194-0.051c-0.51-0.035-0.97-0.094-1.378-0.18
			c-0.408-0.085-0.685-0.234-0.829-0.445c-0.145-0.213-0.251-0.459-0.318-0.74c-0.068-0.281-0.103-0.686-0.103-1.212v-4.541h-3.725
			v2.935h-1.889V119.98h1.889v6.634h3.725v-8.572c-1.956,0.238-4.048,0.392-6.275,0.46l-0.229-1.762
			c2.398-0.084,4.566-0.246,6.505-0.484v-3.086h2.017v2.807c2.482-0.375,4.668-0.867,6.557-1.479l0.459,1.733
			c-2.007,0.664-4.346,1.184-7.016,1.558v8.827h4.464v-6.965h1.914v8.674h-6.378v4.285c0,0.308,0.013,0.521,0.037,0.639
			c0.025,0.119,0.149,0.229,0.37,0.331c0.222,0.103,0.511,0.157,0.867,0.166c0.357,0.01,0.953,0.014,1.786,0.014
			c0.425,0,0.731,0,0.918,0c0.188,0,0.412-0.034,0.676-0.103c0.265-0.067,0.438-0.118,0.523-0.153
			c0.085-0.033,0.195-0.166,0.332-0.396c0.136-0.229,0.217-0.412,0.243-0.549c0.025-0.137,0.067-0.441,0.127-0.918
			s0.098-0.877,0.114-1.199C117.712,130.117,117.738,129.573,117.772,128.809z"/>
		<path fill="#FFFFFF" d="M135.784,132.559c2.041-0.221,3.631-1.028,4.771-2.424c1.14-1.395,1.709-3.248,1.709-5.562
			c0-2.159-0.714-3.946-2.143-5.357c-1.43-1.411-3.258-2.151-5.485-2.22c-0.357,3.3-0.804,6.089-1.339,8.367
			c-0.536,2.279-1.127,4.002-1.773,5.167c-0.646,1.165-1.292,1.98-1.938,2.448c-0.647,0.469-1.354,0.701-2.118,0.701
			c-1.225,0-2.352-0.738-3.38-2.22c-1.029-1.479-1.543-3.291-1.543-5.435c0-3.196,1.093-5.799,3.277-7.807
			c2.186-2.007,5.03-3.01,8.534-3.01c2.823,0,5.157,0.879,7.003,2.641c1.846,1.76,2.769,4,2.769,6.723
			c0,2.822-0.714,5.105-2.144,6.85c-1.429,1.744-3.367,2.719-5.815,2.921L135.784,132.559z M132.697,117.098
			c-2.518,0.308-4.527,1.269-6.033,2.883c-1.505,1.617-2.259,3.633-2.259,6.047c0,1.6,0.341,2.959,1.021,4.082
			c0.68,1.123,1.36,1.685,2.041,1.685c0.306,0,0.625-0.114,0.957-0.344s0.702-0.677,1.11-1.341c0.407-0.663,0.791-1.514,1.147-2.551
			c0.357-1.037,0.718-2.457,1.084-4.262C132.131,121.495,132.441,119.428,132.697,117.098z"/>
		<path fill="#FFFFFF" d="M149.84,133.578v1.633h-1.888v-20.919h7.117v19.286H149.84z M149.84,122.66h3.393v-6.633h-3.393V122.66z
			 M149.84,124.369v7.525h3.393v-7.525H149.84z M170.403,122.148h-2.5v2.857h2.5v1.684h-2.5v5.612c0,1.548-0.161,2.505-0.484,2.871
			c-0.323,0.365-1.165,0.548-2.525,0.548c-0.494,0-1.573-0.041-3.24-0.128l-0.075-1.709c1.563,0.085,2.567,0.127,3.01,0.127
			c0.663,0,1.05-0.071,1.161-0.217c0.109-0.144,0.166-0.625,0.166-1.44v-5.664h-10.077v-1.684h10.077v-2.857h-10.077v-1.709h6.378
			v-3.394h-5.23v-1.657h5.23v-2.729h1.99v2.729h5.28v1.657h-5.28v3.394h6.199v1.709H170.403z M157.111,128.73l1.302-1.274
			c1.563,1.327,2.976,2.737,4.234,4.235l-1.352,1.25C159.918,131.325,158.523,129.922,157.111,128.73z"/>
		<path fill="#FFFFFF" d="M177.521,120.439v15.537h-1.965V123.68c-0.765,1.275-1.53,2.365-2.296,3.266l-1.021-1.811
			c2.789-3.352,4.721-7.365,5.792-12.042l1.889,0.435C179.375,116.129,178.575,118.434,177.521,120.439z M185.812,113.066h1.939
			c0,2.076,0.093,4.065,0.281,5.971l7.704-0.689l0.127,1.735l-7.628,0.688c0.222,1.668,0.52,3.235,0.894,4.707
			s0.752,2.688,1.135,3.647c0.382,0.961,0.773,1.79,1.173,2.487s0.744,1.203,1.033,1.519c0.289,0.313,0.519,0.472,0.689,0.472
			c0.203,0,0.378-0.123,0.522-0.369s0.297-0.724,0.459-1.43c0.162-0.705,0.328-1.679,0.498-2.921l1.658,0.586
			c-0.477,4.236-1.479,6.354-3.01,6.354c-0.408,0-0.859-0.158-1.353-0.473c-0.494-0.314-1.029-0.852-1.606-1.607
			c-0.578-0.756-1.123-1.684-1.634-2.78c-0.51-1.096-0.99-2.513-1.44-4.247c-0.451-1.734-0.795-3.656-1.033-5.767l-7.322,0.663
			l-0.127-1.734l7.271-0.663C185.889,117.345,185.812,115.295,185.812,113.066z M189.409,114.088l1.25-1.225
			c1.599,1.242,3.026,2.509,4.285,3.801l-1.326,1.174C192.207,116.393,190.804,115.143,189.409,114.088z"/>
		<path fill="#FFFFFF" d="M218.391,134.268c-2.023,0.34-4.158,0.51-6.403,0.51c-3.112,0-5.361-0.36-6.747-1.084
			c-1.387-0.723-2.079-1.865-2.079-3.432c0-2.703,2.56-4.779,7.679-6.225c-0.239-0.781-0.558-1.326-0.957-1.633
			c-0.4-0.307-0.915-0.459-1.543-0.459c-1.021,0-2.173,0.494-3.457,1.479c-1.285,0.987-2.581,2.407-3.891,4.262l-1.557-0.996
			c2.092-2.907,3.801-5.851,5.127-8.826h-4.975v-1.633h5.664c0.391-0.953,0.773-1.99,1.147-3.112l1.837,0.434
			c-0.34,0.901-0.68,1.796-1.021,2.679h11.072v1.634h-11.762c-0.562,1.274-1.183,2.594-1.862,3.954l0.025,0.025
			c1.479-1.021,2.807-1.531,3.979-1.531c2.007,0,3.342,1.09,4.005,3.267c1.718-0.392,3.665-0.724,5.842-0.995l0.179,1.658
			c-2.312,0.306-4.2,0.63-5.664,0.97c0.222,1.274,0.332,2.935,0.332,4.976H211.4c0-1.838-0.077-3.334-0.229-4.49
			c-4.048,1.174-6.072,2.645-6.072,4.414c0,0.459,0.085,0.851,0.255,1.174c0.17,0.322,0.485,0.633,0.944,0.931
			s1.165,0.522,2.118,0.677c0.952,0.152,2.143,0.229,3.571,0.229c1.889,0,3.963-0.187,6.226-0.562L218.391,134.268z"/>
		<path fill="#FFFFFF" d="M223.901,119.268v-1.711h8.726v1.711H223.901z M224.615,115.645v-1.658h7.397v1.658H224.615z
			 M226.401,134.982v1.121h-1.785v-7.627h7.449v6.506H226.401z M224.794,122.863v-1.607h7.144v1.607H224.794z M224.794,126.486
			v-1.633h7.144v1.633H224.794z M226.401,133.375h3.954v-3.266h-3.954V133.375z M236.887,125.543h1.913
			c0,2.993-0.404,5.268-1.211,6.824c-0.809,1.557-2.13,2.742-3.967,3.559l-1.021-1.531c1.547-0.696,2.649-1.69,3.304-2.983
			C236.56,130.118,236.887,128.162,236.887,125.543z M246.658,114.904v1.633h-5.996v2.449h5.052v1.582h-12.042v-1.582h4.975v-2.449
			h-5.434v-1.633h5.434v-2.016h2.016v2.016H246.658z M246.224,122.48v5.104h-1.863v-3.521h-9.285v3.775h-1.862v-5.357H246.224
			L246.224,122.48z M240.407,125.543h1.913v7.5c0,0.441,0.056,0.701,0.166,0.777s0.489,0.115,1.136,0.115
			c0.611,0,0.981-0.183,1.109-0.55c0.127-0.364,0.218-1.56,0.269-3.584l1.786,0.257c-0.034,1.004-0.064,1.76-0.09,2.27
			c-0.024,0.511-0.085,1.013-0.179,1.506s-0.195,0.829-0.306,1.008c-0.111,0.178-0.307,0.344-0.586,0.497
			c-0.281,0.153-0.566,0.238-0.855,0.255c-0.289,0.018-0.714,0.025-1.274,0.025c-1.412,0-2.279-0.127-2.603-0.383
			c-0.323-0.254-0.484-0.961-0.484-2.117v-7.576H240.407z"/>
		<path fill="#FFFFFF" d="M255.229,134.344c-1.225,0-2.415-0.65-3.571-1.951c-1.157-1.301-1.735-2.717-1.735-4.248
			c0-1.444,0.795-2.707,2.386-3.787c1.59-1.08,3.729-1.681,6.416-1.799c0.306-2.279,0.544-4.27,0.714-5.971h-7.679v-1.709h9.593
			v1.709c-0.222,2.16-0.451,4.15-0.688,5.971c1.888,0.067,3.775,0.392,5.664,0.969c0.067-1.582,0.102-3.783,0.102-6.606h1.862
			c0,3.181-0.042,5.587-0.127,7.22c1.462,0.545,2.898,1.268,4.312,2.17l-0.868,1.556c-1.123-0.697-2.312-1.31-3.57-1.837
			c-0.12,1.496-0.303,2.734-0.55,3.712s-0.611,1.808-1.097,2.487c-0.485,0.681-1.008,1.229-1.569,1.646
			c-0.561,0.417-1.335,0.88-2.32,1.392l-0.971-1.582c0.697-0.356,1.25-0.668,1.658-0.932s0.812-0.6,1.212-1.008
			s0.706-0.889,0.918-1.441s0.396-1.229,0.548-2.027c0.153-0.801,0.272-1.77,0.357-2.909c-2.007-0.646-3.946-1.002-5.817-1.07
			c-0.322,2.108-0.667,3.835-1.032,5.179c-0.366,1.344-0.766,2.368-1.199,3.073c-0.435,0.707-0.876,1.185-1.327,1.431
			C256.398,134.221,255.858,134.344,255.229,134.344z M258.47,124.318c-2.041,0.119-3.648,0.549-4.822,1.287
			c-1.174,0.739-1.761,1.586-1.761,2.539c0,0.985,0.383,1.955,1.148,2.907c0.765,0.953,1.495,1.431,2.193,1.431
			c0.408,0,0.778-0.219,1.11-0.651s0.685-1.271,1.059-2.513C257.772,128.077,258.129,126.41,258.47,124.318z"/>
		<path fill="#FFFFFF" d="M283.803,132.559v-2.756h-6.276c-0.221,2.416-0.646,4.447-1.275,6.098l-1.658-1.174
			c0.459-1.188,0.791-2.604,0.995-4.248c0.204-1.641,0.306-4.119,0.306-7.436v-2.041l-1.275-0.842
			c1.649-2.297,2.832-4.907,3.546-7.832l1.888,0.203c-0.204,0.816-0.34,1.344-0.408,1.582h4.133v1.607
			c-0.341,0.866-0.706,1.709-1.097,2.524h2.883v14.235c0,1.463-0.11,2.367-0.332,2.718c-0.221,0.348-0.773,0.522-1.657,0.522
			c-0.767,0-1.812-0.043-3.139-0.129l-0.051-1.658c1.445,0.086,2.279,0.129,2.5,0.129c0.459,0,0.727-0.063,0.804-0.191
			C283.764,133.744,283.803,133.307,283.803,132.559z M277.731,124.752c0,0.9-0.034,2.049-0.102,3.443h2.271v-3.443H277.731z
			 M277.731,123.17h2.168v-3.266h-2.168V123.17z M280.665,118.246c0.526-1.055,0.918-1.896,1.174-2.525h-2.755
			c-0.307,0.799-0.682,1.641-1.123,2.525H280.665z M281.558,123.17h2.245v-3.266h-2.245V123.17z M281.558,124.752v3.443h2.245
			v-3.443H281.558z M293.727,129.089h4.337v1.685h-4.337v5.103h-1.964v-5.103h-5.434v-1.685h5.434v-3.495h-2.704
			c-0.477,1.156-0.97,2.16-1.479,3.01l-1.709-0.815c1.104-1.819,1.913-3.715,2.423-5.688l1.761,0.459
			c-0.035,0.104-0.073,0.248-0.115,0.435c-0.042,0.188-0.085,0.356-0.127,0.511c-0.042,0.152-0.089,0.297-0.14,0.434h2.092v-1.862
			h1.964v1.862h3.854v1.658h-3.854v3.493H293.727z M290.487,115.593h-4.261v-1.684h11.455c-0.085,2.278-0.204,3.916-0.356,4.911
			c-0.153,0.994-0.388,1.671-0.702,2.027s-0.829,0.536-1.543,0.536c-0.901,0-2.008-0.043-3.316-0.129l-0.127-1.657
			c1.071,0.086,1.956,0.127,2.653,0.127c0.34,0,0.591-0.08,0.752-0.242c0.162-0.16,0.293-0.53,0.396-1.109
			c0.103-0.577,0.18-1.504,0.229-2.78h-3.316c-0.204,1.548-0.778,2.927-1.722,4.134c-0.944,1.207-2.198,2.168-3.763,2.883
			l-0.944-1.506C288.539,119.861,290.062,118.025,290.487,115.593z"/>
		<path fill="#FFFFFF" d="M317.656,114.828c-3.469,2.789-6.676,5.145-9.617,7.066c-1.021,0.662-1.662,1.117-1.926,1.364
			c-0.265,0.246-0.396,0.515-0.396,0.804c0,0.271,0.119,0.522,0.357,0.752c0.237,0.23,0.798,0.65,1.684,1.264
			c3.555,2.416,7.118,5.18,10.688,8.291l-1.377,1.378c-3.504-3.026-6.99-5.739-10.461-8.138c-1.359-0.937-2.219-1.6-2.575-1.99
			c-0.357-0.391-0.535-0.91-0.535-1.557c0-0.681,0.187-1.221,0.561-1.619c0.374-0.4,1.293-1.076,2.756-2.029
			c3.18-2.107,6.378-4.447,9.592-7.016L317.656,114.828z"/>
		<path fill="#FFFFFF" d="M334.418,120.414h-1.709l1.86-6.301h2.398L334.418,120.414z M339.162,120.414h-1.71l1.89-6.301h2.373
			L339.162,120.414z"/>
		<path fill="#FFFFFF" d="M350.566,124.113v-1.76H356v-0.025v-5.408h-2.093c-0.545,1.734-1.174,3.291-1.888,4.668l-1.606-0.663
			c1.207-2.381,2.135-5.17,2.78-8.368l1.735,0.281c-0.138,0.73-0.315,1.521-0.537,2.373h7.425v1.709h-3.853v5.408v0.025h4.233v1.76
			h-4.336c-0.067,0.527-0.128,0.943-0.18,1.25c1.719,2.586,3.273,5.068,4.67,7.449l-1.582,1.071
			c-1.141-1.973-2.373-4.014-3.699-6.123c-0.545,1.65-1.285,3.146-2.22,4.49c-0.937,1.344-1.999,2.406-3.188,3.188l-1.147-1.557
			c1.496-1.037,2.713-2.402,3.647-4.095c0.936-1.692,1.515-3.584,1.734-5.677h-5.331V124.113z M372.914,114.674v20.691h-1.912
			v-1.607h-6.123v1.607h-1.863v-20.691H372.914z M364.879,132.048h6.123v-15.639h-6.123V132.048z"/>
		<path fill="#FFFFFF" d="M395.85,135.467c-1.396,0-3.146-0.076-5.256-0.23l-0.051-1.784c2.023,0.153,3.521,0.229,4.489,0.229
			c0.34,0,0.608-0.332,0.805-0.996c0.194-0.662,0.378-2.182,0.549-4.554c0.169-2.372,0.313-5.88,0.434-10.522h-7.525
			c-1.037,2.433-2.212,4.447-3.521,6.046l-0.688-0.663v10.46h-6.71v1.965h-1.913v-19.058h2.807c0.578-1.276,1.02-2.467,1.326-3.571
			l1.888,0.28c-0.323,1.121-0.723,2.22-1.198,3.291h3.802v5.203c1.803-2.532,3.087-5.483,3.852-8.853l1.889,0.255
			c-0.237,1.004-0.52,1.965-0.842,2.883h8.801c-0.067,3.131-0.136,5.745-0.203,7.846s-0.161,3.898-0.28,5.396
			s-0.242,2.653-0.369,3.471c-0.129,0.815-0.303,1.448-0.523,1.899c-0.221,0.45-0.442,0.729-0.664,0.842
			C396.521,135.411,396.224,135.467,395.85,135.467z M378.373,123.986h4.849v-5.92h-4.849V123.986z M378.373,125.645v6.148h4.849
			v-6.148H378.373z M388.527,121.818l1.633-0.895c1.431,2.16,2.654,4.438,3.675,6.837l-1.685,0.767
			C391.078,126.078,389.87,123.842,388.527,121.818z"/>
		<path fill="#FFFFFF" d="M407.279,123.936l1.734-0.867c1.104,2.414,2.397,4.304,3.878,5.664c1.479-1.36,2.771-3.25,3.878-5.664
			l1.785,0.791c-1.122,2.482-2.508,4.507-4.158,6.072c2.126,1.496,5.324,2.805,9.593,3.928l-0.587,1.761
			c-4.541-1.14-8.045-2.618-10.511-4.438c-2.466,1.82-5.97,3.301-10.511,4.438l-0.587-1.761c4.269-1.123,7.466-2.432,9.593-3.928
			C409.771,128.383,408.401,126.385,407.279,123.936z M402.1,115.645h9.771v-3.139h2.041v3.139h9.771v1.734H402.1V115.645z
			 M402.254,123.782c3.01-1.667,5.391-3.632,7.143-5.894l1.352,1.174c-1.784,2.433-4.319,4.532-7.602,6.301L402.254,123.782z
			 M422.33,125.363c-2.229-2.193-4.712-4.242-7.449-6.147l1.123-1.454c2.856,1.973,5.375,4.049,7.552,6.225L422.33,125.363z"/>
		<path fill="#FFFFFF" d="M430.801,124.318c-1.377-1.327-2.9-2.611-4.566-3.854l1.148-1.378c1.717,1.274,3.248,2.552,4.592,3.827
			L430.801,124.318z M432.587,127.559c-0.987,3.01-2.331,5.705-4.031,8.086l-1.581-1.045c1.633-2.348,2.941-4.916,3.928-7.705
			L432.587,127.559z M427.434,114.854l1.147-1.377c1.463,1.104,2.849,2.271,4.158,3.494l-1.174,1.377
			C430.29,117.158,428.912,115.992,427.434,114.854z M435.034,124.701h1.914c0,3.027-0.407,5.445-1.225,7.258
			c-0.816,1.811-2.084,3.186-3.801,4.12l-1.199-1.454c1.496-0.816,2.59-2.012,3.277-3.584
			C434.691,129.467,435.034,127.354,435.034,124.701z M443.43,118.322l1.633-0.867c1.785,2.059,3.393,4.125,4.821,6.199
			l-1.582,0.943c-0.323-0.476-0.782-1.104-1.378-1.888c-4.949,0.629-9.711,1.013-14.286,1.147l-0.077-1.709
			c0.613-0.018,1.565-0.061,2.857-0.129c0.834-1.598,1.649-3.399,2.448-5.408h-4.948v-1.684h7.065v-2.271h2.041v2.271h7.527v1.684
			h-9.595c-0.61,1.582-1.395,3.343-2.347,5.281c2.942-0.203,5.655-0.441,8.14-0.715C445.002,120.211,444.229,119.258,443.43,118.322
			z M439.5,135.492v-10.715h1.913v10.715H439.5z M444.398,124.521h1.914v8.674c0,0.426,0.037,0.677,0.114,0.754
			c0.077,0.076,0.336,0.113,0.777,0.113c0.578,0,0.923-0.203,1.033-0.611s0.208-1.837,0.293-4.286l1.685,0.179
			c-0.018,0.731-0.033,1.293-0.052,1.684c-0.018,0.393-0.043,0.834-0.075,1.326c-0.034,0.494-0.064,0.855-0.091,1.086
			c-0.025,0.229-0.075,0.492-0.151,0.791c-0.076,0.297-0.146,0.5-0.205,0.611c-0.06,0.11-0.165,0.242-0.318,0.396
			c-0.151,0.153-0.289,0.247-0.407,0.28c-0.119,0.035-0.303,0.076-0.55,0.127c-0.246,0.053-0.477,0.078-0.688,0.078
			c-0.213,0-0.497,0-0.854,0c-1.07,0-1.744-0.1-2.016-0.295c-0.272-0.195-0.408-0.691-0.408-1.492L444.398,124.521L444.398,124.521z
			"/>
		<path fill="#FFFFFF" d="M452.868,118.527h4.489v-4.594h1.913v4.594h9.185v-4.594h2.017v4.594h4.49v1.785h-4.49v1.633
			c0,4.252-0.895,7.318-2.679,9.197c-1.786,1.879-4.892,3.03-9.312,3.457l-0.331-1.787c3.979-0.407,6.692-1.377,8.138-2.907
			c1.446-1.53,2.169-4.185,2.169-7.96v-1.633h-9.185v5.791h-1.913v-5.791h-4.489L452.868,118.527L452.868,118.527z"/>
		<path fill="#FFFFFF" d="M481.85,133.578h-2.041v-18.012h19.236v18.012H481.85z M481.85,131.768h15.154v-14.389H481.85V131.768z"/>
		<path fill="#FFFFFF" d="M505.933,116.895l0.919-1.734c2.721,1.359,5.322,2.806,7.807,4.337l-0.995,1.733
			C511.316,119.77,508.739,118.322,505.933,116.895z M525.653,117.889c-1.718,9.797-8.002,15.172-18.853,16.123l-0.308-1.912
			c4.982-0.459,8.899-1.893,11.748-4.299c2.85-2.406,4.698-5.847,5.549-10.32L525.653,117.889z"/>
		<path fill="#FFFFFF" d="M537.439,120.414h-1.709l1.862-6.301h2.397L537.439,120.414z M542.186,120.414h-1.71l1.888-6.301h2.373
			L542.186,120.414z"/>
		<path fill="#FFFFFF" d="M547.286,125.109c1.666-2.349,3.835-3.521,6.507-3.521c1.938,0,3.725,0.74,5.356,2.221
			c1.343,1.225,2.704,1.836,4.082,1.836c0.986,0,1.87-0.221,2.652-0.662c0.782-0.442,1.563-1.174,2.348-2.194l1.505,1.25
			c-1.667,2.348-3.835,3.521-6.505,3.521c-1.939,0-3.725-0.74-5.357-2.221c-1.344-1.225-2.704-1.836-4.081-1.836
			c-1.005,0-1.894,0.221-2.666,0.663c-0.774,0.442-1.562,1.183-2.36,2.22L547.286,125.109z"/>
	</g>
</g>
<g>
	<g>
		<path fill="#0099D9" d="M171.56,52.479h-6.746v1.777h6.222v5.089h-6.101c1.562,1.32,3.218,2.801,4.968,4.443
			c1.292-2.611,2.182-5.783,2.666-9.513c0.485-3.729,0.728-9.405,0.728-17.026c5.951-0.485,10.879-1.427,14.784-2.828l1.574,5.574
			c-3.178,1.024-6.719,1.792-10.624,2.303c-0.054,2.02-0.107,3.528-0.161,4.524h10.986v5.574h-2.828v19.066h-5.978V52.398h-2.545
			c-0.404,4.579-1.099,8.308-2.08,11.189c-0.983,2.882-2.377,5.547-4.181,7.998l-3.757-3.918l-0.889,1.05
			c-0.754-0.916-1.683-1.952-2.787-3.11v6.221h-6.1v-6.746c-1.267,2.046-2.625,3.823-4.08,5.332l-3.07-4.807
			c2.208-1.858,4.025-3.945,5.453-6.261h-4.363v-5.089h6.06V52.48h-6.06v-4.928h3.191c-0.377-1.535-0.782-3.07-1.212-4.604h-1.777
			v-5.09h5.857V34.06h6.1v3.797h6.907v5.09h-1.697c-0.323,1.292-0.822,2.827-1.494,4.604h3.029v4.928H171.56z M161.098,47.551h2.021
			c0.618-1.562,1.131-3.096,1.534-4.604h-4.686C160.505,44.993,160.882,46.528,161.098,47.551z"/>
		<path fill="#0099D9" d="M195.715,54.822v-5.089h3.999c0.025-0.511,0.04-1.319,0.04-2.424v-1.414h-3.635v-5.413h3.635v-5.816h6.059
			v5.816h3.556v5.413h-3.556v1.09c0,1.239-0.014,2.155-0.041,2.747h3.676v5.089h-4.281c1.992,2.478,3.647,4.646,4.968,6.503
			l-3.635,3.999c-1.616-2.585-2.545-4.066-2.788-4.443c-1.077,4.336-2.841,7.822-5.292,10.462l-3.434-5.453
			c2.369-3.016,3.823-6.706,4.362-11.068h-3.633V54.822z M227.262,71.061h-1.212h-1.171c-2.127-0.027-3.447-0.229-3.958-0.606
			c-0.512-0.377-0.769-1.307-0.769-2.787v-7.473h-1.05c-0.916,6.086-5.009,9.91-12.28,11.472l-1.857-5.009
			c2.585-0.511,4.563-1.292,5.938-2.343c1.373-1.05,2.248-2.424,2.625-4.12h-2.867V35.433h20.964v24.762h-5.857v4.483
			c0,0.62,0.021,0.978,0.062,1.071s0.182,0.155,0.424,0.182c0.054,0,0.146,0.007,0.283,0.02c0.134,0.014,0.215,0.02,0.241,0.02
			c0.055,0,0.143-0.006,0.264-0.02c0.121-0.013,0.208-0.02,0.263-0.02c0.404-0.027,0.646-0.235,0.727-0.626
			c0.081-0.39,0.135-1.69,0.162-3.898l5.372,0.687c-0.054,1.266-0.095,2.235-0.121,2.908s-0.101,1.387-0.222,2.141
			c-0.121,0.753-0.216,1.292-0.283,1.616c-0.066,0.323-0.242,0.673-0.524,1.05c-0.283,0.377-0.525,0.612-0.728,0.707
			c-0.202,0.094-0.564,0.202-1.09,0.323s-0.997,0.188-1.414,0.202C228.763,71.054,228.124,71.061,227.262,71.061z M216.639,42.624
			h8.725v-2.101h-8.725V42.624z M216.639,46.865v2.101h8.725v-2.101H216.639z M216.639,53.207v2.06h8.725v-2.06H216.639z"/>
		<path fill="#0099D9" d="M269.191,47.875v2.747h-22.781v-2.747c-1.858,1.186-3.838,2.276-5.938,3.272l-2.343-5.251
			c6.005-3.097,11.188-6.8,15.552-11.108h8.24c4.363,4.309,9.546,8.012,15.552,11.108l-2.343,5.251
			C273.028,50.15,271.049,49.06,269.191,47.875z M240.229,58.579v-5.251h35.144v5.251h-5.13c1.938,3.932,3.782,7.85,5.533,11.754
			l-5.694,1.898c-0.862-1.939-1.388-3.11-1.575-3.514c-9.695,1.077-18.622,1.737-26.781,1.979l-0.363-5.251
			c2.531-0.107,4.443-0.188,5.736-0.242c1.023-1.804,2.154-4.012,3.393-6.625L240.229,58.579L240.229,58.579z M265.677,45.532
			c-2.882-2.046-5.507-4.282-7.877-6.706c-2.37,2.424-4.996,4.659-7.876,6.706H265.677z M266.242,63.79
			c-0.189-0.376-0.479-0.982-0.869-1.817c-0.392-0.834-0.681-1.455-0.868-1.858l4.442-1.535h-11.593
			c-0.861,1.993-1.857,4.053-2.988,6.18C259.698,64.382,263.657,64.059,266.242,63.79z"/>
		<path fill="#0099D9" d="M312.29,64.799c3.204,1.05,5.856,2.047,7.957,2.989l-2.948,4.443c-3.608-1.751-7.998-3.434-13.168-5.049
			l1.172-2.383h-8.16l1.171,2.02c-3.367,2.101-7.931,3.823-13.692,5.17l-2.384-4.605c3.204-0.781,6.1-1.642,8.686-2.585h-5.938
			V45.774h32.478v19.025H312.29z M292.902,44.684H286.6v-9.452h29.246v9.452H292.902z M291.447,51.349h19.551v-1.535h-19.551V51.349
			z M291.447,54.661v1.575h19.551v-1.575H291.447z M291.447,59.548v1.575h19.551v-1.575H291.447z M292.902,41.331h16.643v-1.616
			h-16.643V41.331z"/>
		<path fill="#0099D9" d="M327.115,65.365l-2.02-4.767c2.691-0.781,5.021-1.71,6.987-2.787h-5.815v-4.12h11.147l0.728-0.849h-2.141
			h-6.424V41.735h4.848v-1.01h-8.158v-4.484h8.158V34.02h6.262v2.222h7.917V34.02h6.261v2.222h8.16v4.484h-8.16v1.01h4.849v11.108
			h-14.945l-0.606,0.849h18.864v4.12h-5.816c1.886,1.023,4.215,1.953,6.988,2.787l-2.021,4.767c-0.378-0.135-1.44-0.552-3.19-1.252
			c-0.162,2.127-0.459,3.702-0.889,4.726c-0.433,1.023-1.031,1.703-1.798,2.04c-0.769,0.336-1.934,0.505-3.494,0.505
			c-2.316,0-4.592-0.067-6.827-0.202l-0.282-5.211c2.154,0.162,3.958,0.243,5.413,0.243c0.484,0,0.787-0.081,0.908-0.243
			c0.121-0.161,0.236-0.659,0.344-1.494h-6.746c-2.692,3.581-7.998,6.099-15.915,7.553l-2.505-4.726
			c4.955-0.672,8.551-1.616,10.785-2.827h-5.17v-1.495C331.303,63.736,329.404,64.531,327.115,65.365z M336.002,45.936h17.289
			v-1.171h-17.289V45.936z M336.002,48.561v1.131h17.289v-1.131H336.002z M341.738,58.458h6.14
			c-0.026,0.351-0.095,0.849-0.201,1.495h3.756c-1.104-0.834-1.979-1.548-2.625-2.141h-8.281c-0.646,0.593-1.521,1.306-2.625,2.141
			h3.635C341.616,59.629,341.684,59.131,341.738,58.458z M340.688,41.735h7.917v-1.01h-7.917V41.735z"/>
		<path fill="#0099D9" d="M407.215,65.365l-1.857,5.332c-5.521-1.4-10.18-3.003-13.977-4.807v5.695h-6.624V65.89
			c-3.798,1.804-8.456,3.406-13.978,4.807l-1.857-5.332c5.467-0.996,9.924-2.087,13.371-3.272h-12.482v-4.484h14.946v-1.333h-12.36
			V48.44l-3.878-2.1c2.262-3.797,4.052-7.823,5.372-12.078l5.938,0.889c-0.054,0.243-0.241,0.903-0.563,1.979h7.311
			c0.296-0.834,0.593-1.791,0.89-2.868l6.262,0.566c-0.055,0.188-0.129,0.438-0.223,0.747c-0.096,0.31-0.177,0.593-0.242,0.848
			c-0.068,0.256-0.143,0.492-0.223,0.707h11.512v4.484h-12.077v1.333h10.866v3.433h-10.866v1.333h10.866v3.474h-10.866v1.292h12.077
			v3.797h-13.168v1.333h14.542v4.484h-12.077C397.291,63.278,401.747,64.369,407.215,65.365z M385.888,42.947v-1.333h-7.23v1.333
			H385.888z M385.888,47.713V46.38h-7.23v1.333H385.888z M385.888,51.187h-7.23v1.292h7.23V51.187z"/>
		<path fill="#0099D9" d="M420.102,60.316v2.141h-6.061V40.685h14.139v-6.423h6.625v6.423h14.138v21.772h-6.06v-2.141h-8.078V71.99
			h-6.625V60.316H420.102z M420.102,55.064h8.078v-8.967h-8.078V55.064z M442.883,55.064v-8.967h-8.078v8.967H442.883z"/>
	</g>
	<g>
		
			<linearGradient id="SVGID_1_" gradientUnits="userSpaceOnUse" x1="179.0691" y1="203.1816" x2="179.0691" y2="169.9967" gradientTransform="matrix(1 0 0 -1 -8.3599 237.0547)">
			<stop  offset="0.5443" style="stop-color:#0099D9"/>
			<stop  offset="1" style="stop-color:#036EB8"/>
		</linearGradient>
		<path fill="url(#SVGID_1_)" d="M171.56,52.479h-6.746v1.777h6.222v5.089h-6.101c1.562,1.32,3.218,2.801,4.968,4.443
			c1.292-2.611,2.182-5.783,2.666-9.513c0.485-3.729,0.728-9.405,0.728-17.026c5.951-0.485,10.879-1.427,14.784-2.828l1.574,5.574
			c-3.178,1.024-6.719,1.792-10.624,2.303c-0.054,2.02-0.107,3.528-0.161,4.524h10.986v5.574h-2.828v19.066h-5.978V52.398h-2.545
			c-0.404,4.579-1.099,8.308-2.08,11.189c-0.983,2.882-2.377,5.547-4.181,7.998l-3.757-3.918l-0.889,1.05
			c-0.754-0.916-1.683-1.952-2.787-3.11v6.221h-6.1v-6.746c-1.267,2.046-2.625,3.823-4.08,5.332l-3.07-4.807
			c2.208-1.858,4.025-3.945,5.453-6.261h-4.363v-5.089h6.06V52.48h-6.06v-4.928h3.191c-0.377-1.535-0.782-3.07-1.212-4.604h-1.777
			v-5.09h5.857V34.06h6.1v3.797h6.907v5.09h-1.697c-0.323,1.292-0.822,2.827-1.494,4.604h3.029v4.928H171.56z M161.098,47.551h2.021
			c0.618-1.562,1.131-3.096,1.534-4.604h-4.686C160.505,44.993,160.882,46.528,161.098,47.551z"/>
		
			<linearGradient id="SVGID_2_" gradientUnits="userSpaceOnUse" x1="222.635" y1="203.1816" x2="222.635" y2="169.9967" gradientTransform="matrix(1 0 0 -1 -8.3599 237.0547)">
			<stop  offset="0.5443" style="stop-color:#0099D9"/>
			<stop  offset="1" style="stop-color:#036EB8"/>
		</linearGradient>
		<path fill="url(#SVGID_2_)" d="M195.715,54.822v-5.089h3.999c0.025-0.511,0.04-1.319,0.04-2.424v-1.414h-3.635v-5.413h3.635
			v-5.816h6.059v5.816h3.556v5.413h-3.556v1.09c0,1.239-0.014,2.155-0.041,2.747h3.676v5.089h-4.281
			c1.992,2.478,3.647,4.646,4.968,6.503l-3.635,3.999c-1.616-2.585-2.545-4.066-2.788-4.443c-1.077,4.336-2.841,7.822-5.292,10.462
			l-3.434-5.453c2.369-3.016,3.823-6.706,4.362-11.068h-3.633V54.822z M227.262,71.061h-1.212h-1.171
			c-2.127-0.027-3.447-0.229-3.958-0.606c-0.512-0.377-0.769-1.307-0.769-2.787v-7.473h-1.05c-0.916,6.086-5.009,9.91-12.28,11.472
			l-1.857-5.009c2.585-0.511,4.563-1.292,5.938-2.343c1.373-1.05,2.248-2.424,2.625-4.12h-2.867V35.433h20.964v24.762h-5.857v4.483
			c0,0.62,0.021,0.978,0.062,1.071s0.182,0.155,0.424,0.182c0.054,0,0.146,0.007,0.283,0.02c0.134,0.014,0.215,0.02,0.241,0.02
			c0.055,0,0.143-0.006,0.264-0.02c0.121-0.013,0.208-0.02,0.263-0.02c0.404-0.027,0.646-0.235,0.727-0.626
			c0.081-0.39,0.135-1.69,0.162-3.898l5.372,0.687c-0.054,1.266-0.095,2.235-0.121,2.908s-0.101,1.387-0.222,2.141
			c-0.121,0.753-0.216,1.292-0.283,1.616c-0.066,0.323-0.242,0.673-0.524,1.05c-0.283,0.377-0.525,0.612-0.728,0.707
			c-0.202,0.094-0.564,0.202-1.09,0.323s-0.997,0.188-1.414,0.202C228.763,71.054,228.124,71.061,227.262,71.061z M216.639,42.624
			h8.725v-2.101h-8.725V42.624z M216.639,46.865v2.101h8.725v-2.101H216.639z M216.639,53.207v2.06h8.725v-2.06H216.639z"/>
		
			<linearGradient id="SVGID_3_" gradientUnits="userSpaceOnUse" x1="266.1604" y1="203.1816" x2="266.1604" y2="169.9967" gradientTransform="matrix(1 0 0 -1 -8.3599 237.0547)">
			<stop  offset="0.5443" style="stop-color:#0099D9"/>
			<stop  offset="1" style="stop-color:#036EB8"/>
		</linearGradient>
		<path fill="url(#SVGID_3_)" d="M269.191,47.875v2.747h-22.781v-2.747c-1.858,1.186-3.838,2.276-5.938,3.272l-2.343-5.251
			c6.005-3.097,11.188-6.8,15.552-11.108h8.24c4.363,4.309,9.546,8.012,15.552,11.108l-2.343,5.251
			C273.028,50.15,271.049,49.06,269.191,47.875z M240.229,58.579v-5.251h35.144v5.251h-5.13c1.938,3.932,3.782,7.85,5.533,11.754
			l-5.694,1.898c-0.862-1.939-1.388-3.11-1.575-3.514c-9.695,1.077-18.622,1.737-26.781,1.979l-0.363-5.251
			c2.531-0.107,4.443-0.188,5.736-0.242c1.023-1.804,2.154-4.012,3.393-6.625L240.229,58.579L240.229,58.579z M265.677,45.532
			c-2.882-2.046-5.507-4.282-7.877-6.706c-2.37,2.424-4.996,4.659-7.876,6.706H265.677z M266.242,63.79
			c-0.189-0.376-0.479-0.982-0.869-1.817c-0.392-0.834-0.681-1.455-0.868-1.858l4.442-1.535h-11.593
			c-0.861,1.993-1.857,4.053-2.988,6.18C259.698,64.382,263.657,64.059,266.242,63.79z"/>
		
			<linearGradient id="SVGID_4_" gradientUnits="userSpaceOnUse" x1="309.6018" y1="203.1816" x2="309.6018" y2="169.9967" gradientTransform="matrix(1 0 0 -1 -8.3599 237.0547)">
			<stop  offset="0.5443" style="stop-color:#0099D9"/>
			<stop  offset="1" style="stop-color:#036EB8"/>
		</linearGradient>
		<path fill="url(#SVGID_4_)" d="M312.29,64.799c3.204,1.05,5.856,2.047,7.957,2.989l-2.948,4.443
			c-3.608-1.751-7.998-3.434-13.168-5.049l1.172-2.383h-8.16l1.171,2.02c-3.367,2.101-7.931,3.823-13.692,5.17l-2.384-4.605
			c3.204-0.781,6.1-1.642,8.686-2.585h-5.938V45.774h32.478v19.025H312.29z M292.902,44.684H286.6v-9.452h29.246v9.452H292.902z
			 M291.447,51.349h19.551v-1.535h-19.551V51.349z M291.447,54.661v1.575h19.551v-1.575H291.447z M291.447,59.548v1.575h19.551
			v-1.575H291.447z M292.902,41.331h16.643v-1.616h-16.643V41.331z"/>
		
			<linearGradient id="SVGID_5_" gradientUnits="userSpaceOnUse" x1="353.0061" y1="203.1816" x2="353.0061" y2="169.9967" gradientTransform="matrix(1 0 0 -1 -8.3599 237.0547)">
			<stop  offset="0.5443" style="stop-color:#0099D9"/>
			<stop  offset="1" style="stop-color:#036EB8"/>
		</linearGradient>
		<path fill="url(#SVGID_5_)" d="M327.115,65.365l-2.02-4.767c2.691-0.781,5.021-1.71,6.987-2.787h-5.815v-4.12h11.147l0.728-0.849
			h-2.141h-6.424V41.735h4.848v-1.01h-8.158v-4.484h8.158V34.02h6.262v2.222h7.917V34.02h6.261v2.222h8.16v4.484h-8.16v1.01h4.849
			v11.108h-14.945l-0.606,0.849h18.864v4.12h-5.816c1.886,1.023,4.215,1.953,6.988,2.787l-2.021,4.767
			c-0.378-0.135-1.44-0.552-3.19-1.252c-0.162,2.127-0.459,3.702-0.889,4.726c-0.433,1.023-1.031,1.703-1.798,2.04
			c-0.769,0.336-1.934,0.505-3.494,0.505c-2.316,0-4.592-0.067-6.827-0.202l-0.282-5.211c2.154,0.162,3.958,0.243,5.413,0.243
			c0.484,0,0.787-0.081,0.908-0.243c0.121-0.161,0.236-0.659,0.344-1.494h-6.746c-2.692,3.581-7.998,6.099-15.915,7.553
			l-2.505-4.726c4.955-0.672,8.551-1.616,10.785-2.827h-5.17v-1.495C331.303,63.736,329.404,64.531,327.115,65.365z M336.002,45.936
			h17.289v-1.171h-17.289V45.936z M336.002,48.561v1.131h17.289v-1.131H336.002z M341.738,58.458h6.14
			c-0.026,0.351-0.095,0.849-0.201,1.495h3.756c-1.104-0.834-1.979-1.548-2.625-2.141h-8.281c-0.646,0.593-1.521,1.306-2.625,2.141
			h3.635C341.616,59.629,341.684,59.131,341.738,58.458z M340.688,41.735h7.917v-1.01h-7.917V41.735z"/>
		
			<linearGradient id="SVGID_6_" gradientUnits="userSpaceOnUse" x1="396.2268" y1="203.1816" x2="396.2268" y2="169.9967" gradientTransform="matrix(1 0 0 -1 -8.3599 237.0547)">
			<stop  offset="0.5443" style="stop-color:#0099D9"/>
			<stop  offset="1" style="stop-color:#036EB8"/>
		</linearGradient>
		<path fill="url(#SVGID_6_)" d="M407.215,65.365l-1.857,5.332c-5.521-1.4-10.18-3.003-13.977-4.807v5.695h-6.624V65.89
			c-3.798,1.804-8.456,3.406-13.978,4.807l-1.857-5.332c5.467-0.996,9.924-2.087,13.371-3.272h-12.482v-4.484h14.946v-1.333h-12.36
			V48.44l-3.878-2.1c2.262-3.797,4.052-7.823,5.372-12.078l5.938,0.889c-0.054,0.243-0.241,0.903-0.563,1.979h7.311
			c0.296-0.834,0.593-1.791,0.89-2.868l6.262,0.566c-0.055,0.188-0.129,0.438-0.223,0.747c-0.096,0.31-0.177,0.593-0.242,0.848
			c-0.068,0.256-0.143,0.492-0.223,0.707h11.512v4.484h-12.077v1.333h10.866v3.433h-10.866v1.333h10.866v3.474h-10.866v1.292h12.077
			v3.797h-13.168v1.333h14.542v4.484h-12.077C397.291,63.278,401.747,64.369,407.215,65.365z M385.888,42.947v-1.333h-7.23v1.333
			H385.888z M385.888,47.713V46.38h-7.23v1.333H385.888z M385.888,51.187h-7.23v1.292h7.23V51.187z"/>
		
			<linearGradient id="SVGID_7_" gradientUnits="userSpaceOnUse" x1="439.8518" y1="203.1816" x2="439.8518" y2="169.9967" gradientTransform="matrix(1 0 0 -1 -8.3599 237.0547)">
			<stop  offset="0.5443" style="stop-color:#0099D9"/>
			<stop  offset="1" style="stop-color:#036EB8"/>
		</linearGradient>
		<path fill="url(#SVGID_7_)" d="M420.102,60.316v2.141h-6.061V40.685h14.139v-6.423h6.625v6.423h14.138v21.772h-6.06v-2.141h-8.078
			V71.99h-6.625V60.316H420.102z M420.102,55.064h8.078v-8.967h-8.078V55.064z M442.883,55.064v-8.967h-8.078v8.967H442.883z"/>
	</g>
</g>
<linearGradient id="SVGID_8_" gradientUnits="userSpaceOnUse" x1="62.5979" y1="31.3452" x2="69.0648" y2="68.0206">
	<stop  offset="0.5443" style="stop-color:#0099D9"/>
	<stop  offset="1" style="stop-color:#036EB7"/>
</linearGradient>
<path fill="url(#SVGID_8_)" d="M31.77,66.343l1.524,7.174l-20.887,4.439l4.802-10.048c0.279-0.604,0.592-1.273,0.939-2.01
	c0.347-0.736,0.688-1.531,1.023-2.384c0.335-0.854,0.663-1.748,0.981-2.683c0.317-0.935,0.583-1.866,0.793-2.796
	c0.229-0.967,0.38-1.924,0.45-2.875s0.022-1.815-0.144-2.596c-0.242-1.139-0.745-2.062-1.506-2.767
	c-0.762-0.704-1.546-0.972-2.353-0.8c-0.885,0.188-1.505,0.693-1.86,1.517c-0.355,0.825-0.402,1.853-0.139,3.089
	c0.007,0.033,0.014,0.065,0.021,0.099c0.035,0.162,0.077,0.332,0.128,0.508c0.051,0.177,0.133,0.405,0.248,0.687l-7.457,1.585
	c-0.823-3.872-0.497-7.138,0.978-9.797c1.475-2.66,3.708-4.307,6.702-4.943c2.811-0.598,5.384,0.02,7.718,1.853
	s3.858,4.425,4.57,7.776c0.325,1.53,0.432,2.994,0.322,4.394c-0.11,1.401-0.46,2.827-1.049,4.278
	c-0.147,0.337-0.304,0.686-0.472,1.044c-0.168,0.359-0.352,0.712-0.55,1.06l-3.293,6.005L31.77,66.343z M29.325,49.955
	c0.057-2.104,0.423-4.059,1.1-5.87c0.714-1.886,1.657-3.395,2.831-4.529c1.174-1.132,2.567-1.871,4.182-2.214
	c1.613-0.343,3.187-0.234,4.72,0.323c1.533,0.559,2.997,1.556,4.391,2.994c1.38,1.374,2.517,3.01,3.41,4.911
	c0.895,1.9,1.628,4.202,2.202,6.902c0.566,2.668,0.831,5.06,0.791,7.176c-0.04,2.118-0.408,4.1-1.103,5.947
	c-0.688,1.88-1.622,3.38-2.799,4.497c-1.177,1.118-2.572,1.847-4.186,2.19c-1.614,0.343-3.186,0.244-4.716-0.298
	c-1.529-0.541-3.004-1.529-4.423-2.962c-1.361-1.41-2.497-3.072-3.407-4.988c-0.91-1.914-1.649-4.205-2.216-6.873
	C29.529,54.46,29.27,52.058,29.325,49.955z M39.583,62.795c1.201,1.683,2.439,2.39,3.715,2.119c1.274-0.271,2.112-1.418,2.513-3.442
	c0.399-2.022,0.284-4.514-0.345-7.475c-0.636-2.993-1.548-5.334-2.736-7.019c-1.188-1.686-2.42-2.394-3.694-2.123
	c-1.276,0.271-2.12,1.42-2.532,3.446c-0.413,2.025-0.301,4.536,0.335,7.529C37.468,58.792,38.383,61.113,39.583,62.795z
	 M74.713,57.216l1.525,7.174l-20.887,4.439l4.801-10.049c0.28-0.604,0.593-1.273,0.939-2.01c0.347-0.736,0.688-1.531,1.023-2.384
	s0.662-1.747,0.98-2.683c0.318-0.934,0.583-1.866,0.794-2.796c0.229-0.967,0.379-1.924,0.449-2.875
	c0.069-0.951,0.021-1.815-0.145-2.596c-0.242-1.139-0.744-2.062-1.506-2.766s-1.546-0.972-2.353-0.8
	c-0.885,0.188-1.505,0.693-1.86,1.517c-0.355,0.825-0.402,1.854-0.14,3.09c0.007,0.033,0.014,0.065,0.021,0.099
	c0.035,0.162,0.078,0.332,0.129,0.507c0.051,0.177,0.134,0.405,0.248,0.688l-7.457,1.585c-0.822-3.872-0.496-7.138,0.979-9.797
	c1.475-2.66,3.709-4.308,6.702-4.944c2.811-0.598,5.383,0.021,7.718,1.854c2.333,1.833,3.859,4.425,4.57,7.775
	c0.326,1.53,0.434,2.994,0.322,4.394c-0.109,1.401-0.459,2.827-1.049,4.278c-0.146,0.337-0.303,0.686-0.471,1.044
	c-0.17,0.359-0.354,0.713-0.551,1.06l-3.294,6.004L74.713,57.216z M81.978,42.257c0.078-0.017,0.156-0.033,0.234-0.05
	s0.143-0.03,0.195-0.042c0.086,0.017,0.152,0.018,0.205,0.006s0.092-0.019,0.117-0.025c0.859-0.183,1.484-0.664,1.877-1.444
	c0.391-0.779,0.469-1.723,0.234-2.829c-0.201-0.943-0.613-1.664-1.234-2.161c-0.623-0.497-1.324-0.662-2.105-0.496
	c-0.834,0.177-1.42,0.642-1.764,1.396c-0.344,0.753-0.404,1.718-0.18,2.895l-6.285,1.336c-0.021-0.099-0.035-0.189-0.039-0.272
	c-0.004-0.084-0.014-0.159-0.027-0.224c-0.068-0.834-0.105-1.525-0.111-2.067c-0.008-0.542,0.016-1.075,0.068-1.596
	c0.029-0.243,0.074-0.482,0.133-0.716c0.059-0.234,0.117-0.476,0.172-0.726c0.428-1.825,1.252-3.36,2.469-4.605
	c1.219-1.244,2.66-2.044,4.326-2.398c2.68-0.569,4.979-0.191,6.893,1.136s3.172,3.406,3.773,6.236
	c0.346,1.628,0.422,3.04,0.229,4.237c-0.195,1.198-0.691,2.289-1.488,3.275c1.471,0.265,2.736,1.068,3.797,2.406
	s1.82,3.098,2.285,5.277c0.648,3.059,0.219,5.768-1.293,8.129c-1.512,2.362-3.775,3.864-6.795,4.505
	c-2.68,0.57-5.32-0.01-7.916-1.735c-2.6-1.726-4.309-4.337-5.135-7.834l6.91-1.469c0.389,1.447,0.992,2.493,1.809,3.135
	c0.816,0.643,1.811,0.84,2.982,0.591c0.988-0.21,1.713-0.799,2.176-1.764c0.461-0.965,0.561-2.064,0.297-3.302
	c-0.248-1.171-0.814-2.105-1.697-2.802c-0.883-0.695-1.818-0.939-2.807-0.729c-0.053,0.011-0.098,0.021-0.137,0.029
	c-0.039,0.008-0.086,0.018-0.137,0.029c-0.098,0.056-0.209,0.105-0.336,0.149c-0.127,0.043-0.287,0.12-0.482,0.229L81.978,42.257z
	 M97.667,43.972l1.132-0.013c-0.027,0.298-0.078,0.749-0.151,1.349l8.794-1.869l0.206,0.971l-4.578,0.973l0.526,2.478l4.144-0.88
	l0.207,0.971l-4.144,0.88l0.631,2.97l5.259-1.117l0.209,0.984l-5.259,1.117l0.705,3.317l-1.159,0.247l-0.705-3.317l-6.62,1.407
	l-0.209-0.984l2.564-0.545l-0.838-3.94l4.056-0.862l-0.526-2.478l-3.434,0.73c-0.299,1.587-0.736,3.063-1.314,4.429l-1.052-0.458
	C96.966,48.32,97.484,46.201,97.667,43.972z M102.643,49.077l-2.955,0.628l0.631,2.97l2.955-0.628L102.643,49.077z M112.058,45.289
	l0.392,1.84c0.6,2.82,0.625,5.269,0.076,7.343l-1.01-0.693c0.212-0.995,0.298-2.042,0.255-3.144
	c-0.042-1.102-0.228-2.425-0.556-3.97l-0.899-4.23l5.447-1.158l-0.268-1.261l1.158-0.247l0.269,1.261l5.36-1.139l0.2,0.942
	l-2.333,0.496l0.259,1.217l2.318-0.493l0.196,0.927l-2.317,0.493l0.502,2.361l-6.346,1.349l-0.502-2.361L112.058,45.289z
	 M111.862,44.362l2.201-0.468l-0.259-1.217l-2.201,0.468L111.862,44.362z M114.902,49.621l0.832-0.722
	c0.885,0.649,1.915,1.132,3.093,1.447c1.001-0.8,1.819-1.725,2.453-2.778l-7.605,1.617l-0.197-0.928l8.938-1.9l0.197,0.928
	c-0.524,1.191-1.37,2.295-2.537,3.31c1.296,0.21,2.85,0.278,4.662,0.205l-0.136,0.999c-2.114,0.076-3.96-0.057-5.536-0.398
	c-1.284,0.939-2.926,1.813-4.924,2.622l-0.517-0.86c1.652-0.633,3.05-1.329,4.19-2.087
	C116.648,50.709,115.677,50.223,114.902,49.621z M115.179,43.657l4.1-0.872l-0.259-1.217l-4.1,0.872L115.179,43.657z
	 M115.376,44.583l0.321,1.507l4.1-0.872l-0.32-1.507L115.376,44.583z"/>
</svg>
